<svg xmlns="http://www.w3.org/2000/svg" width="140" height="140" viewBox="0 0 32 32" fill="currentColor">
    <path d="M11.7404 21.5087C12.2109 22.4935 12.0382 23.7089 11.2225 24.5246L8.72442 27.0227C7.68969 28.0574 6.01207 28.0574 4.97734 27.0227C3.94262 25.9879 3.94262 24.3103 4.97734 23.2756L7.47539 20.7775C8.29114 19.9618 9.50647 19.7891 10.4913 20.2596L15.6342 15.1168C13.6273 12.5015 14.1931 9.06375 16.8431 6.41374C19.7243 3.53254 23.5367 3.11515 26.2108 5.78923C28.8848 8.46331 28.4675 12.2757 25.5863 15.1569C22.9363 17.8069 19.4985 18.3727 16.8832 16.3658L11.7404 21.5087ZM23.0882 13.2834L21.8392 14.5324L22.5483 15.2416C23.0479 14.985 23.5412 14.6411 24.017 14.2122L23.0882 13.2834ZM22.4637 12.6589L21.2147 11.4098L19.9656 12.6589L21.2147 13.9079L22.4637 12.6589ZM20.5766 15.795C20.9351 15.7781 21.2981 15.714 21.6614 15.6036L21.2147 15.1569L20.5766 15.795ZM19.4386 15.684L20.5902 14.5324L19.3411 13.2834L17.7936 14.8309C18.3021 15.2559 18.8573 15.5388 19.4386 15.684ZM23.7127 12.6589L24.6415 13.5877C25.0704 13.1119 25.4143 12.6186 25.6709 12.119L24.9617 11.4098L23.7127 12.6589ZM23.0882 12.0344L24.3372 10.7853L23.0882 9.53631L21.8392 10.7853L23.0882 12.0344ZM26.2243 10.1473L25.5863 10.7853L26.0329 11.232C26.1433 10.8688 26.2074 10.5058 26.2243 10.1473ZM26.1133 9.00924C25.9681 8.42797 25.6852 7.87276 25.2603 7.36425L23.7127 8.91179L24.9617 10.1608L26.1133 9.00924ZM18.7166 8.91179L17.7878 7.98301C17.3589 8.45877 17.015 8.9521 16.7584 9.45165L17.4676 10.1608L18.7166 8.91179ZM19.3411 9.53631L18.0921 10.7853L19.3411 12.0344L20.5902 10.7853L19.3411 9.53631ZM16.205 11.4234L16.8431 10.7853L16.3964 10.3386C16.286 10.7019 16.2219 11.0649 16.205 11.4234ZM16.316 12.5614C16.4612 13.1427 16.7441 13.6979 17.1691 14.2064L18.7166 12.6589L17.4676 11.4098L16.316 12.5614ZM19.3411 8.28728L20.5902 7.03826L19.881 6.32909C19.3814 6.58567 18.8881 6.92961 18.4123 7.3585L19.3411 8.28728ZM19.9656 8.91179L21.2147 10.1608L22.4637 8.91179L21.2147 7.66277L19.9656 8.91179ZM21.8527 5.7757C21.4942 5.79259 21.1312 5.85668 20.768 5.96706L21.2147 6.41374L21.8527 5.7757ZM22.9908 5.88668L21.8392 7.03826L23.0882 8.28728L24.6357 6.73974C24.1272 6.3148 23.572 6.03189 22.9908 5.88668ZM9.97344 22.0266C9.62854 21.6816 9.06933 21.6816 8.72442 22.0266L6.22637 24.5246C5.88146 24.8695 5.88146 25.4287 6.22637 25.7736C6.57128 26.1185 7.13049 26.1185 7.47539 25.7736L9.97344 23.2756C10.3184 22.9307 10.3184 22.3715 9.97344 22.0266ZM6.83765 8.21078C6.98514 8.30059 7.12438 8.40925 7.2519 8.53677C7.60338 8.88825 7.81159 9.32874 7.87653 9.78568L10.0934 7.56877C9.98063 7.39849 9.89392 7.21602 9.83331 7.027L6.83765 8.21078ZM4.90039 8.03574C4.92431 8.02034 4.95008 8.00704 4.97754 7.99619L9.74043 6.11405C9.79234 5.63033 10.0037 5.16048 10.3745 4.7897C11.2367 3.92743 12.6348 3.92743 13.497 4.7897C14.3593 5.65197 14.3593 7.04999 13.497 7.91226C13.1553 8.25402 12.7294 8.46032 12.286 8.53117L10.3334 13.1858C10.3229 13.2108 10.3104 13.2343 10.2961 13.2563C10.1932 13.5859 10.0111 13.8962 9.74995 14.1574C9.5775 14.3298 9.2979 14.3298 9.12544 14.1574C8.95299 13.9849 8.95299 13.7053 9.12544 13.5329C9.6428 13.0155 9.6428 12.1767 9.12544 11.6593C8.60808 11.142 7.76927 11.142 7.2519 11.6593C7.07945 11.8318 6.79985 11.8318 6.62739 11.6593C6.45494 11.4869 6.45494 11.2073 6.62739 11.0348C7.14475 10.5175 7.14475 9.67865 6.62739 9.16128C6.11003 8.64392 5.27122 8.64392 4.75385 9.16128C4.5814 9.33374 4.3018 9.33374 4.12934 9.16128C3.95689 8.98883 3.95689 8.70923 4.12934 8.53677C4.35586 8.31025 4.61935 8.14324 4.90039 8.03574ZM8.50104 10.4102C8.95798 10.4751 9.39848 10.6833 9.74995 11.0348C9.88544 11.1703 9.99964 11.319 10.0926 11.4768L11.3496 8.48015C11.1286 8.41951 10.9151 8.32389 10.718 8.19328L8.50104 10.4102ZM10.999 7.28775C11.5163 7.80511 12.3552 7.80511 12.8725 7.28775C13.3899 6.77038 13.3899 5.93157 12.8725 5.41421C12.3552 4.89685 11.5163 4.89685 10.999 5.41421C10.4816 5.93157 10.4816 6.77038 10.999 7.28775Z"/>
</svg>