<svg xmlns="http://www.w3.org/2000/svg" width="140" height="140" viewBox="0 0 32 32" fill="currentColor">
    <path d="m26.8636 11.0455c.3182.409.6819.8636 1 1.2727.0909.1363.0909.3636.1364.5909v.0454c-.1364 1.3637-.6818 2.5-2.0455 3.091.1364.1818.1819.3636.2728.409.7272.591.6363 1.2728.5 2.1364-.1818 1.4546-1.3637 1.9546-2.2728 2.7273-.0454.0454-.1363.0454-.2272.0454-1.0455 0-2.0909 0-3.2273 0 .1818-.7727.3182-1.4545.5-2.1818.0455-.0909.2273-.2273.3636-.2727.3182-.0455.8182.0454.9091-.1364.2273-.3636.2728-.8636.4091-1.4091-.5909 0-1.0454 0-1.5909 0 .1818-.9091.4091-1.6818.5909-2.5454h1.5909c.1364-.4546.2273-.9091.3637-1.4091-.4091 0-.7728 0-1.2273 0 .1818-.8636.4091-1.6364.5909-2.4091 1.0909.0455 2.2273.0455 3.3636.0455zm-15.9545 0c-.1364.6818-.3182 1.3636-.5 2-.0455.1818-.2727.409-.3636.409-.81823-.1363-.95459.3637-1.0455 1 0 .1364-.04545.2273-.04545.4091h1.54545c-.2273.9091-.4091 1.7273-.59091 2.5909-.54545 0-1.04545 0-1.59091 0-.13636.5-.22727.9546-.36363 1.5h1.22727c-.18182.7728-.31818 1.5-.54546 2.2273-.04545.0909-.22727.1818-.36363.2273-.90909 0-1.81818 0-2.72728 0-.18181 0-.36363-.1364-.5-.2273-.36363-.3636-.68181-.7727-1.04545-1.1363 0-.1364 0-.2728 0-.4546.13636-.5.31818-1.0454.40909-1.5454.09091-.4091.27273-.7273.63636-.9546.36364-.2727.72728-.5909 1.18182-.9545-1.27272-.7728-1.09091-1.8182-.68182-2.9091 0-.0455 0-.0909 0-.0909.18182-.2728.31819-.6364.59091-.8637.45455-.4091 1-.8182 1.5-1.1818 1.09091-.0454 2.18182-.0454 3.27274-.0454zm3.9545 0c.2728.4545.5455.9545.8182 1.409 1.1818 1.8182 2.3182 3.6364 3.5 5.4546.3637.5909.6364 1.3636 1.6364 1.0909-.1818.8636-.3637 1.6364-.5909 2.4545-1 0-1.9546 0-2.9091 0-.1364 0-.3637-.2272-.4546-.409-1.4091-2.1819-2.8181-4.4091-4.2272-6.591-.3637-.5454-.6364-1.1818-1.5455-.909.2273-.9091.4091-1.6819.5909-2.4546 1.0455-.0454 2.0909-.0454 3.1818-.0454zm7.8182 0c-.1363.6818-.3182 1.3181-.4545 2-.0455.2727-.1818.4545-.5.409-.4546-.0909-.7273.1364-1.0455.4091-.6363.5909-1.3182 1.1819-2.0454 1.8182-.5455-.8182-1.0455-1.5909-1.5455-2.4091.8182-.7727 1.6364-1.5454 2.4091-2.2727 1.0909.0455 2.1364.0455 3.1818.0455zm-13.27271 10.3636c.18182-.7727.31818-1.4546.54546-2.1364.04545-.1363.27275-.1818.40905-.2727.2728-.1364.5909-.1818.8182-.3636.7273-.5909 1.3637-1.2273 2.1364-1.9091.5454.8182 1.0454 1.5909 1.5454 2.4091-.8181.7272-1.5909 1.4545-2.4091 2.1363-.0909.0455-.1818.0909-.3181.0909-.8637.0455-1.7728.0455-2.72731.0455z"/>
</svg>