<svg xmlns="http://www.w3.org/2000/svg" width="140" height="140" viewBox="0 0 32 32" fill="currentColor">
    <path fill-rule="evenodd" clip-rule="evenodd" d="M5.81747 14.5375C5.74947 15.0152 5.71429 15.5035 5.71429 16C5.71429 18.7226 6.77212 21.1982 8.4992 23.0381C9.76418 18.2491 12.8191 14.1388 16.947 11.4075C16.505 10.963 16.0422 10.5416 15.5601 10.145C14.5449 10.7299 13.4025 11.1111 12.1918 11.2384C11.9035 11.2687 11.6127 11.2845 11.3201 11.2856C9.08279 11.5238 7.08484 12.7245 5.81747 14.5375ZM6.24269 12.7368C7.79362 11.2657 9.87392 10.3931 12.1107 10.385C13.0758 10.2825 13.9927 10.0004 14.8243 9.57045C13.5309 8.61229 12.1135 7.82664 10.5963 7.2464C8.56994 8.49996 7.01132 10.4375 6.24269 12.7368ZM18.2824 5.96841C17.5483 5.80209 16.7844 5.71429 16 5.71429C14.4131 5.71429 12.9102 6.07364 11.5681 6.71542C13.0198 7.33693 14.3771 8.14001 15.6196 9.0968C16.7609 8.3209 17.6886 7.24394 18.2824 5.96841ZM19.1205 6.19615C18.5 7.5914 17.5231 8.78011 16.3133 9.65697C16.791 10.0612 17.2498 10.489 17.6886 10.9387C19.3646 9.92716 21.2009 9.13632 23.1533 8.60907C22.0266 7.51835 20.6512 6.68295 19.1205 6.19615ZM15.5043 26.274C16.0451 25.2469 16.4286 22.9117 16.4286 20.2857V19.3441C16.454 17.146 17.4524 15.1817 19.0134 13.8621C18.559 13.223 18.0694 12.614 17.5471 12.0389C13.3913 14.744 10.352 18.8957 9.21044 23.7266C10.9062 25.2179 13.0969 26.1598 15.5043 26.274ZM16.442 26.2764C18.8459 26.1748 21.0363 25.248 22.7374 23.7722C22.368 20.3933 21.2296 17.2483 19.4979 14.5758C18.1425 15.7544 17.2857 17.4914 17.2857 19.4286V20.2857C17.2857 22.7513 16.9665 24.9733 16.442 26.2764ZM25.9545 13.4009C25.2463 13.1376 24.4906 13 23.7143 13C22.4098 13 21.196 13.3886 20.1824 14.0562C21.8937 16.6798 23.0533 19.7407 23.509 23.0294C25.2312 21.1904 26.2857 18.7183 26.2857 16C26.2857 15.1021 26.1707 14.2311 25.9545 13.4009ZM25.638 12.3996C25.214 11.2651 24.5954 10.2255 23.8228 9.32143C21.8423 9.80926 19.981 10.5778 18.2871 11.5796C18.7881 12.1401 19.2596 12.7305 19.6995 13.3479C20.8506 12.5863 22.2307 12.1429 23.7143 12.1429C24.3724 12.1429 25.018 12.2303 25.638 12.3996ZM16 28C9.37258 28 4 22.6274 4 16C4 9.37258 9.37258 4 16 4C22.6274 4 28 9.37258 28 16C28 22.6274 22.6274 28 16 28Z"/>
</svg>