<svg xmlns="http://www.w3.org/2000/svg" width="140" height="140" viewBox="0 0 32 32" fill="currentColor">
    <path fill-rule="evenodd" clip-rule="evenodd" d="M6.03304 18.5776C6.16758 19.1744 6.35363 19.7448 6.59023 20.2812C6.78767 20.7289 6.58484 21.2518 6.1372 21.4492C5.68957 21.6467 5.16663 21.4438 4.9692 20.9962C4.32461 19.5348 4 17.8851 4 16.1529C4 9.43666 9.55681 4 16.4019 4C23.247 4 28.8038 9.43666 28.8038 16.1529C28.8038 17.8411 28.4518 19.4825 27.7787 20.9983C27.5801 21.4454 27.0567 21.6469 26.6096 21.4483C26.1624 21.2498 25.9609 20.7263 26.1595 20.2792C26.7326 18.9886 27.0321 17.592 27.0321 16.1529C27.0321 11.8281 24.3224 8.11697 20.4666 6.55753C20.2264 7.177 19.937 7.76957 19.6036 8.33104C22.9098 11.4744 24.8175 15.8029 24.8175 20.4325C24.8175 20.5643 24.816 20.6959 24.8129 20.8273C24.8072 21.0719 24.6043 21.2655 24.3597 21.2598C24.1152 21.2541 23.9216 21.0512 23.9273 20.8066C23.9302 20.6821 23.9316 20.5574 23.9316 20.4325C23.9316 16.1055 22.1721 12.0572 19.1139 9.08895C18.3559 10.17 17.4262 11.1145 16.3681 11.8871C18.9025 14.1372 20.3882 17.3632 20.3882 20.8312C20.3882 21.0758 20.1899 21.2741 19.9453 21.2741C19.7007 21.2741 19.5024 21.0758 19.5024 20.8312C19.5024 19.2835 19.1831 17.7883 18.5895 16.4212C15.1204 17.8638 11.3843 18.6165 7.5434 18.6165C7.03828 18.6165 6.53471 18.6035 6.03304 18.5776ZM5.87241 17.6815C6.42707 17.7142 6.98422 17.7307 7.5434 17.7307C11.2501 17.7307 14.8547 17.0078 18.2037 15.6222C17.5542 14.4048 16.6767 13.3104 15.6072 12.3993C13.7666 13.5384 11.6043 14.1873 9.31511 14.1873C8.20241 14.1873 7.11008 14.0352 6.06069 13.739C5.87173 14.5137 5.7717 15.322 5.7717 16.1529C5.7717 16.6743 5.80544 17.1852 5.87241 17.6815ZM11.6061 6.88558C10.5933 8.82985 9.97262 11.0088 9.79752 13.291C10.9118 13.2429 11.9892 13.0289 13.0027 12.6709C13.1619 10.2127 13.9615 7.85985 15.2966 5.82712C13.9801 5.9599 12.7351 6.32727 11.6061 6.88558ZM10.2507 7.6852C8.42439 8.95289 7.02628 10.7698 6.30811 12.8884C7.14951 13.1253 8.02087 13.2621 8.90897 13.2941C9.05204 11.3293 9.50931 9.43439 10.2507 7.6852ZM16.4123 5.77171C15.0191 7.68069 14.1526 9.93064 13.9215 12.2992C16.503 11.1175 18.5751 8.9671 19.632 6.25953C18.6167 5.94369 17.535 5.77276 16.4123 5.77171ZM5.10731 28C4.49576 28 4 27.5042 4 26.8927C4 26.2811 4.49576 25.7854 5.10731 25.7854C5.71887 25.7854 6.21463 26.2811 6.21463 26.8927C6.21463 27.5042 5.71887 28 5.10731 28ZM6.52468 25.1565C5.91312 25.1565 5.41736 24.6608 5.41736 24.0492C5.41736 23.4377 5.91312 22.9419 6.52468 22.9419C7.13623 22.9419 7.63199 23.4377 7.63199 24.0492C7.63199 24.6608 7.13623 25.1565 6.52468 25.1565ZM7.94204 28C7.33048 28 6.83472 27.5042 6.83472 26.8927C6.83472 26.2811 7.33048 25.7854 7.94204 25.7854C8.55359 25.7854 9.04935 26.2811 9.04935 26.8927C9.04935 27.5042 8.55359 28 7.94204 28ZM9.3594 25.1565C8.74785 25.1565 8.25209 24.6608 8.25209 24.0492C8.25209 23.4377 8.74785 22.9419 9.3594 22.9419C9.97095 22.9419 10.4667 23.4377 10.4667 24.0492C10.4667 24.6608 9.97095 25.1565 9.3594 25.1565ZM10.7768 28C10.1652 28 9.66945 27.5042 9.66945 26.8927C9.66945 26.2811 10.1652 25.7854 10.7768 25.7854C11.3883 25.7854 11.8841 26.2811 11.8841 26.8927C11.8841 27.5042 11.3883 28 10.7768 28ZM12.1941 25.1565C11.5826 25.1565 11.0868 24.6608 11.0868 24.0492C11.0868 23.4377 11.5826 22.9419 12.1941 22.9419C12.8057 22.9419 13.3014 23.4377 13.3014 24.0492C13.3014 24.6608 12.8057 25.1565 12.1941 25.1565ZM13.6115 28C12.9999 28 12.5042 27.5042 12.5042 26.8927C12.5042 26.2811 12.9999 25.7854 13.6115 25.7854C14.223 25.7854 14.7188 26.2811 14.7188 26.8927C14.7188 27.5042 14.223 28 13.6115 28ZM15.0288 25.1565C14.4173 25.1565 13.9215 24.6608 13.9215 24.0492C13.9215 23.4377 14.4173 22.9419 15.0288 22.9419C15.6404 22.9419 16.1362 23.4377 16.1362 24.0492C16.1362 24.6608 15.6404 25.1565 15.0288 25.1565ZM16.4462 28C15.8347 28 15.3389 27.5042 15.3389 26.8927C15.3389 26.2811 15.8347 25.7854 16.4462 25.7854C17.0578 25.7854 17.5535 26.2811 17.5535 26.8927C17.5535 27.5042 17.0578 28 16.4462 28ZM17.8636 25.1565C17.252 25.1565 16.7563 24.6608 16.7563 24.0492C16.7563 23.4377 17.252 22.9419 17.8636 22.9419C18.4751 22.9419 18.9709 23.4377 18.9709 24.0492C18.9709 24.6608 18.4751 25.1565 17.8636 25.1565ZM19.2809 28C18.6694 28 18.1736 27.5042 18.1736 26.8927C18.1736 26.2811 18.6694 25.7854 19.2809 25.7854C19.8925 25.7854 20.3882 26.2811 20.3882 26.8927C20.3882 27.5042 19.8925 28 19.2809 28ZM20.6983 25.1565C20.0867 25.1565 19.591 24.6608 19.591 24.0492C19.591 23.4377 20.0867 22.9419 20.6983 22.9419C21.3098 22.9419 21.8056 23.4377 21.8056 24.0492C21.8056 24.6608 21.3098 25.1565 20.6983 25.1565ZM22.1157 28C21.5041 28 21.0083 27.5042 21.0083 26.8927C21.0083 26.2811 21.5041 25.7854 22.1157 25.7854C22.7272 25.7854 23.223 26.2811 23.223 26.8927C23.223 27.5042 22.7272 28 22.1157 28ZM23.533 25.1565C22.9215 25.1565 22.4257 24.6608 22.4257 24.0492C22.4257 23.4377 22.9215 22.9419 23.533 22.9419C24.1446 22.9419 24.6403 23.4377 24.6403 24.0492C24.6403 24.6608 24.1446 25.1565 23.533 25.1565ZM24.9504 28C24.3388 28 23.8431 27.5042 23.8431 26.8927C23.8431 26.2811 24.3388 25.7854 24.9504 25.7854C25.5619 25.7854 26.0577 26.2811 26.0577 26.8927C26.0577 27.5042 25.5619 28 24.9504 28ZM26.3677 25.1565C25.7562 25.1565 25.2604 24.6608 25.2604 24.0492C25.2604 23.4377 25.7562 22.9419 26.3677 22.9419C26.9793 22.9419 27.4751 23.4377 27.4751 24.0492C27.4751 24.6608 26.9793 25.1565 26.3677 25.1565ZM27.7851 28C27.1735 28 26.6778 27.5042 26.6778 26.8927C26.6778 26.2811 27.1735 25.7854 27.7851 25.7854C28.3967 25.7854 28.8924 26.2811 28.8924 26.8927C28.8924 27.5042 28.3967 28 27.7851 28Z"/>
</svg>