<svg xmlns="http://www.w3.org/2000/svg" width="140" height="140" viewBox="0 0 32 32" fill="currentColor">
    <path d="M18.85 11.6311L21.0938 9.38725C21.6145 8.86655 22.4587 8.86655 22.9794 9.38725C23.5001 9.90795 23.5001 10.7522 22.9794 11.2729L19.8367 14.4156C19.5652 14.6871 19.2057 14.817 18.85 14.8054C18.4943 14.817 18.1348 14.6871 17.8633 14.4156L16.6278 13.1801L15.3923 14.4156C15.1208 14.6871 14.7613 14.817 14.4056 14.8054C14.0499 14.817 13.6904 14.6871 13.4188 14.4156L10.2761 11.2729C9.75544 10.7522 9.75544 9.90795 10.2761 9.38725C10.7968 8.86655 11.6411 8.86655 12.1618 9.38725L14.4056 11.6311L16.6494 9.38725C17.1701 8.86655 18.0143 8.86655 18.535 9.38725C19.0557 9.90795 19.0557 10.7522 18.535 11.2729L18.5134 11.2945L18.85 11.6311ZM16.5338 19.4917L19.9543 25.4162C20.1007 25.6699 20.1544 25.9517 20.1257 26.2222H24.4442C24.7437 26.2221 25.3333 25.6399 25.3333 25.3333C25.3333 24.8424 25.7313 24.4444 26.2222 24.4444C26.7131 24.4444 27.1111 24.8424 27.1111 25.3333C27.1111 26.6267 25.7207 27.9996 24.4444 28H4.88889C4.39797 28 4 27.602 4 27.1111C4 26.6202 4.39797 26.2222 4.88889 26.2222H11.2004V18.6667V14.6667L13.4528 16.8946C13.9735 17.4153 14.8623 17.4153 15.383 16.8946L16.5338 15.7439V19.4917ZM13.8671 26.2222H17.3404L13.8671 20.2063V26.2222ZM14.6005 8.88889H13.7778C13.5323 8.88889 13.3333 8.6899 13.3333 8.44444C13.3333 8.19898 13.5323 8 13.7778 8H25.7778V7.55556H26.6667V8H27.1111C27.3566 8 27.5556 8.19898 27.5556 8.44444C27.5556 8.6899 27.3566 8.88889 27.1111 8.88889H15.64C15.6368 8.89479 15.6334 8.90065 15.6298 8.90646L15.0673 9.83239C15.0124 9.92283 14.927 9.99069 14.8265 10.0238L14.264 10.209C14.0308 10.2857 13.7796 10.1589 13.7028 9.9258C13.6261 9.69265 13.7529 9.44142 13.986 9.36466L14.3928 9.23075L14.6005 8.88889ZM14.6667 7.55556C13.6848 7.55556 12.8889 6.75962 12.8889 5.77778C12.8889 4.79594 13.6848 4 14.6667 4C15.6485 4 16.4444 4.79594 16.4444 5.77778C16.4444 6.75962 15.6485 7.55556 14.6667 7.55556Z"/>
</svg>