<svg xmlns="http://www.w3.org/2000/svg" width="140" height="140" viewBox="0 0 32 32" fill="currentColor">
    <path d="M15.1939 6.87389C15.274 6.93904 15.3515 7.00892 15.4261 7.08352L17.7909 9.44833C18.9478 10.6052 18.9691 12.4708 17.8243 13.6156C16.6795 14.7604 14.8138 14.7391 13.657 13.5823C13.3133 13.2386 13.3133 12.6814 13.657 12.3377C14.0007 11.994 14.5579 11.994 14.9016 12.3377C15.3773 12.8134 16.1287 12.8219 16.5797 12.371C17.0306 11.92 17.022 11.1687 16.5463 10.693L14.1815 8.32816C13.7058 7.85244 12.9544 7.84387 12.5035 8.29482C12.0645 8.73381 11.9615 8.85125 11.8826 9.00081C11.7881 9.18024 11.7176 9.45891 11.6075 10.1381C11.564 10.4063 11.5968 10.6639 11.7367 11.2743L11.7427 11.3009C12.0787 12.7672 12.0309 13.6303 11.1826 14.5827C11.1585 14.6144 11.1321 14.6447 11.1033 14.6736L8.92515 16.8517L15.1483 23.0749L18.5711 19.6521C19.3088 18.9144 20.0118 18.556 21.1401 18.211C21.2439 18.1793 21.5963 18.0742 21.6074 18.0709C22.8106 17.7088 23.4664 17.3705 24.2889 16.548C26.1761 14.6609 26.1406 11.5541 24.1956 9.60913L21.8308 7.24432C19.9863 5.39979 17.097 5.27262 15.1939 6.87389ZM13.4502 6.20689C13.4932 6.09741 13.5589 5.9948 13.6473 5.90634C16.2283 3.3254 20.4493 3.37355 23.0754 5.99969L25.4402 8.36449C28.0664 10.9906 28.1145 15.2117 25.5336 17.7926C24.4732 18.853 23.572 19.3178 22.1147 19.7564C22.0983 19.7613 21.7516 19.8647 21.6548 19.8942C20.7774 20.1625 20.3134 20.3991 19.8157 20.8967L12.9702 27.7422C12.6265 28.0859 12.0693 28.0859 11.7256 27.7422L4.25777 20.2744C3.91408 19.9307 3.91408 19.3735 4.25777 19.0298L9.73561 13.552C10.2369 13.0506 10.2661 12.7374 10.027 11.694L10.0209 11.6674C9.83119 10.8392 9.77821 10.4228 9.87001 9.85648C10.0096 8.99547 10.1145 8.58035 10.3256 8.18C10.5186 7.81376 10.6852 7.6238 11.2588 7.05018C11.8596 6.44939 12.659 6.16976 13.4502 6.20689ZM14.526 23.6972L8.30283 17.474L6.12472 19.6521L12.3479 25.8753L14.526 23.6972ZM22.4181 15.2019C22.5899 15.0301 22.8685 15.0301 23.0404 15.2019C23.2122 15.3738 23.2122 15.6524 23.0404 15.8242L22.9866 15.878C21.8543 17.0081 19.9785 16.9498 18.7935 15.7668C18.6215 15.5951 18.6213 15.3165 18.793 15.1445C18.9647 14.9725 19.2433 14.9722 19.4153 15.1439C20.2651 15.9923 21.5851 16.0334 22.3646 15.2554L22.4181 15.2019Z"/>
</svg>