<svg xmlns="http://www.w3.org/2000/svg" width="140" height="140" viewBox="0 0 32 32" fill="currentColor">
    <path d="M9 15C9 14.4477 9.44771 14 10 14C10.5523 14 11 14.4477 11 15C11 15.5523 10.5523 16 10 16C9.44771 16 9 15.5523 9 15Z"/>
    <path d="M9 20C9 19.4477 9.44771 19 10 19C10.5523 19 11 19.4477 11 20C11 20.5523 10.5523 21 10 21C9.44771 21 9 20.5523 9 20Z"/>
    <path d="M14 14C13.4477 14 13 14.4477 13 15C13 15.5523 13.4477 16 14 16C14.5523 16 15 15.5523 15 15C15 14.4477 14.5523 14 14 14Z"/>
    <path d="M13 20C13 19.4477 13.4477 19 14 19C14.5523 19 15 19.4477 15 20C15 20.5523 14.5523 21 14 21C13.4477 21 13 20.5523 13 20Z"/>
    <path d="M18 19C17.4477 19 17 19.4477 17 20C17 20.5523 17.4477 21 18 21C18.5523 21 19 20.5523 19 20C19 19.4477 18.5523 19 18 19Z"/>
    <path d="M17 15C17 14.4477 17.4477 14 18 14C18.5523 14 19 14.4477 19 15C19 15.5523 18.5523 16 18 16C17.4477 16 17 15.5523 17 15Z"/>
    <path d="M22 14C21.4477 14 21 14.4477 21 15C21 15.5523 21.4477 16 22 16C22.5523 16 23 15.5523 23 15C23 14.4477 22.5523 14 22 14Z"/>
    <path fill-rule="evenodd" clip-rule="evenodd" d="M5 8C5 6.34315 6.34315 5 8 5H24C25.6569 5 27 6.34315 27 8V24C27 25.6569 25.6569 27 24 27H8C6.34315 27 5 25.6569 5 24V8ZM25 11V24C25 24.5523 24.5523 25 24 25H8C7.44772 25 7 24.5523 7 24V11H25Z"/>
</svg>