<svg xmlns="http://www.w3.org/2000/svg" width="140" height="140" viewBox="0 0 32 32" fill="currentColor">
    <path fill-rule="evenodd" clip-rule="evenodd" d="M21.2414 12.5714C20.3872 13.4373 19.4972 14.2945 18.5714 15.1429H17.472L17.4662 15.1371L15.8747 16.7314C15.7075 16.8989 15.4362 16.8991 15.2686 16.7319C15.1011 16.5647 15.1009 16.2933 15.2681 16.1258L16.8571 14.534V13.4286C17.8481 12.3423 18.8481 11.3096 19.8571 10.3305V7.42857C19.8571 7.29368 19.9207 7.16665 20.0286 7.08571L23.4571 4.51429C23.7397 4.30239 24.1429 4.50398 24.1429 4.85714V6.53786C24.4033 6.32906 24.6644 6.12365 24.926 5.92165C25.2928 5.63842 25.8753 5.6333 26.1396 5.98098C26.4039 6.32866 26.2859 6.82777 25.9754 7.22209C25.6951 7.578 25.4093 7.93254 25.1179 8.28571H27.5714C27.9532 8.28571 28.1445 8.74735 27.8745 9.01733L24.4459 12.4459C24.3655 12.5263 24.2565 12.5714 24.1429 12.5714H21.2414ZM22.0725 11.7143H23.9653L26.5368 9.14286H24.3973C23.6563 10.0083 22.8814 10.8655 22.0725 11.7143ZM20.7143 9.5137C21.5651 8.71774 22.4222 7.9595 23.2857 7.23899V5.71429L20.7143 7.64286V9.5137ZM17.8395 8.06588C18.0701 8.11915 18.2139 8.34929 18.1606 8.57991C18.1074 8.81053 17.8772 8.95431 17.6466 8.90104C17.1111 8.77734 16.5598 8.71429 16 8.71429C11.9762 8.71429 8.71429 11.9762 8.71429 16C8.71429 20.0238 11.9762 23.2857 16 23.2857C20.0238 23.2857 23.2857 20.0238 23.2857 16C23.2857 15.482 23.2317 14.9713 23.1256 14.4735C23.0763 14.242 23.224 14.0143 23.4554 13.965C23.6869 13.9157 23.9146 14.0633 23.9639 14.2948C24.0825 14.8513 24.1429 15.4219 24.1429 16C24.1429 20.4972 20.4972 24.1429 16 24.1429C11.5028 24.1429 7.85714 20.4972 7.85714 16C7.85714 11.5028 11.5028 7.85714 16 7.85714C16.6248 7.85714 17.2408 7.9276 17.8395 8.06588ZM16 11.2857C16.2367 11.2857 16.4286 11.4776 16.4286 11.7143C16.4286 11.951 16.2367 12.1429 16 12.1429C13.8698 12.1429 12.1429 13.8698 12.1429 16C12.1429 18.1302 13.8698 19.8571 16 19.8571C18.1302 19.8571 19.8571 18.1302 19.8571 16C19.8571 15.7633 20.049 15.5714 20.2857 15.5714C20.5224 15.5714 20.7143 15.7633 20.7143 16C20.7143 18.6036 18.6036 20.7143 16 20.7143C13.3964 20.7143 11.2857 18.6036 11.2857 16C11.2857 13.3964 13.3964 11.2857 16 11.2857ZM18.8163 4.33252C19.2765 4.44325 19.5599 4.90612 19.4492 5.36638C19.3384 5.82663 18.8756 6.10998 18.4153 5.99926C17.631 5.81058 16.8221 5.71429 16 5.71429C10.3194 5.71429 5.71429 10.3194 5.71429 16C5.71429 21.6806 10.3194 26.2857 16 26.2857C21.6806 26.2857 26.2857 21.6806 26.2857 16C26.2857 15.1014 26.1707 14.2187 25.9458 13.367C25.825 12.9093 26.0981 12.4403 26.5558 12.3195C27.0135 12.1986 27.4825 12.4717 27.6033 12.9294C27.8658 13.9237 28 14.9534 28 16C28 22.6274 22.6274 28 16 28C9.37258 28 4 22.6274 4 16C4 9.37258 9.37258 4 16 4C16.9575 4 17.9009 4.11231 18.8163 4.33252Z"/>
</svg>