<svg xmlns="http://www.w3.org/2000/svg" width="140" height="140" viewBox="0 0 32 32" fill="currentColor">
    <path fill-rule="evenodd" clip-rule="evenodd" d="M10.933 18.8276L10.8967 18.8639L12.1361 20.1033L12.1724 20.067C12.9726 19.2668 14.1951 19.0684 15.2073 19.5745L15.4262 19.684C15.5233 19.7325 15.6262 19.7616 15.7298 19.7721L15.3434 21.4863C15.104 21.4423 14.8679 21.3645 14.6423 21.2517L14.4234 21.1423C14.086 20.9736 13.6785 21.0397 13.4118 21.3065L11.2797 23.4385C11.0898 23.6284 11.0235 23.9093 11.1084 24.1641C11.4033 25.0487 11.1731 26.024 10.5137 26.6834L9.96715 27.2299C8.94039 28.2567 7.27567 28.2567 6.24891 27.2299L3.77007 24.7511C2.74331 23.7243 2.74331 22.0596 3.77007 21.0328L4.31664 20.4863C4.97599 19.8269 5.95128 19.5967 6.8359 19.8916C7.09068 19.9765 7.37157 19.9102 7.56147 19.7203L9.69354 17.5882C9.96028 17.3215 10.0264 16.914 9.85771 16.5766L9.74826 16.3577C9.24216 15.3455 9.44054 14.123 10.2408 13.3227L18.0234 5.54015C20.0769 3.48662 23.4063 3.48662 25.4599 5.54015C27.5134 7.59368 27.5134 10.9231 25.4599 12.9766L20.4365 18H17.9577L24.2204 11.7372C25.5895 10.3682 25.5895 8.14859 24.2204 6.77956C22.8514 5.41054 20.6318 5.41054 19.2628 6.77956L11.4802 14.5622C11.2134 14.8289 11.1473 15.2364 11.316 15.5738L11.4255 15.7927C11.9316 16.8049 11.7332 18.0274 10.933 18.8276ZM10.277 19.4836L8.80088 20.9597C8.14153 21.6191 7.16624 21.8493 6.28162 21.5544C6.02684 21.4695 5.74595 21.5358 5.55605 21.7257L5.00949 22.2723C4.66723 22.6145 4.66723 23.1694 5.00949 23.5117L7.48832 25.9905C7.83058 26.3328 8.38548 26.3328 8.72774 25.9905L9.2743 25.4439C9.4642 25.254 9.53051 24.9732 9.44558 24.7184C9.15071 23.8338 9.38095 22.8585 10.0403 22.1991L11.5164 20.723L10.277 19.4836ZM6.47068 10.5069C4.7766 10.5069 3.40328 9.13361 3.40328 7.43954C3.40328 5.74546 4.7766 4.37214 6.47068 4.37214C8.16475 4.37214 9.53807 5.74546 9.53807 7.43954C9.53807 9.13361 8.16475 10.5069 6.47068 10.5069ZM6.47068 9.63053C7.68073 9.63053 8.66168 8.64959 8.66168 7.43954C8.66168 6.22948 7.68073 5.24854 6.47068 5.24854C5.26062 5.24854 4.27968 6.22948 4.27968 7.43954C4.27968 8.64959 5.26062 9.63053 6.47068 9.63053ZM15.01 27.512C14.9536 27.7622 15.1438 28 15.4002 28H16.5422H17.6843C17.8416 28 17.9843 27.9078 18.049 27.7644L19.1889 25.2356C19.2536 25.0922 19.3963 25 19.5536 25H24.4461C24.6034 25 24.7461 25.0922 24.8108 25.2356L25.9507 27.7644C26.0154 27.9078 26.1581 28 26.3154 28H28.5995C28.8559 28 29.0461 27.7622 28.9898 27.512L27.2822 19.9361C27.1588 19.3888 26.6726 19 26.1116 19H17.8881C17.3271 19 16.8409 19.3888 16.7175 19.9361L15.01 27.512ZM18.9574 20.2C18.9574 20.0895 19.047 20 19.1574 20H19.7717C19.8822 20 19.9717 20.0895 19.9717 20.2V21H20.786C20.8964 21 20.986 21.0895 20.986 21.2V21.8C20.986 21.9105 20.8964 22 20.786 22H19.9717V22.8C19.9717 22.9105 19.8822 23 19.7717 23H19.1574C19.047 23 18.9574 22.9105 18.9574 22.8V22H18.1432C18.0327 22 17.9432 21.9105 17.9432 21.8V21.2C17.9432 21.0895 18.0327 21 18.1432 21H18.9574V20.2ZM23.6665 23C24.0266 23 24.3186 22.7122 24.3186 22.3571C24.3186 22.0021 24.0266 21.7143 23.6665 21.7143C23.3064 21.7143 23.0145 22.0021 23.0145 22.3571C23.0145 22.7122 23.3064 23 23.6665 23ZM26.0573 22.3572C26.0573 22.7123 25.7654 23.0001 25.4053 23.0001C25.0452 23.0001 24.7533 22.7123 24.7533 22.3572C24.7533 22.0022 25.0452 21.7144 25.4053 21.7144C25.7654 21.7144 26.0573 22.0022 26.0573 22.3572ZM25.4053 21.2857C25.7654 21.2857 26.0573 20.9979 26.0573 20.6429C26.0573 20.2878 25.7654 20 25.4053 20C25.0452 20 24.7533 20.2878 24.7533 20.6429C24.7533 20.9979 25.0452 21.2857 25.4053 21.2857ZM24.3186 20.6429C24.3186 20.9979 24.0266 21.2857 23.6665 21.2857C23.3064 21.2857 23.0145 20.9979 23.0145 20.6429C23.0145 20.2878 23.3064 20 23.6665 20C24.0266 20 24.3186 20.2878 24.3186 20.6429Z"/>
</svg>