<svg xmlns="http://www.w3.org/2000/svg" width="140" height="140" viewBox="0 0 32 32" fill="currentColor">
    <path fill-rule="evenodd" clip-rule="evenodd" d="M18 3.74884V10.4884H15.75C15.4938 10.4908 15.24 10.5377 15 10.6271V3.74884C15 3.55024 15.079 3.35977 15.2197 3.21933C15.3603 3.0789 15.5511 3 15.75 3H17.25C17.4489 3 17.6397 3.0789 17.7803 3.21933C17.921 3.35977 18 3.55024 18 3.74884ZM23.1213 12.8635C23.6839 13.4252 24 14.1871 24 14.9815V19H17.5C16.5 19 16.1234 19.4727 16 20.02L14.3333 27H9V23.9676L7.75926 22.7288C6.63381 21.6061 6.00101 20.0831 6 18.4946V14.8428C6.24003 14.9322 6.49383 14.9792 6.75 14.9815H8.2963C8.85145 14.9804 9.38626 14.7728 9.79629 14.3991C10.2063 14.7728 10.7411 14.9804 11.2963 14.9815H12.6759C13.0341 14.9768 13.3861 14.8881 13.7037 14.7227C13.8803 15.1067 14.1368 15.4487 14.4561 15.7261C14.7754 16.0034 15.1502 16.2097 15.5556 16.3313C14.7041 17.1387 13.9603 18.0522 13.3426 19.0493L13.0463 19.4931C12.9921 19.5771 12.9724 19.6788 12.9914 19.7769C13.0103 19.8751 13.0665 19.9622 13.1481 20.02L13.8148 20.4268C13.8554 20.4546 13.9011 20.474 13.9493 20.4839C13.9975 20.4938 14.0472 20.494 14.0954 20.4845C14.1437 20.4751 14.1896 20.4561 14.2304 20.4287C14.2713 20.4014 14.3063 20.3661 14.3333 20.3251L14.6296 19.8814C16.1204 17.6441 17.0463 16.5994 19.1296 16.4884C19.2271 16.4861 19.32 16.4464 19.3889 16.3775C19.4579 16.3087 19.4976 16.216 19.5 16.1186V15.3606C19.5 15.1479 19.3333 14.9815 18.8796 14.9815H17.2315C16.9361 14.9815 16.6436 14.923 16.3711 14.8093C16.0985 14.6956 15.8513 14.529 15.6437 14.3192C15.4361 14.1093 15.2723 13.8604 15.1618 13.5869C15.0513 13.3134 14.9963 13.0206 15 12.7257C15 12.6286 15.0192 12.5324 15.0564 12.4427C15.0936 12.353 15.1482 12.2714 15.217 12.2028C15.2857 12.1341 15.3674 12.0796 15.4573 12.0424C15.5471 12.0053 15.6435 11.9861 15.7407 11.9861H21C21.7956 11.9861 22.5587 12.3017 23.1213 12.8635ZM22.5 10.7658V5.2188C22.5 5.02019 22.421 4.82972 22.2803 4.68929C22.1397 4.54885 21.9489 4.46995 21.75 4.46995H20.25C20.0511 4.46995 19.8603 4.54885 19.7197 4.68929C19.579 4.82972 19.5 5.02019 19.5 5.2188V10.4607H21C21.5138 10.4759 22.0212 10.5791 22.5 10.7658ZM8.25926 13.4838H6.75C6.55109 13.4838 6.36032 13.4049 6.21967 13.2645C6.07902 13.1241 6 12.9336 6 12.735V6.74422C6 6.64588 6.0194 6.54851 6.05709 6.45765C6.09478 6.3668 6.15003 6.28425 6.21967 6.21471C6.28931 6.14517 6.37199 6.09001 6.46299 6.05238C6.55398 6.01475 6.65151 5.99538 6.75 5.99538H8.25926C8.45817 5.99538 8.64894 6.07427 8.78959 6.21471C8.93024 6.35514 9.00926 6.54562 9.00926 6.74422V12.735C9.00926 12.9336 8.93024 13.1241 8.78959 13.2645C8.64894 13.4049 8.45817 13.4838 8.25926 13.4838ZM11.2963 13.4838H12.7593C12.9582 13.4838 13.1489 13.4049 13.2896 13.2645C13.4302 13.1241 13.5093 12.9336 13.5093 12.735V5.24653C13.5093 5.04793 13.4302 4.85746 13.2896 4.71702C13.1489 4.57658 12.9582 4.49769 12.7593 4.49769H11.2963C11.0974 4.49769 10.9066 4.57658 10.766 4.71702C10.6253 4.85746 10.5463 5.04793 10.5463 5.24653V12.735C10.5463 12.9336 10.6253 13.1241 10.766 13.2645C10.9066 13.4049 11.0974 13.4838 11.2963 13.4838ZM15.01 28.512C14.9536 28.7622 15.1438 29 15.4002 29H17.6843C17.8416 29 17.9843 28.9078 18.049 28.7644L19.1889 26.2356C19.2536 26.0922 19.3963 26 19.5536 26H24.4461C24.6034 26 24.7461 26.0922 24.8108 26.2356L25.9507 28.7644C26.0154 28.9078 26.1581 29 26.3154 29H28.5995C28.8559 29 29.0461 28.7622 28.9898 28.512L27.2822 20.9361C27.1588 20.3888 26.6726 20 26.1116 20H17.8881C17.3271 20 16.8409 20.3888 16.7175 20.9361L15.01 28.512ZM18.9574 21.2C18.9574 21.0895 19.047 21 19.1574 21H19.7717C19.8822 21 19.9717 21.0895 19.9717 21.2V22H20.786C20.8964 22 20.986 22.0895 20.986 22.2V22.8C20.986 22.9105 20.8964 23 20.786 23H19.9717V23.8C19.9717 23.9105 19.8822 24 19.7717 24H19.1574C19.047 24 18.9574 23.9105 18.9574 23.8V23H18.1432C18.0327 23 17.9432 22.9105 17.9432 22.8V22.2C17.9432 22.0895 18.0327 22 18.1432 22H18.9574V21.2ZM23.6665 24C24.0266 24 24.3186 23.7122 24.3186 23.3571C24.3186 23.0021 24.0266 22.7143 23.6665 22.7143C23.3064 22.7143 23.0145 23.0021 23.0145 23.3571C23.0145 23.7122 23.3064 24 23.6665 24ZM26.0573 23.3572C26.0573 23.7123 25.7654 24.0001 25.4053 24.0001C25.0452 24.0001 24.7533 23.7123 24.7533 23.3572C24.7533 23.0022 25.0452 22.7144 25.4053 22.7144C25.7654 22.7144 26.0573 23.0022 26.0573 23.3572ZM25.4053 22.2857C25.7654 22.2857 26.0573 21.9979 26.0573 21.6429C26.0573 21.2878 25.7654 21 25.4053 21C25.0452 21 24.7533 21.2878 24.7533 21.6429C24.7533 21.9979 25.0452 22.2857 25.4053 22.2857ZM24.3186 21.6429C24.3186 21.9979 24.0266 22.2857 23.6665 22.2857C23.3064 22.2857 23.0145 21.9979 23.0145 21.6429C23.0145 21.2878 23.3064 21 23.6665 21C24.0266 21 24.3186 21.2878 24.3186 21.6429Z"/>
</svg>