<svg xmlns="http://www.w3.org/2000/svg" width="26" height="28" viewBox="0 0 32 32" fill="currentColor">
    <path d="M22.5646 14.0224C23.3975 14.0336 24.1215 13.347 24.1215 12.4789C24.1243 11.6053 23.4339 10.9298 22.6009 10.9131C21.7121 10.8935 21.0161 11.6108 21.0105 12.4538C21.0021 13.3246 21.7149 14.028 22.5646 14.0224Z"/>
    <path fill-rule="evenodd" clip-rule="evenodd" d="M25.7336 18H23.31L23.3407 17.973L21.9264 16.5616L20.485 18H18.8886C18.6292 18 18.3785 18.0453 18.1451 18.1292L16.5742 16.5616L14.5343 18.5973C15.1653 19.1198 15.9256 19.4815 16.7505 19.6817L16.7424 19.7163L16.1389 22.394C15.3231 22.6859 14.5173 22.9869 13.7551 23.2881C13.1108 23.5428 12.5193 23.7893 11.9925 24.0244C10.8735 24.5237 10.0834 24.9579 9.78891 25.2214L7.26587 27.7393C6.91751 28.0869 6.35271 28.0869 6.00435 27.7393L4.74283 26.4803C4.39447 26.1327 4.39447 25.569 4.74283 25.2214L7.23148 22.7378C8.03048 21.7288 9.25958 18.8563 10.8368 14.2335C10.8401 14.2238 10.8436 14.2141 10.8472 14.2046C10.838 11.8619 11.7527 9.41336 13.5735 7.59628C16.9256 4.25104 22.6257 4.04055 25.5579 6.96681C28.2341 9.6375 28.2921 14.6089 25.7336 18ZM8.58834 23.8951C9.3731 22.9333 10.3484 20.8379 11.5571 17.5497C11.8965 18.2923 12.3581 18.9728 12.9427 19.5562C13.5241 20.1364 14.2017 20.5952 14.9412 20.9334C14.3122 21.1633 13.6931 21.3977 13.0982 21.6328C12.4313 21.8964 11.8165 22.1526 11.2643 22.399C9.97956 22.9723 9.07067 23.4717 8.56061 23.931L8.52739 23.9625L8.58834 23.8951ZM20.5042 6.3816C20.1449 6.36088 19.7798 6.36731 19.4138 6.4014L19.8458 6.91616L20.5042 6.3816ZM20.3902 7.56513L21.6476 6.54433C22.133 6.65674 22.5965 6.82294 23.0247 7.04151L21.2731 8.61732L20.3902 7.56513ZM19.1881 7.4501L17.2683 8.97561L15.8345 7.72633C16.6328 7.15469 17.5261 6.76787 18.4396 6.55803L19.1881 7.4501ZM26.0445 12.4705C26.0417 13.2604 25.8013 13.9722 25.3262 14.603C24.9293 15.1277 24.4206 15.5073 23.8028 15.7474C23.3444 15.9232 22.8721 15.9958 22.3829 15.9707C21.6841 15.9344 21.0552 15.7083 20.4934 15.2868C20.0406 14.9491 19.6884 14.5248 19.4396 14.0168C19.2272 13.5814 19.1126 13.1209 19.0903 12.6352C19.0623 12.0267 19.1825 11.449 19.448 10.9047C19.5906 10.6116 19.7779 10.3464 19.9959 10.1036C20.4151 9.64028 20.9183 9.31371 21.5136 9.1267C22.3074 8.87829 23.0957 8.90899 23.8699 9.2216C24.2249 9.36395 24.5463 9.56491 24.837 9.81891C25.5302 10.433 25.9243 11.2005 26.0194 12.1188C26.0287 12.197 26.033 12.2751 26.0374 12.3532C26.0395 12.3923 26.0417 12.4315 26.0445 12.4705ZM18.9956 15.8537L18.9872 15.8347C18.9834 15.8261 18.9806 15.8198 18.9788 15.8147C18.9006 15.6376 18.8224 15.4598 18.7442 15.282C18.666 15.1041 18.5875 14.9256 18.5092 14.7484L18.2723 14.2084C18.0129 13.6172 17.7532 13.025 17.4918 12.4345C17.3563 12.1262 17.2201 11.8178 17.0838 11.5095C16.9475 11.201 16.8112 10.8925 16.6756 10.584C16.575 10.3551 16.4744 10.1255 16.3738 9.89597C16.2731 9.6664 16.1725 9.43682 16.0719 9.20795C16.0551 9.16887 16.03 9.15492 15.988 9.15492C15.6638 9.15771 15.3368 9.15771 15.0125 9.15492C14.9678 9.15492 14.9483 9.17445 14.9315 9.21074C14.8183 9.47031 14.7044 9.72988 14.5905 9.98945C14.4766 10.249 14.3627 10.5086 14.2495 10.7682L12.2621 15.3067C12.2175 15.4062 12.1737 15.5057 12.1303 15.6043C12.0921 15.691 12.0541 15.7773 12.0162 15.8621H14.1796C14.6184 14.7233 15.0545 13.5957 15.4961 12.4569C15.5942 12.7094 15.6894 12.9579 15.784 13.2048C15.8482 13.3726 15.9124 13.5402 15.9769 13.7073L16.2004 14.2883L16.2008 14.2893C16.3943 14.7919 16.5874 15.2935 16.7791 15.7951C16.7958 15.8426 16.8238 15.8537 16.8713 15.8537H18.9956Z"/>
    <path fill-rule="evenodd" clip-rule="evenodd" d="M4 7.11571C4 8.83647 5.39781 10.2314 7.12211 10.2314C8.8464 10.2314 10.2442 8.83647 10.2442 7.11571C10.2442 5.39495 8.8464 4 7.12211 4C5.39781 4 4 5.39495 4 7.11571ZM7.49185 7.39814C6.97529 7.91364 6.62379 8.5513 6.46101 9.2418C5.72209 9.01323 5.14758 8.41158 4.95858 7.65749C5.61429 7.48593 6.2183 7.14394 6.71087 6.65238C7.18773 6.1765 7.52415 5.59635 7.70112 4.96595C8.41933 5.15812 8.99449 5.6992 9.23298 6.39597C8.58161 6.56847 7.98165 6.90935 7.49185 7.39814ZM9.34546 7.28974C9.26258 8.35908 8.42239 9.21656 7.35941 9.32876C7.49511 8.84276 7.75407 8.3954 8.12261 8.02761C8.47054 7.6804 8.88954 7.43057 9.34546 7.28974ZM6.08011 6.02292C5.74918 6.35316 5.35395 6.59531 4.92378 6.73937C5.08417 5.79961 5.83493 5.06064 6.78179 4.91595C6.63579 5.32707 6.3989 5.70477 6.08011 6.02292Z"/>
    <path fill-rule="evenodd" clip-rule="evenodd" d="M16.4002 28C16.1438 28 15.9536 27.7622 16.01 27.512L17.7175 19.9361C17.8409 19.3888 18.3271 19 18.8881 19H27.1116C27.6726 19 28.1588 19.3888 28.2822 19.9361L29.9898 27.512C30.0461 27.7622 29.8559 28 29.5995 28H27.3154C27.1581 28 27.0154 27.9078 26.9507 27.7644L25.8108 25.2356C25.7461 25.0922 25.6034 25 25.4461 25H20.5536C20.3963 25 20.2536 25.0922 20.1889 25.2356L19.049 27.7644C18.9843 27.9078 18.8416 28 18.6843 28H16.4002ZM20.1574 20C20.047 20 19.9574 20.0895 19.9574 20.2V21H19.1432C19.0327 21 18.9432 21.0895 18.9432 21.2V21.8C18.9432 21.9105 19.0327 22 19.1432 22H19.9574V22.8C19.9574 22.9105 20.047 23 20.1574 23H20.7717C20.8822 23 20.9717 22.9105 20.9717 22.8V22H21.786C21.8964 22 21.986 21.9105 21.986 21.8V21.2C21.986 21.0895 21.8964 21 21.786 21H20.9717V20.2C20.9717 20.0895 20.8822 20 20.7717 20H20.1574ZM25.3186 22.3571C25.3186 22.7122 25.0266 23 24.6665 23C24.3064 23 24.0145 22.7122 24.0145 22.3571C24.0145 22.0021 24.3064 21.7143 24.6665 21.7143C25.0266 21.7143 25.3186 22.0021 25.3186 22.3571ZM26.4053 23.0001C26.7654 23.0001 27.0573 22.7123 27.0573 22.3572C27.0573 22.0022 26.7654 21.7144 26.4053 21.7144C26.0452 21.7144 25.7533 22.0022 25.7533 22.3572C25.7533 22.7123 26.0452 23.0001 26.4053 23.0001ZM27.0573 20.6429C27.0573 20.9979 26.7654 21.2857 26.4053 21.2857C26.0452 21.2857 25.7533 20.9979 25.7533 20.6429C25.7533 20.2878 26.0452 20 26.4053 20C26.7654 20 27.0573 20.2878 27.0573 20.6429ZM24.6665 21.2857C25.0266 21.2857 25.3186 20.9979 25.3186 20.6429C25.3186 20.2878 25.0266 20 24.6665 20C24.3064 20 24.0145 20.2878 24.0145 20.6429C24.0145 20.9979 24.3064 21.2857 24.6665 21.2857Z"/>
</svg>