<svg xmlns="http://www.w3.org/2000/svg" width="140" height="140" viewBox="0 0 32 32" fill="currentColor">
    <path d="M8.50486 10.9996C8.38762 12.3169 8.51703 13.1761 8.83931 13.5602L9.51635 14.3671L19.3919 6.08047C19.0334 5.93066 18.6059 5.98069 18.2868 6.2464C17.4076 6.97839 16.7313 7.54025 16.2576 7.93207C15.4628 8.58952 14.0501 8.61526 11.9974 8.08726C11.7585 8.66339 11.2369 9.30484 10.5511 9.88032C9.85422 10.465 9.11976 10.871 8.50486 10.9996ZM8.00516 10.1671C8.04786 10.1904 8.24027 10.1906 8.55293 10.0835C8.98457 9.93567 9.50293 9.62747 9.99349 9.21584C10.4841 8.80421 10.8776 8.34725 11.0981 7.94784C11.2689 7.6386 11.2951 7.44336 11.2716 7.41542L11.273 7.41425L9.15693 4.89238C9.13214 4.86284 9.0881 4.85898 9.05856 4.88377L5.89238 7.54051C5.86283 7.5653 5.85898 7.60934 5.88377 7.63888L8.00516 10.1671ZM7.3354 10.7183L5.21929 8.19645C4.88657 7.79992 4.93829 7.20876 5.33481 6.87604L8.501 4.21929C8.89752 3.88657 9.48869 3.93829 9.82141 4.33481L12.2793 7.26396C14.0459 7.71049 15.1949 7.68542 15.7047 7.26369C16.1776 6.87257 16.8533 6.31125 17.7317 5.57981C18.5547 4.89456 19.7769 5.00383 20.4653 5.8242L21.3775 6.91138C21.7102 7.3079 21.6585 7.89907 21.262 8.23179L15.3903 13.1587C16.4154 12.6639 17.5651 12.3866 18.7796 12.3866C23.0912 12.3866 26.5863 15.8818 26.5863 20.1933C26.5863 24.5048 23.0912 28 18.7796 28C14.4681 28 10.9729 24.5048 10.9729 20.1933C10.9729 18.49 11.5184 16.914 12.4443 15.6307L11.4018 16.5054C11.0053 16.8382 10.4141 16.7864 10.0814 16.3899L8.17483 14.1177C7.68114 13.5294 7.51539 12.518 7.62871 11.0679L7.37185 10.7618C7.35888 10.7482 7.34626 10.7341 7.334 10.7195L7.3354 10.7183ZM10.0739 15.0315L10.7459 15.8324C10.7707 15.8619 10.8147 15.8658 10.8443 15.841L20.7044 7.56731C20.734 7.54252 20.7378 7.49848 20.713 7.46894L20.0411 6.6681L10.0739 15.0315ZM14.5409 21.1555L15.4659 23.4749C16.3882 23.9594 17.4176 24.2181 18.4857 24.2205L19.9827 22.5059C19.9614 21.3559 19.639 20.2289 19.043 19.2431L16.1733 18.5749C15.4347 19.2935 14.8734 20.1774 14.5409 21.1555ZM13.8143 20.6142C14.2151 19.5673 14.85 18.6251 15.6676 17.8585V16.2641C15.2242 16.1544 14.7711 16.0921 14.3155 16.0775C13.3174 17.1595 12.7078 18.6052 12.7078 20.1933C12.7078 20.3348 12.7126 20.4751 12.7221 20.6142H13.8143ZM14.7618 24.7458C15.8323 25.6914 17.239 26.2652 18.7796 26.2652C18.9648 26.2652 19.1479 26.2569 19.3288 26.2407L18.4648 25.0879C17.3345 25.0825 16.2414 24.8231 15.2507 24.3383L14.7618 24.7458ZM20.8382 22.1878L23.0722 22.3562C23.729 21.7136 24.2441 20.9404 24.5816 20.0871L23.8233 17.4996C23.031 17.0733 22.158 16.8149 21.2482 16.7438L19.9192 19.0252C20.4599 19.9976 20.7727 21.0796 20.8382 22.1878ZM23.5995 23.8866C24.0604 23.286 24.4115 22.5969 24.623 21.8491C24.3265 22.2841 23.9836 22.6878 23.5995 23.0527V23.8866ZM21.025 15.862C21.8919 15.8958 22.7339 16.0794 23.521 16.3998C22.5955 15.2447 21.2567 14.435 19.7289 14.1952C19.6488 14.3095 19.5726 14.4263 19.5002 14.5455L21.025 15.862ZM18.5918 14.3847C18.6404 14.2959 18.6907 14.2082 18.7429 14.1215C17.4185 14.1294 16.1946 14.5612 15.2002 15.2882C15.4379 15.3238 15.6741 15.3711 15.9079 15.43L18.5918 14.3847Z"/>
</svg>