<svg xmlns="http://www.w3.org/2000/svg" width="140" height="140" viewBox="0 0 32 32" fill="currentColor">
    <path d="M6.44278 9.21367C6.60436 8.52687 6.95326 7.89264 7.466 7.37991C7.95217 6.89374 8.54769 6.55469 9.19424 6.38311C8.95751 5.69008 8.38661 5.15191 7.67371 4.96077C7.49806 5.58779 7.16413 6.16482 6.6908 6.63815C6.20187 7.12707 5.60234 7.46722 4.95148 7.63786C5.13909 8.38791 5.70934 8.98633 6.44278 9.21367ZM7.33454 9.30017C8.38965 9.18856 9.22362 8.33569 9.30589 7.27209C8.85334 7.41216 8.43744 7.66065 8.09209 8.006C7.72627 8.37182 7.46923 8.81677 7.33454 9.30017ZM4.91694 6.72467C5.34392 6.58139 5.73623 6.34054 6.06471 6.01206C6.38114 5.69563 6.61627 5.31995 6.76119 4.91104C5.82135 5.05495 5.07614 5.78995 4.91694 6.72467ZM17.2166 9.18597L9.48216 22.5825C10.7119 21.4377 12.0092 20.4409 13.3739 19.5929C13.8513 19.2962 14.3502 19.0225 14.8688 18.7702C17.176 17.6477 22.1771 16.4189 21.2074 16.8134C22.3218 16.3601 23.1675 15.9745 23.8356 15.5859L17.2166 9.18597ZM17.673 8.39557L24.5933 15.0869C25.0759 14.7223 25.4449 14.3308 25.7674 13.8603C26.8301 12.3098 26.0939 9.56776 23.2443 7.36121C20.5875 5.30398 19.1969 5.75601 17.7416 8.27673L17.673 8.39557ZM6.14206 24.826L16.208 7.3913C18.1562 4.01684 20.735 3.17855 24.3285 5.96104C27.8632 8.69807 28.8735 12.461 27.228 14.8615C26.1397 16.4493 24.773 17.2746 21.8747 18.4537C21.7258 18.5143 20.2228 18.8116 19.6155 18.9608C18.2193 19.3038 16.8944 19.754 15.6435 20.3626C15.1785 20.5889 14.7328 20.8333 14.3085 21.097C12.2054 22.4039 10.2664 24.0979 8.491 26.1822L8.7776 26.3476C9.20109 26.5921 9.34619 27.1336 9.10168 27.5571C8.85718 27.9806 8.31566 28.1257 7.89217 27.8812L4.82496 26.1104C4.40147 25.8659 4.25637 25.3244 4.50088 24.9009C4.74538 24.4774 5.2869 24.3323 5.71039 24.5768L6.14206 24.826ZM7.09899 10.198C5.38747 10.198 4 8.81052 4 7.09899C4 5.38747 5.38747 4 7.09899 4C8.81052 4 10.198 5.38747 10.198 7.09899C10.198 8.81052 8.81052 10.198 7.09899 10.198Z"/>
</svg>