<svg xmlns="http://www.w3.org/2000/svg" width="140" height="140" viewBox="0 0 32 32" fill="currentColor">
    <path d="M24.5219 17.4848C25.1988 16.7908 25.761 15.9957 26.1874 15.1296C26.2 14.9374 26.2064 14.7436 26.2064 14.5482C26.2064 13.1537 25.8804 11.8353 25.3004 10.6652C24.2515 10.1129 23.1024 9.76849 21.9053 9.65624L19.9267 13.053C20.5938 14.3465 20.9703 15.7704 21.0347 17.222L24.5219 17.4848ZM25.0568 18.2191V18.8879C25.3023 18.4587 25.5124 18.0067 25.6833 17.5359C25.4854 17.7726 25.2764 18.0006 25.0568 18.2191V18.2191ZM24.16 20.1737V18.3569L20.7921 18.103L18.5164 20.7097L20.1438 22.8811C21.7276 22.3698 23.1142 21.4196 24.16 20.1737ZM19.2072 23.1267L17.7205 21.1431C15.9736 21.1014 14.2977 20.6128 12.8238 19.7347C12.6111 19.6079 12.5414 19.3327 12.6681 19.12C12.7949 18.9072 13.0701 18.8375 13.2828 18.9643C14.6217 19.762 16.1429 20.2065 17.7305 20.2463L20.1459 17.4796C20.1164 16.0549 19.757 14.6538 19.0925 13.3928L13.9947 12.2058V8.06726L18.5412 6.29651C18.6224 6.16102 18.7068 6.02744 18.7943 5.89587C18.3567 5.82852 17.9083 5.79358 17.4518 5.79358C16.0235 5.79358 14.6463 6.13526 13.409 6.78072C12.9699 7.00979 12.4282 6.83951 12.1991 6.40039C11.9701 5.96126 12.1403 5.41958 12.5795 5.19051C14.0714 4.41223 15.733 4 17.4518 4C23.2774 4 28 8.72258 28 14.5482C28 20.3738 23.2774 25.0963 17.4518 25.0963C15.7489 25.0963 14.102 24.6917 12.6205 23.9271C12.1804 23.7 12.0077 23.1591 12.2349 22.7189C12.462 22.2788 13.0029 22.1061 13.4431 22.3333C14.6717 22.9674 16.0367 23.3028 17.4518 23.3028C18.053 23.3028 18.6401 23.2422 19.2072 23.1267ZM21.7331 8.74264C22.6792 8.80719 23.6006 9.00349 24.4758 9.32169C23.3204 7.77144 21.6639 6.61667 19.7461 6.09728C19.6072 6.28901 19.4761 6.48588 19.3528 6.68749L21.7331 8.74264ZM4 27.1029V16.3417L5.79358 8.27065L7.58715 4.6835C7.75738 4.31675 8.07537 3.8831 8.51613 4.12689C8.80997 4.28941 8.79924 4.77388 8.48394 5.58029L7.58715 8.27065V15.445L8.48394 19.0321L11.1743 13.6514C11.3706 13.2533 12.0044 13.039 12.5798 13.3267C13.1552 13.6144 13.0485 14.3022 12.9679 14.5482L11.1743 21.7225L8.48394 24.4128V27.1029H4ZM18.611 7.23176L14.8915 8.68039V11.4939L19.2111 12.4997L21.052 9.33938L18.611 7.23176Z"/>
</svg>