<svg xmlns="http://www.w3.org/2000/svg" width="140" height="140" viewBox="0 0 32 32" fill="currentColor">
    <path d="M6.43679 10.5121C6.59801 9.73116 7.28036 9.10386 8.06767 9.01408C8.14417 9.00501 8.22112 9.00031 8.29979 9H26.5671C26.973 9 27.3268 9.13417 27.6036 9.41542C27.8379 9.65306 27.9643 9.95158 27.9949 10.2963C28.0089 10.4548 27.9937 10.5904 27.9537 10.7847C27.9471 10.8164 27.9471 10.8164 27.9407 10.8466L27.9379 10.8596C27.6351 12.2902 27.3326 13.7208 27.0305 15.1511C27.4941 15.4702 27.7323 16.0442 27.6128 16.6122C27.372 17.7607 27.1299 18.9088 26.8868 20.0561C26.8482 20.2391 26.8138 20.4035 26.751 20.7048L26.7413 20.7511C26.6106 21.377 26.5517 21.657 26.4767 22.0056C26.351 22.5906 25.9682 22.9841 25.3794 23.1295C25.2056 23.1682 25.0265 23.1728 24.8464 23.1419C24.5522 23.3633 24.2053 23.5063 23.8338 23.5569C23.7579 23.5661 23.6815 23.5702 23.61 23.5693C17.5125 23.5693 11.4151 23.57 5.31782 23.5714C4.60724 23.5714 4.05003 23.0901 4.00292 22.309C3.99211 22.1272 4.01089 21.9917 4.06572 21.7319C4.27595 20.7411 4.48579 19.7502 4.69558 18.7576C4.22298 18.4395 3.97838 17.8587 4.09975 17.2836C4.36295 16.031 4.62696 14.779 4.8917 13.5277C5.00591 12.9855 5.11976 12.4431 5.23315 11.9012C5.35572 11.3113 5.78201 10.8788 6.38417 10.7609C6.40603 10.6588 6.42142 10.5861 6.43679 10.5121ZM11.5341 10.3279L11.0533 10.232C10.6205 12.2073 10.4044 13.213 10.405 13.2493L10.8978 13.3509L11.1826 12.0039L14.9488 12.813C14.8616 12.9192 14.314 13.5755 14.1112 13.8032C13.9556 13.9803 13.7719 14.1302 13.5674 14.2469C13.3516 14.3755 13.0974 14.4231 12.8499 14.3814C11.1886 14.0971 10.102 13.9095 9.59009 13.8187C9.59463 13.7931 9.73214 13.141 9.79531 12.8281C9.88178 12.4141 9.61773 12.0082 9.20548 11.9212C8.39786 11.7488 7.58989 11.5778 6.78158 11.4082C6.58246 11.3652 6.37445 11.4039 6.20397 11.5158C6.03349 11.6277 5.91472 11.8035 5.87414 12.0039C5.75711 12.5533 5.37843 14.3506 4.73811 17.3956C4.70824 17.5188 4.70932 17.6475 4.74125 17.7702C4.83129 18.0898 5.04349 18.2762 5.36528 18.3438C5.86228 18.449 7.47123 18.7948 7.78115 18.8512C8.15809 18.9178 8.52515 18.6912 8.63624 18.3235C8.64426 18.2972 8.85038 17.5523 8.86015 17.5225C8.89599 17.5283 9.88095 17.9526 11.815 18.7952C11.8542 18.7969 11.8867 18.8263 11.8925 18.8652C11.9152 18.9578 11.9414 19.0492 11.9686 19.1403C12.0087 19.294 12.1345 19.4099 12.2904 19.4368C13.0789 19.605 16.911 20.4141 18.0369 20.6593C18.2694 20.7087 18.4477 20.6607 18.5852 20.4635C18.6344 20.3934 18.6938 20.3303 18.7475 20.2648H22.0753C22.0718 20.2893 21.9092 21.0914 21.9075 21.1047C21.8445 21.5152 22.1144 21.9027 22.52 21.9842C23.3206 22.1489 24.1188 22.3245 24.9188 22.4927C25.3296 22.5857 25.7381 22.3279 25.8328 21.9159C25.8426 21.8762 26.2227 20.0711 26.973 16.5007C27.0676 16.0574 26.8097 15.6611 26.3696 15.5669C25.5701 15.3956 24.7707 15.2256 23.9712 15.0567C23.7709 15.0112 23.5608 15.0488 23.3885 15.1609C23.2161 15.273 23.0962 15.4502 23.0557 15.6524C22.9981 15.912 22.8617 16.5627 22.8453 16.6356L19.6682 15.8276C19.3705 15.7547 19.1478 15.5798 18.9817 15.3254C18.8703 15.1571 18.7825 14.9742 18.7206 14.7819C18.6201 14.4645 18.381 13.6361 18.3507 13.531C18.6643 13.5973 19.9313 13.8651 22.1516 14.3344L21.8696 15.6793L22.3423 15.7848C22.5556 14.7725 22.7667 13.7682 22.9793 12.7594L22.5065 12.6556L22.353 13.3757C19.7157 12.8184 18.3059 12.5217 18.1235 12.4857C18.0669 12.4819 18.0215 12.4373 18.0167 12.3806C18.009 12.3284 17.9947 12.2769 17.9818 12.225C17.8607 11.7495 17.5752 11.4352 17.0928 11.3189C16.5958 11.199 16.1767 11.3269 15.8482 11.7274C15.8022 11.7838 15.7561 11.8403 15.7146 11.9002C15.6885 11.9443 15.6351 11.964 15.5868 11.9471C15.3507 11.895 13.9504 11.5932 11.3861 11.0417L11.5341 10.3279Z"/>
</svg>