<svg xmlns="http://www.w3.org/2000/svg" width="140" height="140" viewBox="0 0 32 32" fill="currentColor">
    <path fill-rule="evenodd" clip-rule="evenodd" d="M9.99999 14C9.99999 10.134 13.134 7 17 7C20.866 7 24 10.134 24 14C24 17.866 20.866 21 17 21C13.134 21 9.99999 17.866 9.99999 14ZM17 5C12.0294 5 7.99999 9.02944 7.99999 14C7.99999 16.2926 8.85719 18.3849 10.2686 19.9741L5.29289 24.9497C4.90237 25.3403 4.90237 25.9734 5.29289 26.364C5.68342 26.7545 6.31658 26.7545 6.70711 26.364L11.7559 21.3152C13.2325 22.3756 15.0433 23 17 23C21.9706 23 26 18.9706 26 14C26 9.02944 21.9706 5 17 5Z"/>
</svg>