<svg xmlns="http://www.w3.org/2000/svg" width="140" height="140" viewBox="0 0 32 32" fill="currentColor">
    <path d="M26.6,15.8l0.6-1.3c0.3-0.6,0.5-1.3,0.5-2c0-0.8-0.3-1.5-0.8-2.1L24.8,8c-0.5-0.5-1.2-0.7-1.9-0.6c-0.9,0.3-1.5,1.2-1.3,2.1
	l-3.1-1C17.4,8.2,16.1,8.4,15,9L13,10L8.7,9.2c-0.2,0-0.4-0.1-0.6-0.1c-1.7,0-3.1,1.4-3.1,3.1c0,0.4,0.3,0.8,0.7,0.9l5.6,1.4
	c2.8,0.7,4.7,3.1,4.9,5.9l0,0.2h-3.9c0.1-0.3,0.1-0.6,0.1-0.9c0-2.5-2.1-4.6-4.6-4.6c-2.5,0-4.6,2.1-4.6,4.6c0,2.5,2.1,4.6,4.6,4.6
	c1.5,0,2.8-0.7,3.7-1.8h5.7c0,0,0,0,0.1,0c0.5,0,0.9-0.5,0.9-1l0,0L18,20.4c-0.2-3.6-2.7-6.7-6.3-7.6L7,11.5
	c0.2-0.4,0.6-0.6,1.1-0.6c0.1,0,0.2,0,0.3,0l4.6,1c0.2,0,0.4,0,0.6-0.1l2.3-1.2c0.7-0.4,1.4-0.4,2.2-0.2l4.7,1.5
	c0.7,0.2,1.4-0.4,1.2-1.1l-0.4-1.5l2.1,2.4c0.2,0.2,0.3,0.5,0.3,0.9c0,0.4-0.1,0.8-0.3,1.2l-0.7,1.5c-0.2,0-0.4,0-0.6,0
	c-2.5,0-4.6,2.1-4.6,4.6c0,2.5,2.1,4.6,4.6,4.6s4.6-2.1,4.6-4.6C28.9,18.1,28,16.6,26.6,15.8z M7.7,22.5c-1.5,0-2.8-1.2-2.8-2.8
	c0-1.5,1.2-2.8,2.8-2.8s2.8,1.2,2.8,2.8C10.5,21.3,9.2,22.5,7.7,22.5z M24.3,22.5c-1.5,0-2.8-1.2-2.8-2.8c0-1.5,1.2-2.8,2.8-2.8
	c1.5,0,2.8,1.2,2.8,2.8C27.1,21.3,25.8,22.5,24.3,22.5z"/>
</svg>