<svg xmlns="http://www.w3.org/2000/svg" width="140" height="140" viewBox="0 0 32 32" fill="currentColor">
    <path fill-rule="evenodd" clip-rule="evenodd" d="M5 6.7C5 4.68329 6.5966 3 8.625 3H17.375C19.4034 3 21 4.68329 21 6.7V19.3C21 21.3167 19.4034 23 17.375 23H8.625C6.5966 23 5 21.3167 5 19.3V6.7ZM8.625 5C7.75391 5 7 5.73437 7 6.7V19.3C7 20.2656 7.75391 21 8.625 21H17.375C18.2461 21 19 20.2656 19 19.3V6.7C19 5.73437 18.2461 5 17.375 5H8.625ZM22.375 10C22.375 9.44772 22.8227 9 23.375 9H24C25.6569 9 27 10.3431 27 12V26C27 27.6569 25.6569 29 24 29H14C12.3431 29 11 27.6569 11 26V25.3C11 24.7477 11.4477 24.3 12 24.3C12.5523 24.3 13 24.7477 13 25.3V26C13 26.5523 13.4477 27 14 27H24C24.5523 27 25 26.5523 25 26V12C25 11.4477 24.5523 11 24 11H23.375C22.8227 11 22.375 10.5523 22.375 10ZM10 16C9.44772 16 9 16.4477 9 17C9 17.5523 9.44772 18 10 18H16C16.5523 18 17 17.5523 17 17C17 16.4477 16.5523 16 16 16H10ZM9 13C9 12.4477 9.44772 12 10 12H16C16.5523 12 17 12.4477 17 13C17 13.5523 16.5523 14 16 14H10C9.44772 14 9 13.5523 9 13ZM10 8C9.44772 8 9 8.44772 9 9C9 9.55228 9.44772 10 10 10H16C16.5523 10 17 9.55228 17 9C17 8.44772 16.5523 8 16 8H10Z"/>
</svg>