<svg xmlns="http://www.w3.org/2000/svg" width="140" height="140" viewBox="0 0 32 32" fill="currentColor">
    <path d="M12.3364 17.857C10.9592 19.4673 9.3453 21.3545 7.67699 23.3055C7.44693 23.6676 6.98367 23.8221 6.58243 23.6506C6.20094 23.4875 6.02748 23.5082 5.87719 23.6585C5.68069 23.855 5.72794 24.1351 6.14789 24.555L7.44304 25.8502C7.86531 26.2725 8.14105 26.3194 8.33958 26.1209C8.49913 25.9613 8.52241 25.7945 8.37381 25.4376C8.21383 25.0533 8.35098 24.6154 8.68003 24.379L8.67821 24.3769L14.1343 19.6549L12.3364 17.857V17.857ZM12.904 17.1934L14.7943 19.0837L16.3435 17.7429C18.4727 15.9001 18.4727 15.9001 18.8516 15.5753L25.9709 8.42998C26.2808 8.11891 26.2706 7.58676 25.9257 7.24185L24.6945 6.01066C24.3496 5.66575 23.8184 5.65653 23.5085 5.96759L16.4162 13.0859C16.4215 13.0804 15.0002 14.7423 12.904 17.1934ZM10.1863 25.3748C10.3188 26.1154 10.1193 26.8035 9.57077 27.3521C8.56458 28.3583 7.21854 28.1291 6.19135 27.1019L4.8962 25.8067C3.87092 24.7814 3.64296 23.4303 4.646 22.4273C5.19722 21.8761 5.8933 21.6862 6.64648 21.8318C13.5021 13.8145 15.1404 11.8994 15.185 11.8547L22.2773 4.7364C23.2762 3.73386 24.9085 3.7622 25.9235 4.77722L27.1547 6.00842C28.1697 7.02344 28.201 8.65862 27.2021 9.66117C22.8514 14.0278 22.8514 14.0278 20.0358 16.8503L10.1863 25.3748ZM6.78911 9.36588C6.94797 8.69059 7.29103 8.06699 7.79517 7.56285C8.27319 7.08483 8.85872 6.75147 9.49444 6.58277C9.26168 5.90135 8.70035 5.3722 7.9994 5.18426C7.82669 5.80077 7.49836 6.36813 7.03296 6.83353C6.55223 7.31426 5.96275 7.6487 5.3228 7.81648C5.50726 8.55396 6.06795 9.14234 6.78911 9.36588ZM7.66591 9.45093C8.70334 9.34119 9.52333 8.50261 9.60422 7.45684C9.15926 7.59457 8.75033 7.83888 8.41077 8.17844C8.05108 8.53813 7.79835 8.97563 7.66591 9.45093ZM5.28884 6.9186C5.70866 6.77772 6.09439 6.5409 6.41736 6.21793C6.72849 5.9068 6.95969 5.53742 7.10217 5.13536C6.17809 5.27686 5.44537 5.99955 5.28884 6.9186ZM7.43431 10.3337C5.75148 10.3337 4.38727 8.96948 4.38727 7.28664C4.38727 5.60381 5.75148 4.2396 7.43431 4.2396C9.11715 4.2396 10.4814 5.60381 10.4814 7.28664C10.4814 8.96948 9.11715 10.3337 7.43431 10.3337Z"/>
</svg>