<svg xmlns="http://www.w3.org/2000/svg" width="140" height="140" viewBox="0 0 32 32" fill="currentColor">
    <path fill-rule="evenodd" clip-rule="evenodd" d="M9.54304 7.75008C9.54304 9.26891 8.30219 10.5002 6.77152 10.5002C5.24085 10.5002 4 9.26891 4 7.75008C4 6.23125 5.24085 5 6.77152 5C8.30219 5 9.54304 6.23125 9.54304 7.75008ZM7.38853 19.3518C8.08649 20.6555 8.94853 21.866 9.95396 22.9541C11.3378 24.4505 12.7959 25.4982 14.0495 26.2255L15.3777 20.3325C13.448 19.3652 11.3223 18.7785 9.17566 18.562C8.8173 18.5274 8.45657 18.5105 8.09627 18.5008C7.89485 18.4947 7.6956 18.5433 7.52 18.6414C7.45781 18.6761 7.34736 18.7514 7.29653 18.8791C7.22275 19.0632 7.32548 19.2496 7.36344 19.3092C7.37224 19.323 7.3806 19.3371 7.38853 19.3518ZM18.6398 25.4538C18.6398 25.4538 18.6398 25.4538 18.6398 25.4538L19.189 24.2356C19.2242 24.1575 19.2826 24.0946 19.3538 24.0535C19.3538 24.0535 19.3538 24.0535 19.3538 24.0535C19.4134 24.0191 19.482 24 19.5536 24H24.4461C24.6034 24 24.7461 24.0922 24.8108 24.2356L25.9507 26.7644C26.0154 26.9078 26.1581 27 26.3154 27H28.5995C28.8559 27 29.0461 26.7622 28.9898 26.512L27.2822 18.9361C27.1588 18.3888 26.6726 18 26.1116 18H24.6286H17.8882H17.8881C17.859 18 17.8301 18.0011 17.8014 18.0031C17.7717 18.0053 17.7423 18.0085 17.7132 18.0128C17.2284 18.0839 16.8278 18.4466 16.7175 18.9361L15.01 26.512C14.9536 26.7622 15.1438 27 15.4002 27H17.6843C17.8416 27 17.9843 26.9078 18.049 26.7644L18.6398 25.4538ZM23.885 19.037C23.8803 19.0353 23.8755 19.0337 23.8707 19.0321C23.8069 19.0114 23.7386 19.0001 23.6677 19M23.885 19.037C24.1377 19.1255 24.3186 19.3634 24.3186 19.6429C24.3186 19.9979 24.0266 20.2857 23.6665 20.2857C23.542 20.2857 23.4256 20.2513 23.3266 20.1915C23.3266 20.1915 23.3266 20.1915 23.3266 20.1915C23.1935 20.1111 23.0919 19.985 23.0443 19.8353C23.025 19.7745 23.0146 19.7099 23.0146 19.6429C23.0146 19.3325 23.2376 19.0735 23.5342 19.0132C23.5766 19.0046 23.6205 19.0001 23.6655 19C23.6658 19 23.6662 19 23.6665 19C23.6669 19 23.6673 19 23.6677 19M25.4389 16.2838C25.3345 16.5305 25.2284 16.7693 25.1215 17H17.8882C17.0371 17 16.2801 17.4879 15.916 18.2247C13.9139 17.2843 11.6998 16.677 9.39223 16.4442H9.38408L9.37774 16.4437H9.37773C9.35542 16.4417 9.31949 16.4385 9.27684 16.4342L9.27638 16.4342C8.72313 16.3786 6.84425 16.1898 5.55782 14.821C5.40662 14.6594 5.26823 14.4864 5.14391 14.3036C5.14391 14.3036 4.7242 13.6035 4.52989 12.0926C5.45604 12.562 6.5082 12.7284 7.53551 12.5678C8.56282 12.4072 9.5125 11.928 10.2484 11.1988C10.9727 10.4791 11.4526 9.553 11.6211 8.5497C11.7896 7.54641 11.6383 6.51594 11.1884 5.60204C12.754 5.31326 14.9016 5.1577 18.3086 5.46435C18.3086 5.46435 23.2374 5.90784 26.8736 7.92438C26.9003 7.93815 26.9227 7.95885 26.9384 7.98426C26.9541 8.00967 26.9626 8.03885 26.9628 8.06866C27.0729 10.2574 26.9034 11.1686 26.9034 11.1686C26.5005 13.7804 25.9552 15.0663 25.49 16.1631L25.4389 16.2838ZM20.8263 20.9959C20.8133 20.9986 20.7998 21 20.786 21C20.786 21 20.786 21 20.786 21H20.0052H19.9717V21.8C19.9717 21.9105 19.8822 22 19.7717 22H19.1574C19.047 22 18.9574 21.9105 18.9574 21.8V21H18.1432C18.0327 21 17.9432 20.9105 17.9432 20.8V20.2C17.9432 20.0895 18.0327 20 18.1432 20H18.8848H18.9574H18.9575V19.2C18.9575 19.0897 19.0473 19.0003 19.1575 19H19.7717C19.7719 19 19.7721 19 19.7723 19C19.8825 19.0003 19.9717 19.0897 19.9717 19.2V20H19.9718H20.786C20.786 20 20.786 20 20.786 20C20.8072 20 20.8275 20.0033 20.8467 20.0094C20.9275 20.0351 20.986 20.1107 20.986 20.2V20.8C20.986 20.8966 20.9174 20.9773 20.8263 20.9959ZM23.6665 22C24.0266 22 24.3186 21.7122 24.3186 21.3571C24.3186 21.0021 24.0266 20.7143 23.6665 20.7143C23.3064 20.7143 23.0145 21.0021 23.0145 21.3571C23.0145 21.7122 23.3064 22 23.6665 22ZM26.0573 21.3572C26.0573 21.7123 25.7654 22.0001 25.4053 22.0001C25.0452 22.0001 24.7533 21.7123 24.7533 21.3572C24.7533 21.0022 25.0452 20.7144 25.4053 20.7144C25.7654 20.7144 26.0573 21.0022 26.0573 21.3572ZM25.4053 20.2857C25.7654 20.2857 26.0573 19.9979 26.0573 19.6429C26.0573 19.2878 25.7654 19 25.4053 19C25.0452 19 24.7533 19.2878 24.7533 19.6429C24.7533 19.9979 25.0452 20.2857 25.4053 20.2857Z"/>
</svg>