<svg xmlns="http://www.w3.org/2000/svg" width="140" height="140" viewBox="0 0 32 32" fill="currentColor">
    <path d="M11.6527 15.9687L10.8636 15.1468C10.6855 14.9612 10.6915 14.6665 10.877 14.4884C11.0626 14.3103 11.3573 14.3163 11.5354 14.5018L12.253 15.2492C12.6234 14.8167 13.0004 14.3972 13.384 13.9908L12.7157 13.2946C12.5376 13.1091 12.5437 12.8143 12.7292 12.6362C12.9147 12.4581 13.2095 12.4641 13.3876 12.6497L14.0329 13.3219C14.0425 13.3124 14.052 13.3028 14.0615 13.2933C14.4497 12.9051 14.8474 12.5267 15.2547 12.158L14.5679 11.4425C14.3898 11.257 14.3958 10.9622 14.5813 10.7841C14.7668 10.606 15.0616 10.612 15.2397 10.7975L15.9545 11.5421C17.3577 10.3416 18.869 9.25044 20.488 8.26856C19.4084 7.47802 18.3241 6.94144 17.3751 6.69369C15.0293 7.49631 12.6139 8.84958 10.7468 10.7167C8.96938 12.4941 7.65381 14.7433 6.83344 16.9576C6.97019 17.9995 7.52214 19.275 8.43154 20.5522C9.44059 18.8966 10.5143 17.3687 11.6527 15.9687ZM12.3027 16.6458C11.1485 18.0744 10.0615 19.6402 9.04161 21.3434C9.31306 21.6697 9.60739 21.993 9.92362 22.3092C11.5062 23.8918 13.2644 24.926 14.703 25.2885C17.0255 24.4795 19.4151 23.1215 21.2833 21.2532C23.0624 19.4742 24.3749 17.1973 25.1891 14.9572C24.9702 13.4381 23.8844 11.4385 22.1065 9.66067C21.8316 9.3858 21.5515 9.12747 21.2686 8.88633C19.5953 9.87872 18.0394 10.9883 16.6006 12.2151L17.6104 13.267C17.7885 13.4526 17.7825 13.7473 17.597 13.9254C17.4115 14.1035 17.1167 14.0975 16.9386 13.912L15.9 12.8301C15.497 13.1943 15.1037 13.5682 14.7201 13.9518C14.7061 13.9658 14.692 13.9799 14.678 13.9939L15.7583 15.1192C15.9364 15.3047 15.9304 15.5995 15.7449 15.7776C15.5593 15.9557 15.2646 15.9497 15.0865 15.7641L14.0298 14.6634C13.647 15.0702 13.2707 15.4905 12.9011 15.9244L13.9062 16.9713C14.0843 17.1568 14.0783 17.4516 13.8927 17.6297C13.7072 17.8078 13.4124 17.8018 13.2343 17.6163L12.3027 16.6458ZM6.28673 24.4594C6.80809 23.4054 7.3505 22.3931 7.91399 21.4224C7.20161 20.4831 6.65774 19.5213 6.31089 18.6064C5.68839 20.9697 5.66586 23.1404 6.28673 24.4594ZM6.90785 25.309C8.04538 26.2974 10.4755 26.4196 13.1875 25.742C11.8868 25.1692 10.5156 24.2183 9.26508 22.9677C9.01209 22.7147 8.77135 22.4568 8.54353 22.1955C7.9766 23.189 7.43137 24.2268 6.90785 25.309ZM24.3765 6.21446C23.1051 5.68541 21.0918 5.70775 18.8893 6.24857C19.7011 6.61125 20.5395 7.12051 21.358 7.75732C22.3273 7.20562 23.3335 6.69133 24.3765 6.21446ZM25.2915 6.82482C24.1941 7.30722 23.1379 7.83076 22.123 8.39544C22.3398 8.5889 22.5542 8.79126 22.765 9.00214C24.1411 10.3782 25.1543 11.9002 25.7002 13.3138C26.4319 10.4851 26.3186 7.93777 25.2915 6.82482ZM5.47851 26.5215C2.46492 23.5079 4.19395 14.6354 9.42972 9.3996C14.6317 4.19764 23.589 2.48581 26.5516 5.44839C29.5142 8.41097 27.8024 17.3683 22.6004 22.5703C17.3646 27.806 8.49211 29.5351 5.47851 26.5215Z"/>
</svg>