<svg xmlns="http://www.w3.org/2000/svg" width="140" height="140" viewBox="0 0 32 32" fill="currentColor">
    <path d="M24.1102 14.6035L25.8704 17.6521C26.3607 18.5014 26.0697 19.5874 25.2204 20.0777C24.9591 20.2286 24.6636 20.3103 24.3619 20.3153L18.8205 20.4068C18.6169 20.4101 18.4151 20.3995 18.2163 20.3756L19.9269 23.3384C20.785 24.8247 20.2757 26.7251 18.7895 27.5832C17.3033 28.4412 15.4029 27.932 14.5448 26.4458L12.5472 22.9859C10.424 24.2117 7.7091 23.4842 6.48328 21.3611L5.59547 19.8233C4.36965 17.7001 5.0971 14.9852 7.22028 13.7594L12.0575 10.9666C12.1583 10.4972 12.336 10.0406 12.5905 9.61615L15.4404 4.86284C15.9447 4.02177 17.0353 3.74874 17.8764 4.25302C18.1352 4.40819 18.3502 4.62676 18.501 4.88809L20.7051 8.7056C22.0425 8.43849 23.5299 9.15928 24.3298 10.5448C25.1297 11.9302 25.0103 13.5788 24.1102 14.6035ZM23.6277 13.7678C24.0968 13.024 24.1106 11.9406 23.561 10.9887C23.0114 10.0367 22.0663 9.50697 21.1876 9.54126L23.6277 13.7678ZM12.5533 14.1184L11.9525 13.0776L8.1081 15.2972C6.83419 16.0326 6.39772 17.6616 7.13321 18.9355L8.02103 20.4732C8.75652 21.7471 10.3855 22.1836 11.6594 21.4481L15.5037 19.2286L14.9029 18.1878L12.5533 14.1184ZM16.4406 17.3C16.9242 18.1377 17.824 18.6473 18.7912 18.6314L24.3326 18.5399L16.9633 5.7759L14.1134 10.5292C13.616 11.3588 13.6075 12.3929 14.0911 13.2305L16.4406 17.3ZM16.3916 20.7663L14.0849 22.0981L16.0825 25.558C16.4503 26.1949 17.2647 26.4132 17.9017 26.0454C18.5386 25.6777 18.7569 24.8632 18.3891 24.2263L16.3916 20.7663ZM27.4665 14.5209C27.3818 14.751 27.1267 14.8689 26.8966 14.7842C26.6665 14.6996 26.5486 14.4444 26.6332 14.2144C27.2212 12.616 27.084 10.8369 26.216 9.33337C25.3478 7.82976 23.8756 6.82134 22.1972 6.53144C21.9556 6.48972 21.7936 6.26005 21.8353 6.01846C21.8771 5.77687 22.1067 5.61485 22.3483 5.65658C24.2837 5.99086 25.9835 7.15518 26.9848 8.88947C27.986 10.6236 28.1445 12.6777 27.4665 14.5209Z"/>
</svg>