<svg xmlns="http://www.w3.org/2000/svg" width="140" height="140" viewBox="0 0 32 32" fill="currentColor">
    <path d="M22.4075 14.2385L24.4201 12.2259L22.4075 10.2132L20.3948 12.2259L22.4075 14.2385ZM23.0282 14.8592L24.4193 16.2503C25.0866 15.4911 25.5695 14.6045 25.8705 13.6763L25.0408 12.8465L23.0282 14.8592ZM26.1927 10.4533C26.059 9.36893 25.6715 8.365 25.0343 7.58634L23.0282 9.59253L25.0408 11.6052L26.1927 10.4533ZM26.2383 11.6491L25.6615 12.2259L26.1208 12.6851C26.184 12.3399 26.2231 11.9932 26.2383 11.6491ZM21.7868 14.8592L19.7741 12.8465L17.7615 14.8592L19.7741 16.8718L21.7868 14.8592ZM22.4075 15.4799L20.3948 17.4925L21.248 18.3457C22.1622 18.0366 23.0383 17.5454 23.7992 16.8716L22.4075 15.4799ZM17.9668 18.6792L19.1535 17.4925L17.1408 15.4799L15.1335 17.4872C15.9178 18.138 16.905 18.5357 17.9668 18.6792ZM19.1527 18.7346C19.5224 18.7204 19.8953 18.6774 20.2665 18.6055L19.7741 18.1132L19.1527 18.7346ZM17.7615 9.59253L19.7741 11.6052L21.7868 9.59253L19.7741 7.57988L17.7615 9.59253ZM17.1408 8.97185L19.1535 6.9592L18.3237 6.12945C17.3955 6.43046 16.5089 6.9134 15.7497 7.58075L17.1408 8.97185ZM21.5467 5.80728L20.3948 6.9592L22.4075 8.97185L24.4137 6.96566C23.635 6.32854 22.6311 5.94102 21.5467 5.80728ZM20.3509 5.76172C20.0068 5.77691 19.6601 5.81604 19.3149 5.87924L19.7741 6.33852L20.3509 5.76172ZM17.1408 10.2132L15.1282 12.2259L17.1408 14.2385L19.1535 12.2259L17.1408 10.2132ZM16.5201 9.59253L15.1284 8.20083C14.4546 8.9617 13.9634 9.83779 13.6543 10.752L14.5075 11.6052L16.5201 9.59253ZM13.3208 14.0332C13.4643 15.095 13.862 16.0822 14.5128 16.8665L16.5201 14.8592L14.5075 12.8465L13.3208 14.0332ZM13.2654 12.8473L13.8868 12.2259L13.3945 11.7335C13.3226 12.1047 13.2796 12.4776 13.2654 12.8473ZM11.5476 21.9991L16.4917 20.1515C15.39 19.82 14.3825 19.2478 13.5673 18.4327C12.7735 17.6388 12.2101 16.6626 11.875 15.5945L10.0731 20.5246L11.5476 21.9991ZM10.7743 22.4671L9.53289 21.2257L6.11914 24.6395L7.3605 25.8809L10.7743 22.4671ZM12.1002 9.88626C12.5466 8.70204 13.2434 7.58435 14.188 6.63972C17.4865 3.34118 23.0955 3.13363 25.981 6.01904C28.8664 8.90445 28.6588 14.5135 25.3603 17.812C24.4413 18.731 23.3585 19.4154 22.21 19.8629C22.1537 19.9009 22.092 19.9329 22.0256 19.9577L12.0318 23.6922L7.98119 27.7429C7.63839 28.0857 7.08262 28.0857 6.73982 27.7429L4.25709 25.2602C3.9143 24.9174 3.9143 24.3616 4.25709 24.0188L8.4647 19.8112L12.0529 9.99325C12.0665 9.95608 12.0824 9.92038 12.1002 9.88626ZM4.08822 7.16683C4.08822 5.52821 5.37968 4.17869 7.0087 4.09889C7.04051 4.09486 7.0729 4.09369 7.10606 4.09565C7.1298 4.0949 7.1298 4.0949 7.16044 4.09461C8.85485 4.09461 10.2327 5.47242 10.2327 7.16683C10.2327 8.86124 8.85485 10.2391 7.16044 10.2391C5.46603 10.2391 4.08822 8.86124 4.08822 7.16683ZM7.00128 4.96502C7.02973 4.97092 7.05763 4.97322 7.08452 4.97245L7.00128 4.96502ZM7.08655 4.97263L7.07094 4.97476C5.89934 5.02198 4.966 5.99081 4.966 7.16683C4.966 8.37646 5.95081 9.36127 7.16044 9.36127C8.37007 9.36127 9.35488 8.37646 9.35488 7.16683C9.35488 5.95721 8.37007 4.97239 7.16044 4.97239C7.15087 4.97247 7.15087 4.97247 7.13463 4.97297L7.12713 4.97321C7.11553 4.9736 7.11553 4.9736 7.10181 4.974L7.08655 4.97263ZM6.28266 7.60572C6.04027 7.60572 5.84377 7.40922 5.84377 7.16683C5.84377 6.92444 6.04027 6.72794 6.28266 6.72794C6.52505 6.72794 6.72155 6.92444 6.72155 7.16683C6.72155 7.40922 6.52505 7.60572 6.28266 7.60572ZM8.03822 7.60572C7.79582 7.60572 7.59933 7.40922 7.59933 7.16683C7.59933 6.92444 7.79582 6.72794 8.03822 6.72794C8.28061 6.72794 8.4771 6.92444 8.4771 7.16683C8.4771 7.40922 8.28061 7.60572 8.03822 7.60572Z"/>
</svg>