<svg xmlns="http://www.w3.org/2000/svg" width="140" height="140" viewBox="0 0 32 32" fill="currentColor">
    <path d="M27.9857 10.0435C28.0222 10.1166 27.9857 10.2261 27.9126 10.2261L24.7352 12.4905C24.6987 12.527 24.6257 12.4905 24.5891 12.454L24.1509 11.9061H16.3717C16.3717 11.9061 16.3352 11.9061 16.2987 11.8696C16.2622 11.7966 16.2622 11.7235 16.2987 11.687L18.0517 10.0435L18.1978 10.007H27.9126C27.9491 10.007 27.9857 10.0435 27.9857 10.0435ZM23.6761 20.1966C23.9318 20.1966 24.1509 20.16 24.4065 20.087C24.5161 20.087 24.5526 20.1235 24.5526 20.1235C24.5161 20.4522 23.8587 21.4748 20.9735 21.4748C19.0744 21.4748 16.7004 19.5757 16.0796 17.64C15.8239 17.0557 15.7144 16.3983 15.7144 15.7409C15.7144 14.8644 15.8239 13.9879 16.1161 13.1479C16.1161 13.1113 16.1891 13.0748 16.2257 13.0748H19.5126C19.5491 13.0748 19.5857 13.0748 19.6222 13.1113C19.6587 13.1479 19.6587 13.1844 19.6587 13.2209C19.5491 13.9148 19.4761 14.6818 19.4761 15.3757C19.5126 15.6679 19.5126 15.96 19.5491 16.2157C19.6952 18.4435 21.5213 20.1235 23.6761 20.1966ZM15.6413 10.007C15.6778 10.007 15.7144 10.0435 15.7509 10.08C15.7509 10.1531 15.7509 10.1896 15.7144 10.2261L13.4135 12.7461C13.4135 12.7827 13.377 12.7827 13.3404 12.7827C13.3039 12.7827 13.3039 12.7827 13.2674 12.7461L12.3909 11.9427H5.81696C5.74391 11.9061 5.70739 11.8696 5.70739 11.76V11.4679C5.67087 11.0296 5.81696 10.5548 6.14565 10.2627C6.43783 10.08 6.80305 9.97048 7.13174 10.007H15.6413ZM10.4187 13.0748C10.4187 13.0748 15.057 18.9183 15.4222 19.5027C15.5683 19.7218 15.6413 19.9409 15.6413 20.1966C15.6413 20.7809 15.2396 21.4748 14.6187 21.4748H4.10043C4.06391 21.4748 4.06391 21.4748 4.02739 21.4383C3.99087 21.3653 3.99087 21.2922 4.02739 21.2557L6.87609 18.6261C6.91261 18.5896 6.94913 18.5896 6.98565 18.5896C7.02218 18.5896 7.02218 18.5896 7.0587 18.6261C7.16826 18.7722 7.27783 18.8818 7.42392 18.9914C7.75261 19.247 8.19087 19.3566 8.62913 19.3566H11.6239L11.6604 19.32V19.2835C11.5144 19.1374 6.43783 13.2209 6.43783 13.2209C6.40131 13.1844 6.40131 13.1844 6.40131 13.1479C6.40131 13.1113 6.43783 13.0383 6.51087 13.0383H10.3091L10.4187 13.0748Z"/>
</svg>