<svg xmlns="http://www.w3.org/2000/svg" width="140" height="140" viewBox="0 0 32 32" fill="currentColor">
    <path fill-rule="evenodd" clip-rule="evenodd" d="M14.6254 5.94061C15.0996 4.68646 16.9005 4.68646 17.3746 5.94061L19.6994 12.0896L26.5777 12.2991C27.8616 12.3383 28.6024 14.0188 27.4139 14.8991L22.0169 18.8962L23.9146 25.138C24.12 25.8138 23.8039 26.4229 23.3534 26.7351C22.9076 27.044 22.2593 27.1206 21.7036 26.7608L16 23.0679L10.2965 26.7608C9.74081 27.1206 9.09247 27.044 8.64671 26.7351C8.19618 26.4229 7.88008 25.8138 8.08553 25.138L9.98319 18.8962L4.58622 14.8991C3.39765 14.0188 4.13844 12.3383 5.42238 12.2991L12.3006 12.0896L14.6254 5.94061ZM16 7.96023L14.0424 13.138C13.8266 13.709 13.2865 14.0605 12.7132 14.078L7.07004 14.2499L11.4899 17.5233C11.9687 17.8779 12.1942 18.4993 12.0136 19.0935L10.434 24.2891L15.1943 21.207C15.6833 20.8903 16.3168 20.8903 16.8058 21.207L21.5661 24.2891L19.9865 19.0935C19.8058 18.4993 20.0314 17.8779 20.5102 17.5233L24.93 14.2499L19.2869 14.078C18.7136 14.0605 18.1735 13.709 17.9577 13.138L16 7.96023ZM26.2235 13.2919L26.223 13.2923L26.2235 13.2919Z"/>
</svg>