<svg xmlns="http://www.w3.org/2000/svg" width="140" height="140" viewBox="0 0 32 32" fill="currentColor">
    <path fill-rule="evenodd" clip-rule="evenodd" d="M10.509 7.30099C9.48574 9.0238 8.87757 10.9635 8.74288 12.9927C8.87583 12.9976 9.00917 13 9.14286 13C10.2172 13 11.2604 12.8405 12.2474 12.5418C12.5911 10.0508 13.7417 7.58916 15.4152 5.73063C13.6177 5.83138 11.9434 6.3937 10.509 7.30099ZM8.93089 8.52845C7.74843 9.6476 6.83148 11.0444 6.28441 12.6146C6.80828 12.7593 7.344 12.8639 7.88818 12.9274C7.99067 11.3976 8.34562 9.9151 8.93089 8.52845ZM16.6072 5.73191C14.8575 7.40464 13.6033 9.78053 13.1665 12.2172C15.8619 11.1244 18.0389 8.9613 19.1215 6.19647C18.3214 5.94195 17.4789 5.78266 16.6072 5.73191ZM5.89213 17.9145C6.10294 19.0343 6.49523 20.0901 7.0373 21.0501C11.2593 21.8766 15.0461 21.4325 18.8389 18.4268C18.6652 17.4347 18.3539 16.4813 17.9195 15.5905C13.857 17.8101 11.0395 18.4531 5.89213 17.9145ZM5.76611 17.039C10.8721 17.6001 13.5417 17.0068 17.5131 14.8358C16.9128 13.821 16.144 12.9046 15.2311 12.127C13.4502 13.2293 11.3579 13.8571 9.14286 13.8571C8.0813 13.8571 7.03889 13.714 6.03658 13.4354C5.82617 14.2552 5.71429 15.1145 5.71429 16C5.71429 16.3507 5.73184 16.6973 5.76611 17.039ZM7.66884 22.0335C8.49137 23.1673 9.53968 24.1266 10.7478 24.8455C11.3455 24.948 11.9549 25 12.5714 25C14.7612 25 16.8513 24.3421 18.6179 23.1321C18.8693 22.2168 19 21.2613 19 20.2857C19 19.9922 18.9881 19.7007 18.9647 19.4117C15.3124 22.1422 11.653 22.6727 7.66884 22.0335ZM13.0235 25.8485C13.9657 26.1328 14.965 26.2857 16 26.2857C16.4098 26.2857 16.814 26.2617 17.2113 26.2151C17.5912 25.6446 17.9145 25.0407 18.1773 24.411C16.6101 25.2807 14.8535 25.778 13.0235 25.8485L13.0235 25.8485ZM18.6241 8.92403C17.8907 9.97002 16.9911 10.8839 15.9673 11.6314C18.4172 13.8061 19.8571 16.9278 19.8571 20.2857C19.8571 22.3303 19.325 24.2944 18.3397 26.0184C20.0239 25.6266 21.5493 24.8211 22.803 23.7148C23.1223 22.4791 23.2857 21.2005 23.2857 19.9C23.2857 15.7132 21.5832 11.7961 18.6241 8.92403ZM19.0979 8.19068C22.2969 11.2322 24.1429 15.4204 24.1429 19.9C24.1429 20.798 24.069 21.6864 23.9236 22.5589C25.3989 20.7785 26.2857 18.4928 26.2857 16C26.2857 11.71 23.6594 8.03347 19.9268 6.49047C19.6956 7.08413 19.4177 7.65219 19.0979 8.19068ZM16 28C9.37258 28 4 22.6274 4 16C4 9.37258 9.37258 4 16 4C22.6274 4 28 9.37258 28 16C28 22.6274 22.6274 28 16 28Z"/>
</svg>