<svg xmlns="http://www.w3.org/2000/svg" width="140" height="140" viewBox="0 0 32 32" fill="currentColor">
    <path d="M11.3596 6.79207C10.3796 8.67332 9.77907 10.7817 9.60964 12.9899C10.6878 12.9434 11.7303 12.7363 12.7109 12.3899C12.865 10.0114 13.6387 7.73476 14.9306 5.7679C13.6566 5.89638 12.452 6.25185 11.3596 6.79207ZM10.0481 7.56577C8.28101 8.79238 6.92821 10.5504 6.23331 12.6003C7.04745 12.8295 7.89057 12.962 8.74989 12.9929C8.88832 11.0918 9.33077 9.25827 10.0481 7.56577ZM16.0101 5.71429C14.662 7.56141 13.8236 9.73844 13.6 12.0302C16.0978 10.8868 18.1027 8.80613 19.1254 6.1863C18.143 5.8807 17.0964 5.71531 16.0101 5.71429ZM5.96716 18.1052C6.09733 18.6826 6.27736 19.2346 6.50629 19.7536C6.69733 20.1867 6.50107 20.6927 6.06794 20.8838C5.63481 21.0748 5.12883 20.8785 4.93779 20.4454C4.3141 19.0313 4 17.4351 4 15.7591C4 9.26047 9.37673 4 16 4C22.6233 4 28 9.26047 28 15.7591C28 17.3926 27.6594 18.9808 27.0081 20.4474C26.816 20.88 26.3095 21.075 25.8769 20.8829C25.4442 20.6907 25.2492 20.1843 25.4414 19.7516C25.9959 18.5029 26.2857 17.1516 26.2857 15.7591C26.2857 11.5744 23.6638 7.98355 19.933 6.47464C19.7005 7.07404 19.4205 7.64741 19.0979 8.19068C22.2969 11.2322 24.1429 15.4204 24.1429 19.9C24.1429 20.0275 24.1414 20.1548 24.1384 20.282C24.1329 20.5186 23.9366 20.706 23.6999 20.7004C23.4633 20.6949 23.276 20.4986 23.2815 20.262C23.2843 20.1415 23.2857 20.0208 23.2857 19.9C23.2857 15.7132 21.5832 11.7961 18.6241 8.92403C17.8907 9.97004 16.9911 10.8839 15.9673 11.6315C18.42 13.8092 19.8571 16.9306 19.8571 20.2857C19.8571 20.5224 19.6653 20.7143 19.4286 20.7143C19.1919 20.7143 19 20.5224 19 20.2857C19 18.7883 18.6911 17.3415 18.1167 16.0186C14.76 17.4145 11.145 18.1429 7.42857 18.1429C6.93982 18.1429 6.45257 18.1303 5.96716 18.1052ZM5.81173 17.2381C6.34842 17.2698 6.88752 17.2857 7.42857 17.2857C11.0152 17.2857 14.503 16.5863 17.7434 15.2455C17.115 14.0677 16.266 13.0088 15.231 12.1271C13.4501 13.2293 11.3579 13.8571 9.14286 13.8571C8.06623 13.8571 7.00929 13.71 5.99391 13.4234C5.81107 14.173 5.71429 14.9551 5.71429 15.7591C5.71429 16.2636 5.74693 16.7579 5.81173 17.2381ZM4.23073 26.2263C3.90761 25.8803 3.92613 25.3379 4.27209 25.0148C4.61805 24.6917 5.16044 24.7102 5.48356 25.0561C5.58612 25.1659 5.899 25.5145 5.91265 25.5295C6.44673 26.1143 6.74503 26.2857 7.37565 26.2857C7.8055 26.2857 7.98864 26.1758 8.48256 25.6805C9.27028 24.8905 9.80129 24.5714 10.7974 24.5714C11.7953 24.5714 12.3256 24.8913 13.1093 25.6807L13.1104 25.6818C13.6019 26.1768 13.7825 26.2857 14.2092 26.2857C14.637 26.2857 14.8208 26.1757 15.3185 25.6798L15.3198 25.6785C16.1111 24.8902 16.6438 24.5714 17.643 24.5714C18.643 24.5714 19.175 24.8907 19.9633 25.68C20.459 26.1763 20.6412 26.2857 21.0691 26.2857C21.4973 26.2857 21.6797 26.1762 22.1753 25.6801C22.9641 24.8906 23.4956 24.5714 24.4951 24.5714C25.7981 24.5714 26.5746 25.0575 27.4914 26.1026C27.5305 26.1472 27.6903 26.3312 27.7307 26.3772C27.751 26.4003 27.751 26.4003 27.7711 26.423C28.0853 26.7771 28.053 27.3188 27.6989 27.633C27.3448 27.9472 26.8031 27.9149 26.4889 27.5608C26.4658 27.5347 26.4658 27.5347 26.443 27.5088C26.3984 27.458 26.2379 27.2732 26.2026 27.2331C25.5793 26.5225 25.2011 26.2857 24.4951 26.2857C24.0665 26.2857 23.884 26.3953 23.3883 26.8915C22.5996 27.681 22.0682 28 21.0691 28C20.0703 28 19.5389 27.6809 18.7511 26.8922C18.2549 26.3953 18.0723 26.2857 17.643 26.2857C17.213 26.2857 17.0283 26.3962 16.5298 26.8929C15.7381 27.6817 15.2064 28 14.2092 28C13.2096 28 12.6783 27.6797 11.8939 26.8896C11.4021 26.3942 11.2222 26.2857 10.7974 26.2857C10.3727 26.2857 10.1913 26.3947 9.69941 26.888L9.69645 26.8909C8.90977 27.6799 8.37637 28 7.37565 28C6.18413 28 5.47519 27.5926 4.64676 26.6854C4.62296 26.6594 4.31944 26.3212 4.23073 26.2263ZM4.23073 22.7977C3.90761 22.4517 3.92613 21.9093 4.27209 21.5862C4.61805 21.2631 5.16044 21.2816 5.48356 21.6276C5.58612 21.7374 5.899 22.0859 5.91265 22.1009C6.44673 22.6857 6.74503 22.8571 7.37565 22.8571C7.8055 22.8571 7.98864 22.7472 8.48256 22.2519C9.27028 21.462 9.80129 21.1429 10.7974 21.1429C11.7953 21.1429 12.3256 21.4627 13.1093 22.2521L13.1104 22.2533C13.6019 22.7483 13.7825 22.8571 14.2092 22.8571C14.637 22.8571 14.8208 22.7471 15.3185 22.2513L15.3198 22.2499C16.1111 21.4616 16.6438 21.1429 17.643 21.1429C18.643 21.1429 19.175 21.4622 19.9633 22.2514C20.459 22.7478 20.6412 22.8571 21.0691 22.8571C21.4973 22.8571 21.6797 22.7477 22.1753 22.2516C22.9641 21.462 23.4956 21.1429 24.4951 21.1429C25.7981 21.1429 26.5746 21.6289 27.4914 22.6741C27.5305 22.7186 27.6903 22.9026 27.7307 22.9486C27.751 22.9717 27.751 22.9717 27.7711 22.9944C28.0853 23.3485 28.053 23.8902 27.6989 24.2044C27.3448 24.5186 26.8031 24.4863 26.4889 24.1322C26.4658 24.1061 26.4658 24.1061 26.443 24.0802C26.3984 24.0294 26.2379 23.8447 26.2026 23.8045C25.5793 23.0939 25.2011 22.8571 24.4951 22.8571C24.0665 22.8571 23.884 22.9667 23.3883 23.4629C22.5996 24.2524 22.0682 24.5714 21.0691 24.5714C20.0703 24.5714 19.5389 24.2524 18.7511 23.4636C18.2549 22.9668 18.0723 22.8571 17.643 22.8571C17.213 22.8571 17.0283 22.9676 16.5298 23.4644C15.7381 24.2531 15.2064 24.5714 14.2092 24.5714C13.2096 24.5714 12.6783 24.2512 11.8939 23.461C11.4021 22.9657 11.2222 22.8571 10.7974 22.8571C10.3727 22.8571 10.1913 22.9661 9.69941 23.4594L9.69645 23.4624C8.90977 24.2513 8.37637 24.5714 7.37565 24.5714C6.18413 24.5714 5.47519 24.1641 4.64676 23.2569C4.62296 23.2308 4.31944 22.8927 4.23073 22.7977Z"/>
</svg>