<svg data-cy="ic-live-title" width="32" height="32" viewBox="0 0 32 32" fill="none" xmlns="http://www.w3.org/2000/svg" style="fill: currentcolor; color: rgb(255, 78, 78); width: auto; height: 32px;">
<path fill-rule="evenodd" clip-rule="evenodd" d="M1 11C1 9.89543 1.89543 9 3 9H28.931C30.0737 9 31 9.89543 31 11V21C31 22.1046 30.0737 23 28.931 23H3C1.89543 23 1 22.1046 1 21V11Z" fill="#FF4E4E"></path>
<path fill-rule="evenodd" clip-rule="evenodd" d="M6 13H7.39595V17.8686H10.4205V19H6V13ZM11.5493 13H12.9453V19H11.5493V13ZM20.4851 13L17.8742 19H16.4955L13.8932 13H15.4011L17.2365 17.2857L19.0978 13H20.4851ZM26 17.8857V19H21.3296V13H25.888V14.1143H22.7169V15.4171H25.5174V16.4971H22.7169V17.8857H26Z" fill="white"></path>
</svg>