<svg data-cy="sport-fifa-b" width="32" height="32" viewBox="0 0 32 32" xmlns="http://www.w3.org/2000/svg" class="bt3065" style="fill: currentcolor; color: inherit; width: auto; height: 16.8px;">
<path d="M29.112 18C29.9017 18 30.6105 18.4201 30.9995 19.0693L30.9995 18.9717V18.9697C31.0003 16.5565 31.001 14.1434 30.9949 11.7302C30.9909 10.2408 29.9032 9.09638 28.4138 9.0355C27.448 8.99492 26.478 8.9868 25.5122 9.02332C23.8361 9.08826 22.7972 10.2002 22.7972 11.8763V18H25.8287V12.4282C25.8287 12.4051 25.8282 12.3824 25.8278 12.3599C25.8269 12.3152 25.826 12.2712 25.8287 12.2253C25.8612 11.7667 26.1331 11.5111 26.5917 11.5111H27.1598C27.7402 11.5111 27.9715 11.7383 27.9715 12.3227V14.8023H26.3806V17.2941H27.9715V18H29.112ZM4.05996 14.0313H7.4527V16.5474H4.06402V21.5554H1V11.856C1 10.1759 2.10792 9.03144 3.79211 9.01115C4.89333 8.9971 5.9926 9.00056 7.09262 9.00401C7.58173 9.00555 8.07098 9.00709 8.56062 9.00709C8.6012 9.00709 8.64179 9.01115 8.69454 9.01926V11.5232H4.91626C4.30346 11.5232 4.0559 11.7708 4.0559 12.3877C4.05996 12.9273 4.05996 13.4633 4.05996 14.0313ZM17.1561 21.5594H14.0921V11.7789C14.0921 10.3707 14.993 9.29929 16.3769 9.05174C16.5636 9.01927 16.7543 9.00709 16.941 9.00709C17.9744 9.00439 19.0059 9.00529 20.0381 9.00619C20.5544 9.00664 21.0709 9.00709 21.5878 9.00709H21.7907V11.5232H17.9921C17.3996 11.5232 17.1399 11.787 17.1399 12.3755V14.015H20.5286V16.5555H17.1561V21.5594ZM9.79839 21.5513H12.8218V9.01927H9.79839V21.5513ZM18.01 27.512C17.9536 27.7622 18.1438 28 18.4002 28H20.6843C20.8416 28 20.9843 27.9078 21.049 27.7644L22.1889 25.2356C22.2536 25.0922 22.3963 25 22.5536 25H27.4461C27.6034 25 27.7461 25.0922 27.8108 25.2356L28.9507 27.7644C29.0154 27.9078 29.1581 28 29.3154 28H31.5995C31.8559 28 32.0461 27.7622 31.9898 27.512L30.2822 19.9361C30.1588 19.3888 29.6726 19 29.1116 19H20.8881C20.3271 19 19.8409 19.3888 19.7175 19.9361L18.01 27.512ZM21.9574 20.2C21.9574 20.0895 22.047 20 22.1574 20H22.7717C22.8822 20 22.9717 20.0895 22.9717 20.2V21H23.786C23.8964 21 23.986 21.0895 23.986 21.2V21.8C23.986 21.9105 23.8964 22 23.786 22H22.9717V22.8C22.9717 22.9105 22.8822 23 22.7717 23H22.1574C22.047 23 21.9574 22.9105 21.9574 22.8V22H21.1432C21.0327 22 20.9432 21.9105 20.9432 21.8V21.2C20.9432 21.0895 21.0327 21 21.1432 21H21.9574V20.2ZM26.6665 23C27.0266 23 27.3186 22.7122 27.3186 22.3571C27.3186 22.0021 27.0266 21.7143 26.6665 21.7143C26.3064 21.7143 26.0145 22.0021 26.0145 22.3571C26.0145 22.7122 26.3064 23 26.6665 23ZM29.0573 22.3572C29.0573 22.7123 28.7654 23.0001 28.4053 23.0001C28.0452 23.0001 27.7533 22.7123 27.7533 22.3572C27.7533 22.0022 28.0452 21.7144 28.4053 21.7144C28.7654 21.7144 29.0573 22.0022 29.0573 22.3572ZM28.4053 21.2857C28.7654 21.2857 29.0573 20.9979 29.0573 20.6429C29.0573 20.2878 28.7654 20 28.4053 20C28.0452 20 27.7533 20.2878 27.7533 20.6429C27.7533 20.9979 28.0452 21.2857 28.4053 21.2857ZM27.3186 20.6429C27.3186 20.9979 27.0266 21.2857 26.6665 21.2857C26.3064 21.2857 26.0145 20.9979 26.0145 20.6429C26.0145 20.2878 26.3064 20 26.6665 20C27.0266 20 27.3186 20.2878 27.3186 20.6429Z"></path>
</svg>