<svg data-cy="ic-upcoming-title" width="32" height="32" viewBox="0 0 32 32" fill="none" xmlns="http://www.w3.org/2000/svg" style="fill: currentcolor; color: transparent; width: auto; height: 32px;">
<path d="M16 27C9.9 27 5 22.1 5 16C5 9.9 9.9 5 16 5C22.1 5 27 9.9 27 16C27 22.1 22.1 27 16 27ZM16 8C11.6 8 8 11.6 8 16C8 20.4 11.6 24 16 24C20.4 24 24 20.4 24 16C24 11.6 20.4 8 16 8ZM19.7 19.7C20.1 19.3 20.1 18.7 19.7 18.3L17 15.5V12C17 11.4 16.6 11 16 11C15.4 11 15 11.4 15 12V15.9C15 16.2 15.1 16.4 15.3 16.6L18.3 19.7C18.5 19.9 18.8 20 19 20C19.3 20 19.5 19.9 19.7 19.7Z" fill="#21A8F7"></path>
</svg>