<svg xmlns="http://www.w3.org/2000/svg" width="26" height="28" viewBox="0 0 26 28" fill="none">
<path d="M5.59011 7.15817C5.03249 6.59545 4.54429 5.94829 4.14652 5.22288C3.29931 3.6778 2.9803 1.99297 3.12831 0.367449C3.15497 0.0747492 2.81781 -0.119905 2.60751 0.0844961C-0.0952515 2.71137 -0.840768 6.86511 1.05317 10.3191C3.12617 14.0996 7.85487 15.47 11.4756 17.5202C9.61502 19.3523 6.60503 19.7805 4.14332 18.3866C3.1258 17.8104 2.33633 16.999 1.80878 16.069C1.63859 15.769 1.10508 15.8371 1.10152 16.1824C1.10111 16.2225 1.1009 16.2627 1.1009 16.3029C1.1009 22.763 6.44064 28 13.0275 28C19.6144 28 24.9542 22.763 24.9542 16.3029C24.9542 16.2945 24.9542 16.2861 24.9541 16.2777C24.9534 15.9347 24.4302 15.8595 24.2562 16.1547C23.7293 17.0488 22.9574 17.8282 21.9712 18.3866C19.5095 19.7805 16.4995 19.3523 14.639 17.5202C18.2968 15.449 22.8645 14.1166 24.9468 10.3191C26.8408 6.86511 26.0953 2.71137 23.3925 0.0844961C23.1822 -0.119905 22.845 0.0747486 22.8717 0.367448C23.0197 1.99297 22.7007 3.6778 21.8535 5.22288C21.4614 5.93787 20.9815 6.57686 20.4339 7.13389C18.3994 5.55109 15.826 4.60578 13.0275 4.60578C10.2147 4.60578 7.62937 5.56077 5.59011 7.15817Z" fill="url(#paint0_linear_3505_178716)"/>
<defs>
<linearGradient id="paint0_linear_3505_178716" x1="21.9629" y1="22.064" x2="-0.99432" y2="20.6474" gradientUnits="userSpaceOnUse">
<stop stop-color="#D96331"/>
<stop offset="1" stop-color="#E99018"/>
</linearGradient>
</defs>
</svg>