<svg width="58" height="64" viewBox="0 0 58 64" fill="none" xmlns="http://www.w3.org/2000/svg">
<path d="M12.4703 17.1647C11.2263 15.9001 10.1373 14.4458 9.24994 12.8157C7.12268 8.90768 6.48822 4.60176 7.15194 0.535845C7.18192 0.352166 6.96883 0.226573 6.82702 0.347099C-0.0166002 6.1635 -2.10275 16.0887 2.34937 24.2678C6.97376 32.7634 17.5224 35.8428 25.5993 40.45C21.4489 44.5671 14.7343 45.5293 9.24279 42.3969C6.17405 40.6465 4.03517 37.9299 3.01283 34.8948C2.94301 34.6875 2.62678 34.7105 2.60358 34.928C2.50593 35.8436 2.45586 36.7733 2.45586 37.7145C2.45586 52.2316 14.3676 64 29.0614 64C43.7553 64 55.667 52.2316 55.667 37.7145C55.667 36.8741 55.6271 36.0429 55.549 35.2227C55.5284 35.0064 55.2163 34.978 55.1422 35.1822C54.0839 38.1011 51.9843 40.7019 49.0128 42.3969C43.5213 45.5293 36.8067 44.5671 32.6562 40.45C40.816 35.7956 51.0055 32.8016 55.6506 24.2678C60.1027 16.0887 58.0166 6.1635 51.173 0.347099C51.0312 0.226573 50.8181 0.352166 50.8481 0.535845C51.5118 4.60176 50.8773 8.90767 48.7501 12.8157C47.8755 14.4224 46.8049 15.8583 45.5832 17.1101C41.0449 13.5533 35.3043 11.429 29.0614 11.429C22.7867 11.429 17.0194 13.575 12.4703 17.1647Z" fill="#D1D9E6" fill-opacity="0.9"/>
</svg>