<svg width="232" height="173" viewBox="0 0 232 173" fill="none" xmlns="http://www.w3.org/2000/svg">
<path d="M189.741 50C130.055 76.9336 121.878 83.1028 127.25 95.6718C133.883 111.191 72.6006 139.403 26.4071 160.669C16.6766 165.149 7.61566 169.32 0 173H108.986C120.923 163.823 148.916 140.664 160.853 126.299C170.74 114.402 164.04 106.663 157.524 99.1395C154.207 95.3085 150.938 91.5331 149.931 87.2925C148.269 80.2956 163.091 69.7126 175.813 60.6284C181.374 56.6577 186.534 52.9734 189.741 50Z" fill="url(#paint0_linear_601_119212)"/>
<path d="M186.254 60.156C172.396 69.2879 154.578 81.6811 161.178 89.5085C162.375 90.9291 163.951 92.4787 165.646 94.145C171.148 99.556 177.902 106.197 177.016 113.643C174.596 133.974 156.647 150.467 137.405 168.149C135.658 169.755 133.899 171.371 132.141 173H173.056C180.975 155.171 194.701 122.122 191.534 111.686C188.565 101.903 181.988 96.1442 176.581 91.4083C174.777 89.8286 173.103 88.3627 171.736 86.8994C165.247 79.9508 174.858 70.9584 182.05 64.2288C183.635 62.746 185.103 61.373 186.254 60.156Z" fill="url(#paint1_linear_601_119212)"/>
<path d="M168.019 76.7326C165.18 76.5752 165.722 75.5287 164.893 72.768L158.067 44.7962L224.457 10.1874" fill="#D1D6E4"/>
<path d="M167.736 76.7169C169.998 76.8422 171.051 75.9213 172.378 74.8327L185.055 64.4297L170.482 55.0315" fill="#BDC3D3"/>
<path d="M171.069 54.8718L204.972 82.8889C208.882 85.3332 211.857 84.3447 213.128 79.5926L231.264 12.7339C233.064 6.92233 229.488 4.04308 225.532 5.57736L139.247 33.4036C133.352 35.3922 133.208 38.6046 137.811 40.2945L159.117 48.2483L211.061 19.4307C213.51 18.1282 215.642 19.0196 213.769 20.5014" fill="#EEF0F6"/>
<defs>
<linearGradient id="paint0_linear_601_119212" x1="112.941" y1="180.335" x2="191.908" y2="65.1705" gradientUnits="userSpaceOnUse">
<stop stop-color="#EEF0F6"/>
<stop offset="1" stop-color="#EEF0F6" stop-opacity="0"/>
</linearGradient>
<linearGradient id="paint1_linear_601_119212" x1="112.941" y1="180.335" x2="191.908" y2="65.1705" gradientUnits="userSpaceOnUse">
<stop stop-color="#EEF0F6"/>
<stop offset="1" stop-color="#EEF0F6" stop-opacity="0"/>
</linearGradient>
</defs>
</svg>