<svg width="877" height="744" viewBox="0 0 877 744" fill="none" xmlns="http://www.w3.org/2000/svg">
<g filter="url(#filter0_ddd_1227_279475)">
<path fill-rule="evenodd" clip-rule="evenodd" d="M835 202.861C835 298.329 757.545 375.721 662 375.721C566.455 375.721 489 298.329 489 202.861C489 107.392 566.455 30 662 30C757.545 30 835 107.392 835 202.861ZM750 202.861C750 251.423 710.601 290.79 662 290.79C613.399 290.79 574 251.423 574 202.861C574 154.299 613.399 114.932 662 114.932C710.601 114.932 750 154.299 750 202.861ZM289.5 67C296.404 67 302 61.4036 302 54.5C302 47.5964 296.404 42 289.5 42C282.596 42 277 47.5964 277 54.5C277 61.4036 282.596 67 289.5 67ZM420 119.958C420 148.654 396.719 171.916 368 171.916C339.281 171.916 316 148.654 316 119.958C316 91.2624 339.281 68 368 68C396.719 68 420 91.2624 420 119.958ZM185 415C229.183 415 265 379.183 265 335C265 290.817 229.183 255 185 255C140.817 255 105 290.817 105 335C105 379.183 140.817 415 185 415ZM453 702C530.32 702 593 639.32 593 562C593 484.68 530.32 422 453 422C375.68 422 313 484.68 313 562C313 639.32 375.68 702 453 702ZM146 594.958C160.359 594.958 172 583.327 172 568.979C172 554.631 160.359 543 146 543C131.641 543 120 554.631 120 568.979C120 583.327 131.641 594.958 146 594.958ZM84 181C84 195.912 71.9117 208 57 208C42.0883 208 30 195.912 30 181C30 166.088 42.0883 154 57 154C71.9117 154 84 166.088 84 181ZM753.998 577.558C768.357 577.558 779.998 565.927 779.998 551.579C779.998 537.231 768.357 525.6 753.998 525.6C739.639 525.6 727.998 537.231 727.998 551.579C727.998 565.927 739.639 577.558 753.998 577.558ZM256 616.5C256 623.404 250.404 629 243.5 629C236.596 629 231 623.404 231 616.5C231 609.596 236.596 604 243.5 604C250.404 604 256 609.596 256 616.5ZM835 634.5C835 641.404 829.404 647 822.5 647C815.596 647 810 641.404 810 634.5C810 627.596 815.596 622 822.5 622C829.404 622 835 627.596 835 634.5Z" fill="#1a1a1a"/>
</g>
<defs>
<filter id="filter0_ddd_1227_279475" x="0" y="0" width="877" height="744" filterUnits="userSpaceOnUse" color-interpolation-filters="sRGB">
<feFlood flood-opacity="0" result="BackgroundImageFix"/>
<feColorMatrix in="SourceAlpha" type="matrix" values="0 0 0 0 0 0 0 0 0 0 0 0 0 0 0 0 0 0 127 0" result="hardAlpha"/>
<feOffset dx="6" dy="6"/>
<feGaussianBlur stdDeviation="18"/>
<feColorMatrix type="matrix" values="0 0 0 0 0 0 0 0 0 0 0 0 0 0 0 0 0 0 0.23 0"/>
<feBlend mode="normal" in2="BackgroundImageFix" result="effect1_dropShadow_1227_279475"/>
<feColorMatrix in="SourceAlpha" type="matrix" values="0 0 0 0 0 0 0 0 0 0 0 0 0 0 0 0 0 0 127 0" result="hardAlpha"/>
<feOffset dx="-4" dy="-4"/>
<feGaussianBlur stdDeviation="6.5"/>
<feColorMatrix type="matrix" values="0 0 0 0 0.201667 0 0 0 0 0.2134 0 0 0 0 0.275 0 0 0 1 0"/>
<feBlend mode="normal" in2="effect1_dropShadow_1227_279475" result="effect2_dropShadow_1227_279475"/>
<feColorMatrix in="SourceAlpha" type="matrix" values="0 0 0 0 0 0 0 0 0 0 0 0 0 0 0 0 0 0 127 0" result="hardAlpha"/>
<feOffset dx="4" dy="4"/>
<feGaussianBlur stdDeviation="3.5"/>
<feColorMatrix type="matrix" values="0 0 0 0 0 0 0 0 0 0 0 0 0 0 0 0 0 0 0.24 0"/>
<feBlend mode="multiply" in2="effect2_dropShadow_1227_279475" result="effect3_dropShadow_1227_279475"/>
<feBlend mode="normal" in="SourceGraphic" in2="effect3_dropShadow_1227_279475" result="shape"/>
</filter>
</defs>
</svg>