<svg data-cy="ic-top-title" width="32" height="32" viewBox="0 0 32 32" fill="none" xmlns="http://www.w3.org/2000/svg" style="fill: currentcolor; color: inherit; width: auto; height: 32px;">
    <path d="M17.3904 12.1129C18.2326 11.641 18.8 10.7537 18.8 9.73684C18.8 8.22533 17.5463 7 16 7C14.4536 7 13.2 8.22533 13.2 9.73684C13.2 10.7538 13.7674 11.6411 14.6096 12.113L11.8154 15.8305C11.4608 16.3023 10.7769 16.3659 10.3413 15.9678L5.70191 11.7269C6.07692 11.3481 6.30769 10.832 6.30769 10.2632C6.30769 9.10049 5.34338 8.15793 4.15385 8.15793C2.96431 8.15793 2 9.10049 2 10.2632C2 11.4259 2.96431 12.3685 4.15385 12.3685C4.19006 12.3685 4.22607 12.3676 4.26185 12.3659L5.16 24.0765C5.19996 24.5976 5.63445 25 6.15707 25H25.8397C26.3637 25 26.7989 24.5955 26.837 24.0729L27.6927 12.3632C27.7434 12.3667 27.7945 12.3685 27.8461 12.3685C29.0356 12.3685 30 11.4259 30 10.2632C30 9.10049 29.0356 8.15793 27.8461 8.15793C26.6566 8.15793 25.6923 9.10049 25.6923 10.2632C25.6923 10.8221 25.9151 11.3301 26.2786 11.707L21.6591 15.9619C21.2239 16.3627 20.5377 16.3001 20.1822 15.8272L17.3904 12.1129Z" fill="#F5A623"/>
</svg>