<svg width="474" height="496" viewBox="0 0 474 496" fill="none" xmlns="http://www.w3.org/2000/svg">
<path fill-rule="evenodd" clip-rule="evenodd" d="M247.658 288.5L229.498 278.999L211.03 328.833C205.774 344.427 207.473 362.951 208.979 370.263C203.796 365.463 198.962 361.493 194.709 358.297L183.789 387.747C203.73 396.895 213.184 402.205 226.322 412.131C230.834 415.297 241.489 406.771 239.779 401.531C239.351 399.799 238.933 398.143 238.523 396.525C235.695 385.346 233.322 375.965 231.707 355.585C229.55 328.374 238.869 303.929 247.658 288.5Z" fill="url(#paint0_radial_3294_256446)"/>
<path fill-rule="evenodd" clip-rule="evenodd" d="M247.944 287.999L216.364 272.499C222.458 291.362 219.935 316.446 211.03 328.833C205.774 344.427 207.473 362.95 208.979 370.263C203.796 365.462 198.962 361.492 194.709 358.297C187.492 352.876 181.944 349.685 179.193 348.451C180.152 341.275 176.848 335.866 165.182 321.435C155.85 309.89 162.367 296.199 166.793 290.797C149.599 292.867 146.667 307.966 147.598 318.687C144.319 317.327 140.905 315.723 137.394 314.073C124.023 307.789 109.236 300.84 95.0358 304.178C93.9974 304.454 93.3336 306.723 94.4573 307.135C112.968 314.052 123.47 323.949 127.815 328.044C128.405 328.6 128.882 329.049 129.25 329.369C128.154 331.426 127.064 334.148 126.182 336.348C125.918 337.006 125.673 337.617 125.453 338.15C123.932 341.821 122.493 346.159 121.92 348.983C120.077 358.058 120.614 362.681 124.121 365.568C138.696 369.023 152.976 373.733 183.185 387.471C183.386 387.563 183.588 387.655 183.789 387.747C198.863 394.662 213.444 403.504 225.217 411.673C231.939 415.755 241.023 406.164 239.629 401.026C236.181 388.322 233.07 372.777 231.707 355.584C229.527 328.078 239.073 303.398 247.944 287.999Z" fill="url(#paint1_radial_3294_256446)"/>
<path opacity="0.2" d="M183.184 387.472C152.976 373.734 138.696 369.024 124.121 365.569C121.609 363.502 120.621 360.543 120.94 355.697C121.066 353.777 121.397 351.56 121.92 348.984C122.184 347.684 122.632 346.062 123.187 344.332C123.836 342.306 124.632 340.132 125.453 338.152C125.894 337.086 126.431 335.709 127.022 334.272C127.715 332.584 128.481 330.813 129.25 329.37L133.037 332.725C133.661 335 134.329 339.309 132.001 338.344C129.674 337.378 127.712 335.227 127.022 334.272C126.431 335.709 125.894 337.086 125.453 338.152C125.774 340.874 127.525 342.894 129.505 344.363C131.034 350.822 126.11 349.428 123.187 344.332C122.632 346.062 122.184 347.684 121.92 348.984C122.069 352.93 124.099 354.278 126.169 355.53C139.147 360.912 177.299 371.027 205.484 388.42C215.991 394.903 223.348 400.299 228.841 406.057C230.575 407.875 233.38 411.499 231.427 412.308C228.302 413.601 225.605 411.93 225.217 411.674C212.003 402.959 205.51 398.325 183.789 387.748C183.588 387.656 183.386 387.564 183.184 387.472Z" fill="url(#paint2_linear_3294_256446)"/>
<path d="M214.742 375.816C212.782 373.854 210.856 372.004 208.977 370.263C203.794 365.462 198.96 361.492 194.707 358.297C187.49 352.876 181.942 349.685 179.191 348.451C178.305 351.975 176.709 356.169 176.022 357.826C183.157 361.432 201.626 371.938 218.426 385.118C218.791 383.562 218.565 379.522 214.742 375.816Z" fill="url(#paint3_radial_3294_256446)" fill-opacity="0.2"/>
<path d="M210.842 322.497C210.357 325.228 209.943 327.866 209.593 330.404C208.626 337.402 207.768 342.735 207.585 348.052C206.777 359.367 208.623 367.761 209.188 370.723C212.584 369.431 216.969 364.57 216.623 362.156C215.492 354.242 215.177 335.47 216.357 314.149C214.872 314.742 211.691 317.241 210.842 322.497Z" fill="url(#paint4_radial_3294_256446)" fill-opacity="0.2"/>
<path opacity="0.6" d="M166.79 290.797C162.365 296.2 155.847 309.89 165.18 321.435C176.846 335.866 180.15 341.276 179.191 348.452C171.545 343.975 165.044 341.451 155.036 335.075C152.577 333.509 149.906 331.71 146.954 329.592C131.989 318.856 104.55 302.3 95.0337 304.179C112.963 299.963 131.828 312.149 147.596 318.688C147.925 322.471 149.783 326.333 146.954 329.592C149.906 331.71 152.577 333.509 155.036 335.075C155.184 326.913 145.116 303.588 155.336 295.33C158.159 293.031 161.897 291.387 166.79 290.797Z" fill="url(#paint5_linear_3294_256446)"/>
<path d="M185.505 122.945L157.139 157.203C107.596 107.684 149.344 42.1517 209.469 55.492C210.956 55.8219 210.634 58.1392 209.12 58.3023C177.108 61.7501 169.311 94.8663 185.505 122.945Z" fill="url(#paint6_linear_3294_256446)"/>
<g opacity="0.4">
<path d="M135.423 104.049C142.589 73.7808 172.49 51.2856 209.808 56.5969C209.676 56.4979 209.515 56.423 209.324 56.3807C170.337 47.7304 139.077 72.243 135.423 104.049Z" fill="url(#paint7_linear_3294_256446)"/>
<path d="M183.926 121.214C184.279 122.209 184.657 123.203 185.061 124.196L185.36 123.834C184.859 122.965 184.381 122.091 183.926 121.214Z" fill="url(#paint8_linear_3294_256446)"/>
</g>
<path opacity="0.3" d="M186.674 150.917C135.852 129.843 142.344 70.5777 187.163 55.6651C187.056 55.6603 186.943 55.6694 186.825 55.6947C126.601 68.5797 115.903 145.54 181.558 169.956L186.674 150.917Z" fill="url(#paint9_linear_3294_256446)"/>
<path opacity="0.4" d="M157.104 140.137C161.874 134.425 174.125 123.455 186.468 123.119L184.53 120.178C172.906 120.855 163.079 131.546 157.104 140.137Z" fill="url(#paint10_linear_3294_256446)"/>
<path opacity="0.4" d="M152.023 131.704C157.222 126.381 170.289 116.396 182.621 117.02L180.918 113.938C169.276 113.709 158.648 123.604 152.023 131.704Z" fill="url(#paint11_linear_3294_256446)"/>
<path opacity="0.4" d="M148.209 122.082C153.979 117.383 168.096 108.948 180.277 110.968L178.935 107.712C167.395 106.163 155.711 114.787 148.209 122.082Z" fill="url(#paint12_linear_3294_256446)"/>
<path opacity="0.4" d="M145.748 109.037C151.991 105.576 166.746 99.9984 177.906 103.966L177.189 100.665C166.555 97.2506 154.065 103.418 145.748 109.037Z" fill="url(#paint13_linear_3294_256446)"/>
<path opacity="0.4" d="M144.304 97.8843C150.965 95.3196 166.349 91.8342 176.854 97.3059L176.6 93.9372C166.54 89.0863 153.318 93.4683 144.304 97.8843Z" fill="url(#paint14_linear_3294_256446)"/>
<path opacity="0.4" d="M148.58 85.6298C154.718 84.4194 168.527 83.7291 176.772 90.0372L177.061 87.0903C169.105 81.3852 157.029 83.1756 148.58 85.6298Z" fill="url(#paint15_linear_3294_256446)"/>
<path opacity="0.4" d="M158.571 77.9142C163.007 77.7381 172.765 78.7672 177.855 84.0935L178.38 82.059C173.428 77.1871 164.764 77.1192 158.571 77.9142Z" fill="url(#paint16_linear_3294_256446)"/>
<path opacity="0.4" d="M163.19 67.198C167.471 68.3735 176.459 72.3091 179.697 78.9267L180.814 77.1469C177.569 71.0039 169.333 68.3156 163.19 67.198Z" fill="url(#paint17_linear_3294_256446)"/>
<path d="M332.943 218.984L310.701 257.5C374.368 286.71 421.271 224.763 387.838 173.041C387.011 171.762 384.951 172.87 385.325 174.346C393.235 205.556 364.903 224.392 332.943 218.984Z" fill="url(#paint18_linear_3294_256446)"/>
<path opacity="0.3" d="M321.247 240.73C372.07 261.804 409.422 215.336 388.308 173.083C388.387 173.155 388.46 173.242 388.525 173.343C421.959 225.065 375.055 287.012 311.388 257.802L321.247 240.73Z" fill="url(#paint19_linear_3294_256446)"/>
<path opacity="0.4" d="M342.701 254C344.936 246.903 347.561 230.669 341.185 220.095L344.706 220.139C350.408 230.292 346.709 244.334 342.701 254Z" fill="url(#paint20_linear_3294_256446)"/>
<path opacity="0.4" d="M352.545 253.729C354.222 246.479 355.577 230.09 348.397 220.044L351.912 219.815C358.386 229.493 355.79 243.78 352.545 253.729Z" fill="url(#paint21_linear_3294_256446)"/>
<path opacity="0.4" d="M362.703 251.745C363.545 244.352 363.03 227.916 354.756 218.75L358.221 218.123C365.753 227.003 364.797 241.493 362.703 251.745Z" fill="url(#paint22_linear_3294_256446)"/>
<path opacity="0.4" d="M375.011 246.777C374.556 239.654 371.291 224.222 361.929 216.967L365.095 215.789C373.707 222.9 375.255 236.743 375.011 246.777Z" fill="url(#paint23_linear_3294_256446)"/>
<path opacity="0.4" d="M385.183 241.974C383.748 234.983 378.381 220.15 368.106 214.258L371.079 212.654C380.592 218.507 384.037 232.003 385.183 241.974Z" fill="url(#paint24_linear_3294_256446)"/>
<path opacity="0.4" d="M393.193 231.765C390.901 225.945 384.031 213.946 374.271 210.408L376.596 208.575C385.692 212.194 390.701 223.328 393.193 231.765Z" fill="url(#paint25_linear_3294_256446)"/>
<path opacity="0.4" d="M394.295 219.188C392.05 215.358 385.918 207.699 378.688 206.287L380.117 204.747C386.891 206.288 391.623 213.546 394.295 219.188Z" fill="url(#paint26_linear_3294_256446)"/>
<path opacity="0.4" d="M400.827 209.519C397.528 206.549 389.364 201.105 382.046 201.95L382.941 200.049C389.864 199.467 396.572 204.95 400.827 209.519Z" fill="url(#paint27_linear_3294_256446)"/>
<g opacity="0.4">
<path d="M390.739 185.42C385.362 207.824 363.455 224.601 336.283 220.866C336.379 220.938 336.496 220.993 336.635 221.023C365.006 227.217 387.914 208.943 390.739 185.42Z" fill="url(#paint28_linear_3294_256446)"/>
<path d="M355.476 172.982C355.224 172.248 354.954 171.515 354.664 170.784L354.444 171.053C354.805 171.692 355.149 172.336 355.476 172.982Z" fill="url(#paint29_linear_3294_256446)"/>
</g>
<path d="M180.127 117.957C153.07 140.189 142.229 163.671 131.832 197.817C131.344 199.419 131.661 201.17 132.692 202.49C170.463 250.885 222.621 279.379 277.82 300.858C279.172 301.383 280.684 301.331 281.963 300.647C307.21 287.146 327.143 253.1 338.965 225.875C339.636 224.332 339.495 222.545 338.606 221.117C300.308 159.655 248.36 136.487 184.898 117.031C183.255 116.528 181.454 116.866 180.127 117.957Z" fill="url(#paint30_radial_3294_256446)"/>
<path d="M180.127 117.957C153.07 140.189 142.229 163.671 131.832 197.817C131.344 199.419 131.661 201.17 132.692 202.49C170.463 250.885 222.621 279.379 277.82 300.858C279.172 301.383 280.684 301.331 281.963 300.647C307.21 287.146 327.143 253.1 338.965 225.875C339.636 224.332 339.495 222.545 338.606 221.117C300.308 159.655 248.36 136.487 184.898 117.031C183.255 116.528 181.454 116.866 180.127 117.957Z" fill="url(#paint31_radial_3294_256446)"/>
<path opacity="0.1" d="M337.137 217.518C285.975 324.456 200.553 266.671 132.134 199.098C131.91 200.51 132.274 201.969 133.166 203.102C171.072 251.234 222.605 279.641 277.764 300.65C279.115 301.164 280.623 301.098 281.895 300.401C307.012 286.645 327.357 252.015 339.018 224.634C339.679 223.083 339.53 221.294 338.636 219.872C338.139 219.081 337.639 218.296 337.137 217.518Z" fill="url(#paint32_linear_3294_256446)"/>
<path d="M229.089 249.089C223.172 252.095 219.58 249.071 217.78 245.424" stroke="#4A1818" stroke-width="2" stroke-linecap="round"/>
<g filter="url(#filter0_d_3294_256446)">
<path d="M166.944 130.764C169.038 128.803 177.12 120.251 179.448 118.313C180.765 117.217 182.561 116.868 184.205 117.359C247.723 136.358 299.754 160.24 338.459 221.303C339.358 222.722 339.511 224.503 338.854 226.047C338.202 227.577 326.107 251.214 325.405 252.783C313.606 210.998 281.966 184.285 232.703 188.028C226.935 205.197 210.452 226.297 193.076 228.977C186.461 214.231 202.481 189.934 216.189 177.486C214.076 152.897 195.461 132.233 166.944 130.764Z" fill="url(#paint33_radial_3294_256446)"/>
</g>
<path opacity="0.6" d="M192.956 119.542C260.832 143.158 305.944 167.043 339.335 222.312C304.309 178.788 251.402 169.021 229.792 185.658C228.908 194.539 210.931 218.654 196.063 222.448C192.581 208.91 202.039 187.386 216.559 177.325C221.09 166.399 217.081 134.724 192.956 119.542Z" fill="url(#paint34_linear_3294_256446)"/>
<path d="M180.101 126.98C189.226 127.447 196.481 132.243 200.868 136.629" stroke="#4A1818" stroke-width="3" stroke-linecap="round"/>
<path d="M289.455 196.705C298.35 198.796 304.63 204.811 308.163 209.911" stroke="#4A1818" stroke-width="3" stroke-linecap="round"/>
<path opacity="0.6" d="M217.697 177.441C201.256 187.709 197.901 201.18 195.847 213.298C202.313 199.147 208.103 186.659 217.697 177.441Z" fill="url(#paint35_linear_3294_256446)"/>
<circle cx="160.124" cy="159.032" r="3.74328" transform="rotate(23.5374 160.124 159.032)" fill="#4A1818"/>
<circle cx="250.64" cy="218.575" r="3.74328" transform="rotate(23.5374 250.64 218.575)" fill="#4A1818"/>
<rect x="176.922" y="312.822" width="9.38869" height="8.2151" rx="4.10755" transform="rotate(22.5224 176.922 312.822)" fill="#C36019"/>
<rect x="177.559" y="314.355" width="4.69434" height="4.69434" rx="2" transform="rotate(22.5224 177.559 314.355)" fill="#B35410"/>
<path d="M275.254 255.175C259.981 261.494 242.478 254.236 236.159 238.964C229.84 223.691 237.098 206.188 252.371 199.869C257.407 197.785 262.687 197.178 267.728 197.848C277.971 199.209 287.23 205.845 291.465 216.081C293.092 220.013 293.819 224.094 293.741 228.094C293.514 239.626 286.593 250.483 275.254 255.175Z" fill="url(#paint36_radial_3294_256446)"/>
<path d="M186.331 188.722C174.243 197.99 156.931 195.704 147.664 183.616C138.396 171.528 140.682 154.216 152.77 144.949C156.756 141.892 161.311 140.092 165.958 139.486C175.401 138.255 185.226 141.953 191.437 150.055C193.823 153.167 195.444 156.627 196.328 160.206C198.877 170.525 195.306 181.841 186.331 188.722Z" fill="url(#paint37_radial_3294_256446)"/>
<circle cx="264.408" cy="225.337" r="4.5103" transform="rotate(23.5374 264.408 225.337)" fill="#4A1818"/>
<circle cx="171.467" cy="165.471" r="4.15655" transform="rotate(23.5374 171.467 165.471)" fill="#4A1818"/>
<defs>
<filter id="filter0_d_3294_256446" x="160.943" y="115.141" width="184.314" height="147.643" filterUnits="userSpaceOnUse" color-interpolation-filters="sRGB">
<feFlood flood-opacity="0" result="BackgroundImageFix"/>
<feColorMatrix in="SourceAlpha" type="matrix" values="0 0 0 0 0 0 0 0 0 0 0 0 0 0 0 0 0 0 127 0" result="hardAlpha"/>
<feOffset dy="4"/>
<feGaussianBlur stdDeviation="3"/>
<feComposite in2="hardAlpha" operator="out"/>
<feColorMatrix type="matrix" values="0 0 0 0 0 0 0 0 0 0 0 0 0 0 0 0 0 0 0.12 0"/>
<feBlend mode="normal" in2="BackgroundImageFix" result="effect1_dropShadow_3294_256446"/>
<feBlend mode="normal" in="SourceGraphic" in2="effect1_dropShadow_3294_256446" result="shape"/>
</filter>
<radialGradient id="paint0_radial_3294_256446" cx="0" cy="0" r="1" gradientUnits="userSpaceOnUse" gradientTransform="translate(155.557 329.923) rotate(104.555) scale(267.441 231.3)">
<stop offset="0.220933" stop-color="#CA651C"/>
<stop offset="1" stop-color="#A44F12"/>
</radialGradient>
<radialGradient id="paint1_radial_3294_256446" cx="0" cy="0" r="1" gradientUnits="userSpaceOnUse" gradientTransform="translate(155.557 329.922) rotate(104.555) scale(267.441 231.3)">
<stop offset="0.220933" stop-color="#CA651C"/>
<stop offset="1" stop-color="#A44F12"/>
</radialGradient>
<linearGradient id="paint2_linear_3294_256446" x1="174.382" y1="348.524" x2="177.492" y2="392.532" gradientUnits="userSpaceOnUse">
<stop stop-color="#30384C"/>
<stop offset="1" stop-color="#3E1508"/>
</linearGradient>
<radialGradient id="paint3_radial_3294_256446" cx="0" cy="0" r="1" gradientUnits="userSpaceOnUse" gradientTransform="translate(189.951 327.357) rotate(89.9891) scale(60.8455 52.6231)">
<stop stop-color="white"/>
<stop offset="1" stop-color="white" stop-opacity="0"/>
</radialGradient>
<radialGradient id="paint4_radial_3294_256446" cx="0" cy="0" r="1" gradientUnits="userSpaceOnUse" gradientTransform="translate(185.322 370.576) rotate(-34.9578) scale(60.8455 52.6231)">
<stop stop-color="white"/>
<stop offset="1" stop-color="white" stop-opacity="0"/>
</radialGradient>
<linearGradient id="paint5_linear_3294_256446" x1="142.537" y1="274.687" x2="142.737" y2="338.2" gradientUnits="userSpaceOnUse">
<stop stop-color="white"/>
<stop offset="1" stop-color="white" stop-opacity="0"/>
</linearGradient>
<linearGradient id="paint6_linear_3294_256446" x1="192.806" y1="70.8718" x2="118.731" y2="109.849" gradientUnits="userSpaceOnUse">
<stop stop-color="#9C3C1D"/>
<stop offset="1" stop-color="#3E1508"/>
</linearGradient>
<linearGradient id="paint7_linear_3294_256446" x1="194.57" y1="39.6195" x2="160.678" y2="107.693" gradientUnits="userSpaceOnUse">
<stop stop-color="white"/>
<stop offset="1" stop-color="white" stop-opacity="0"/>
</linearGradient>
<linearGradient id="paint8_linear_3294_256446" x1="194.57" y1="39.6195" x2="160.678" y2="107.693" gradientUnits="userSpaceOnUse">
<stop stop-color="white"/>
<stop offset="1" stop-color="white" stop-opacity="0"/>
</linearGradient>
<linearGradient id="paint9_linear_3294_256446" x1="182.531" y1="75.5628" x2="132.172" y2="147.144" gradientUnits="userSpaceOnUse">
<stop stop-color="#30384C"/>
<stop offset="1" stop-color="#3E1508"/>
</linearGradient>
<linearGradient id="paint10_linear_3294_256446" x1="227.035" y1="89.9941" x2="161.026" y2="143.661" gradientUnits="userSpaceOnUse">
<stop/>
<stop offset="1" stop-opacity="0"/>
</linearGradient>
<linearGradient id="paint11_linear_3294_256446" x1="225.641" y1="87.1499" x2="155.659" y2="135.522" gradientUnits="userSpaceOnUse">
<stop/>
<stop offset="1" stop-opacity="0"/>
</linearGradient>
<linearGradient id="paint12_linear_3294_256446" x1="226.411" y1="86.1777" x2="151.388" y2="126.289" gradientUnits="userSpaceOnUse">
<stop/>
<stop offset="1" stop-opacity="0"/>
</linearGradient>
<linearGradient id="paint13_linear_3294_256446" x1="225.657" y1="88.3595" x2="148.038" y2="113.546" gradientUnits="userSpaceOnUse">
<stop/>
<stop offset="1" stop-opacity="0"/>
</linearGradient>
<linearGradient id="paint14_linear_3294_256446" x1="226.304" y1="88.4475" x2="145.949" y2="102.667" gradientUnits="userSpaceOnUse">
<stop/>
<stop offset="1" stop-opacity="0"/>
</linearGradient>
<linearGradient id="paint15_linear_3294_256446" x1="220.805" y1="89.8431" x2="149.279" y2="90.0074" gradientUnits="userSpaceOnUse">
<stop/>
<stop offset="1" stop-opacity="0"/>
</linearGradient>
<linearGradient id="paint16_linear_3294_256446" x1="208.749" y1="88.7823" x2="158.582" y2="81.0601" gradientUnits="userSpaceOnUse">
<stop/>
<stop offset="1" stop-opacity="0"/>
</linearGradient>
<linearGradient id="paint17_linear_3294_256446" x1="207.721" y1="92.7508" x2="162.248" y2="70.1994" gradientUnits="userSpaceOnUse">
<stop/>
<stop offset="1" stop-opacity="0"/>
</linearGradient>
<linearGradient id="paint18_linear_3294_256446" x1="397.374" y1="204.151" x2="316.256" y2="230.166" gradientUnits="userSpaceOnUse">
<stop stop-color="#9C3C1D"/>
<stop offset="1" stop-color="#3E1508"/>
</linearGradient>
<linearGradient id="paint19_linear_3294_256446" x1="377.5" y1="190.42" x2="362.426" y2="276.633" gradientUnits="userSpaceOnUse">
<stop stop-color="#30384C"/>
<stop offset="1" stop-color="#3E1508"/>
</linearGradient>
<linearGradient id="paint20_linear_3294_256446" x1="347.183" y1="168.067" x2="337.618" y2="252.6" gradientUnits="userSpaceOnUse">
<stop/>
<stop offset="1" stop-opacity="0"/>
</linearGradient>
<linearGradient id="paint21_linear_3294_256446" x1="350.333" y1="167.707" x2="347.368" y2="252.728" gradientUnits="userSpaceOnUse">
<stop/>
<stop offset="1" stop-opacity="0"/>
</linearGradient>
<linearGradient id="paint22_linear_3294_256446" x1="350.734" y1="166.532" x2="357.446" y2="251.339" gradientUnits="userSpaceOnUse">
<stop/>
<stop offset="1" stop-opacity="0"/>
</linearGradient>
<linearGradient id="paint23_linear_3294_256446" x1="349.302" y1="168.343" x2="369.979" y2="247.283" gradientUnits="userSpaceOnUse">
<stop/>
<stop offset="1" stop-opacity="0"/>
</linearGradient>
<linearGradient id="paint24_linear_3294_256446" x1="348.881" y1="167.845" x2="380.268" y2="243.171" gradientUnits="userSpaceOnUse">
<stop/>
<stop offset="1" stop-opacity="0"/>
</linearGradient>
<linearGradient id="paint25_linear_3294_256446" x1="350.674" y1="173.231" x2="389.131" y2="233.539" gradientUnits="userSpaceOnUse">
<stop/>
<stop offset="1" stop-opacity="0"/>
</linearGradient>
<linearGradient id="paint26_linear_3294_256446" x1="358.07" y1="182.807" x2="391.641" y2="220.877" gradientUnits="userSpaceOnUse">
<stop/>
<stop offset="1" stop-opacity="0"/>
</linearGradient>
<linearGradient id="paint27_linear_3294_256446" x1="355.285" y1="185.815" x2="398.809" y2="211.932" gradientUnits="userSpaceOnUse">
<stop/>
<stop offset="1" stop-opacity="0"/>
</linearGradient>
<linearGradient id="paint28_linear_3294_256446" x1="347.303" y1="233.334" x2="372.487" y2="182.923" gradientUnits="userSpaceOnUse">
<stop stop-color="white"/>
<stop offset="1" stop-color="white" stop-opacity="0"/>
</linearGradient>
<linearGradient id="paint29_linear_3294_256446" x1="347.303" y1="233.334" x2="372.487" y2="182.923" gradientUnits="userSpaceOnUse">
<stop stop-color="white"/>
<stop offset="1" stop-color="white" stop-opacity="0"/>
</linearGradient>
<radialGradient id="paint30_radial_3294_256446" cx="0" cy="0" r="1" gradientUnits="userSpaceOnUse" gradientTransform="translate(245.999 173.713) rotate(110.56) scale(107.347 157.025)">
<stop stop-color="#E07528"/>
<stop offset="0.427083" stop-color="#DD7326"/>
<stop offset="1" stop-color="#AA4E0B"/>
</radialGradient>
<radialGradient id="paint31_radial_3294_256446" cx="0" cy="0" r="1" gradientUnits="userSpaceOnUse" gradientTransform="translate(245.999 173.713) rotate(110.56) scale(107.347 157.025)">
<stop stop-color="#E07528"/>
<stop offset="0.427083" stop-color="#DD7326"/>
<stop offset="1" stop-color="#AA4E0B"/>
</radialGradient>
<linearGradient id="paint32_linear_3294_256446" x1="245.753" y1="199.714" x2="219.512" y2="277.805" gradientUnits="userSpaceOnUse">
<stop stop-color="#30384C"/>
<stop offset="1" stop-color="#3E1508"/>
</linearGradient>
<radialGradient id="paint33_radial_3294_256446" cx="0" cy="0" r="1" gradientUnits="userSpaceOnUse" gradientTransform="translate(245.853 173.593) rotate(110.161) scale(107.056 156.529)">
<stop stop-color="#E07528"/>
<stop offset="0.427083" stop-color="#DD7326"/>
<stop offset="1" stop-color="#AA4E0B"/>
</radialGradient>
<linearGradient id="paint34_linear_3294_256446" x1="142.994" y1="256.944" x2="265.836" y2="144.509" gradientUnits="userSpaceOnUse">
<stop stop-color="white"/>
<stop offset="1" stop-color="white" stop-opacity="0"/>
</linearGradient>
<linearGradient id="paint35_linear_3294_256446" x1="229.209" y1="149.594" x2="197.544" y2="213.801" gradientUnits="userSpaceOnUse">
<stop stop-color="white"/>
<stop offset="1" stop-color="white" stop-opacity="0"/>
</linearGradient>
<radialGradient id="paint36_radial_3294_256446" cx="0" cy="0" r="1" gradientUnits="userSpaceOnUse" gradientTransform="translate(265.386 219.584) rotate(115.012) scale(60.8959)">
<stop stop-color="#EEF0F5"/>
<stop offset="0.313344" stop-color="#DBDEE4"/>
<stop offset="0.893294" stop-color="#30384C"/>
</radialGradient>
<radialGradient id="paint37_radial_3294_256446" cx="0" cy="0" r="1" gradientUnits="userSpaceOnUse" gradientTransform="translate(169.058 159.394) rotate(100.012) scale(56.1198)">
<stop stop-color="#EEF0F5"/>
<stop offset="0.313344" stop-color="#DBDEE4"/>
<stop offset="0.893294" stop-color="#30384C"/>
</radialGradient>
</defs>
</svg>