<svg width="414" height="405" viewBox="0 0 414 405" fill="none" xmlns="http://www.w3.org/2000/svg">
<path d="M339.07 103.969C357.083 133.397 374.017 145.668 393.028 156.327C371.57 175.591 354.777 163.509 350.31 159.999C344.982 174.685 326.664 179.364 310.106 173.356C324.801 154.654 335.802 130.704 336.171 104.782C336.193 103.293 338.292 102.699 339.07 103.969Z" fill="url(#paint0_linear_3294_256380)"/>
<path d="M311.074 173.319C325.48 172.976 343.531 161.695 346.926 147.422C355.981 156.6 369.58 155.702 381.442 155.566C359.388 145.671 344.333 121.198 338.06 103.785C337.368 103.912 336.746 104.456 336.735 105.263C336.369 130.946 325.566 154.694 311.074 173.319Z" fill="url(#paint1_linear_3294_256380)"/>
<path d="M144.544 114.204L125.823 120.478C127.624 209.286 192.73 308.784 295.572 269.046C300.089 266.976 304.55 264.539 308.924 261.778C366.441 228.154 358.016 164.121 346.614 136.308C351.124 192.547 342.835 228.161 301.875 250.441C236.624 282.929 154.003 242.823 144.544 114.204Z" fill="url(#paint2_radial_3294_256380)"/>
<path opacity="0.2" d="M295.572 269.046C192.73 308.784 127.624 209.286 125.823 120.478L130.534 118.899C150.059 287.212 255.213 288.049 307.317 259.17C358.115 231.015 359.198 169.939 347.537 138.66C347.232 137.85 346.924 137.066 346.614 136.308C346.929 137.072 347.238 137.856 347.537 138.66C358.426 167.586 364.875 229.069 308.924 261.778C304.55 264.539 300.089 266.976 295.572 269.046Z" fill="#30384C"/>
<path d="M301.874 250.44C236.623 282.928 154.002 242.821 144.543 114.202L139.554 115.874C152.352 273.873 261.773 279.765 304.5 253.47C345.343 228.336 353.456 197.847 346.612 136.307C351.123 192.546 342.834 228.16 301.874 250.44Z" fill="white" fill-opacity="0.2"/>
<path fill-rule="evenodd" clip-rule="evenodd" d="M82.4 131.107C58.3059 179.553 71.0884 204.918 85.3993 226.595C77.784 258.94 62.064 280.787 52.8608 276.97C36.5731 270.216 12.9753 270.14 0.410985 282.236L17.5316 289.335C22.2425 283.691 34.6823 278.663 52.356 285.992C40.6777 282.938 31.4427 284.917 22.502 291.396L67.6024 310.098C67.6024 310.098 72.2072 310.314 77.7952 306.224C82.9886 302.422 89.0312 294.901 93.0157 280.029C100.108 253.557 111.868 241.245 126.404 240.241C157.826 249.246 170.665 235.809 180.5 219.499C187.042 208.65 191.5 197.999 195.79 187.746C215.731 196.894 225.185 202.203 238.322 212.13C242.835 215.296 253.49 206.769 251.78 201.529C251.352 199.797 250.933 198.142 250.524 196.524C247.696 185.345 245.323 175.963 243.708 155.583C240.795 118.828 258.818 87.12 268.194 75.8601L217.849 54.9836C180.68 61.114 104.665 86.3388 82.4 131.107ZM220.98 170.262C219.473 162.949 217.775 144.426 223.031 128.832C217.771 136.82 212.026 146.655 206.709 158.296C210.963 161.491 215.797 165.461 220.98 170.262Z" fill="url(#paint3_radial_3294_256380)"/>
<mask id="mask0_3294_256380" style="mask-type:alpha" maskUnits="userSpaceOnUse" x="0" y="54" width="269" height="256">
<path fill-rule="evenodd" clip-rule="evenodd" d="M82.568 130.699C58.4739 179.145 71.2564 204.51 85.5673 226.187C77.952 258.531 62.232 280.378 53.0287 276.562C36.741 269.808 13.1433 269.731 0.578954 281.827L17.6995 288.927C22.4104 283.283 34.8502 278.255 52.524 285.584C40.8457 282.529 31.6106 284.509 22.67 290.988L67.7703 309.69C67.7703 309.69 72.3752 309.906 77.9632 305.816C83.1566 302.014 89.1992 294.493 93.1837 279.621C100.276 253.148 112.036 240.837 126.572 239.833C142.178 245.27 170.416 246.388 185.767 221.11C188.818 207.689 192.348 195.883 195.741 187.7C208.863 193.72 226.132 203.297 237.709 212.045C240.888 214.447 253.586 208.104 251.781 201.53C247.849 187.602 245.725 178.504 243.876 155.175C240.963 118.42 258.986 86.7118 268.362 75.4519L218.017 54.5754C180.848 60.7057 104.833 85.9306 82.568 130.699ZM223.199 128.424C217.943 144.017 219.641 162.541 221.148 169.853C215.965 165.053 211.131 161.083 206.877 157.888C212.194 146.247 217.939 136.412 223.199 128.424Z" fill="url(#paint4_radial_3294_256380)"/>
</mask>
<g mask="url(#mask0_3294_256380)">
<ellipse opacity="0.3" cx="152.396" cy="118.501" rx="46.9032" ry="65.7948" transform="rotate(55.063 152.396 118.501)" fill="url(#paint5_radial_3294_256380)"/>
</g>
<path d="M126.405 240.242C111.869 241.246 100.11 253.557 93.0171 280.03C89.0326 294.902 82.99 302.423 77.7966 306.225C72.2086 310.315 67.6038 310.098 67.6038 310.098L22.5034 291.397C31.4441 284.918 40.6791 282.938 52.3574 285.993C34.6837 278.664 22.2439 283.692 17.533 289.336L0.412388 282.236C12.9767 270.14 36.5745 270.217 52.8622 276.971C62.0654 280.787 77.7854 258.94 85.4007 226.596C74.8837 210.665 65.1922 192.743 70.3556 165.133C67.219 182.266 84.1612 204.692 110.434 213.056C110.954 220.126 114.876 235.461 126.405 240.242Z" fill="url(#paint6_radial_3294_256380)"/>
<path d="M0.410172 282.237L17.5307 289.336C22.2417 283.692 34.6815 278.664 52.3552 285.993C40.6769 282.939 31.4419 284.918 22.5012 291.397L67.6016 310.099C67.6016 310.099 72.2064 310.315 77.7944 306.225C74.5789 296.791 62.8001 281.093 52.86 276.971C36.5723 270.217 12.9745 270.141 0.410172 282.237Z" fill="url(#paint7_radial_3294_256380)"/>
<path opacity="0.4" d="M7.57566 284.728C18.4877 276.953 31.1217 274.831 46.7071 277.049C46.5633 276.942 46.3885 276.86 46.1815 276.814C29.2481 273.057 15.7519 274.281 3.63979 283.096L7.57566 284.728Z" fill="url(#paint8_linear_3294_256380)"/>
<path opacity="0.4" d="M101.229 216.517L90.184 211.937C97.9899 224.249 109.72 231.941 124.537 236.791L128.541 238.062C115.798 232.891 108.539 227.795 101.229 216.517Z" fill="url(#paint9_linear_3294_256380)"/>
<defs>
<linearGradient id="paint0_linear_3294_256380" x1="380.709" y1="130.362" x2="344.886" y2="182.949" gradientUnits="userSpaceOnUse">
<stop stop-color="#9C3C1D"/>
<stop offset="1" stop-color="#3E1508"/>
</linearGradient>
<linearGradient id="paint1_linear_3294_256380" x1="310.628" y1="27.9129" x2="340.787" y2="165.02" gradientUnits="userSpaceOnUse">
<stop stop-color="#EEF0F5"/>
<stop offset="1" stop-color="#EEF0F5" stop-opacity="0"/>
</linearGradient>
<radialGradient id="paint2_radial_3294_256380" cx="0" cy="0" r="1" gradientUnits="userSpaceOnUse" gradientTransform="translate(268.823 117.186) rotate(121.932) scale(164.745 188.371)">
<stop stop-color="#E07528"/>
<stop offset="0.427083" stop-color="#DD7326"/>
<stop offset="1" stop-color="#AA4E0B"/>
</radialGradient>
<radialGradient id="paint3_radial_3294_256380" cx="0" cy="0" r="1" gradientUnits="userSpaceOnUse" gradientTransform="translate(167.558 129.921) rotate(104.555) scale(267.44 231.3)">
<stop offset="0.220933" stop-color="#CA651C"/>
<stop offset="1" stop-color="#A44F12"/>
</radialGradient>
<radialGradient id="paint4_radial_3294_256380" cx="0" cy="0" r="1" gradientUnits="userSpaceOnUse" gradientTransform="translate(167.56 129.922) rotate(104.555) scale(267.44 231.3)">
<stop offset="0.220933" stop-color="#CA651C"/>
<stop offset="1" stop-color="#A44F12"/>
</radialGradient>
<radialGradient id="paint5_radial_3294_256380" cx="0" cy="0" r="1" gradientUnits="userSpaceOnUse" gradientTransform="translate(111.528 92.5239) rotate(64.8763) scale(101.894 72.637)">
<stop stop-color="white"/>
<stop offset="1" stop-color="white" stop-opacity="0"/>
</radialGradient>
<radialGradient id="paint6_radial_3294_256380" cx="0" cy="0" r="1" gradientUnits="userSpaceOnUse" gradientTransform="translate(97.0583 276.528) rotate(-139.043) scale(34.0317 60.8283)">
<stop offset="0.209088" stop-color="#A44F12"/>
<stop offset="1" stop-color="#CA651C" stop-opacity="0"/>
</radialGradient>
<radialGradient id="paint7_radial_3294_256380" cx="0" cy="0" r="1" gradientUnits="userSpaceOnUse" gradientTransform="translate(43.1348 264.524) rotate(96.7552) scale(52.8064 125.543)">
<stop stop-color="#9C3B1D"/>
<stop offset="1" stop-color="#3E1508"/>
</radialGradient>
<linearGradient id="paint8_linear_3294_256380" x1="32.4384" y1="258.046" x2="-4.36328" y2="331.964" gradientUnits="userSpaceOnUse">
<stop stop-color="white"/>
<stop offset="1" stop-color="white" stop-opacity="0"/>
</linearGradient>
<linearGradient id="paint9_linear_3294_256380" x1="83.9253" y1="208.3" x2="120.537" y2="237.074" gradientUnits="userSpaceOnUse">
<stop stop-color="white" stop-opacity="0"/>
<stop offset="0.417235" stop-color="white" stop-opacity="0.421924"/>
<stop offset="1" stop-color="white" stop-opacity="0"/>
</linearGradient>
</defs>
</svg>