<svg xmlns="http://www.w3.org/2000/svg" width="130" height="28" viewBox="0 0 130 28" fill="none">
<g clip-path="url(#clip0)">
<path d="M26.7351 17.3881C24.9223 24.8881 17.5579 29.4524 10.286 27.5822C3.01701 25.7123 -1.40809 18.1157 0.405548 10.6162C2.21749 3.11536 9.5819 -1.44944 16.8517 0.420407C24.1232 2.29025 28.5479 9.88776 26.7351 17.3881Z" fill="#F7931A"/>
<path d="M19.5543 12.0071C19.8245 10.1442 18.4494 9.14282 16.5692 8.47477L17.1791 5.95131L15.6899 5.5685L15.0961 8.02546C14.7047 7.92484 14.3026 7.82991 13.903 7.73584L14.5011 5.26269L13.0127 4.87988L12.4024 7.40246C12.0784 7.32634 11.7602 7.2511 11.4515 7.17192L11.4532 7.16404L9.39947 6.6351L9.00333 8.2757C9.00333 8.2757 10.1082 8.53689 10.0849 8.55307C10.688 8.70838 10.797 9.12006 10.7788 9.44643L10.084 12.3212C10.1256 12.3321 10.1795 12.3479 10.2389 12.3724C10.1892 12.3597 10.1362 12.3457 10.0815 12.3321L9.10766 16.3593C9.03385 16.5483 8.84682 16.8318 8.42522 16.7241C8.44006 16.7464 7.3428 16.4455 7.3428 16.4455L6.60352 18.2037L8.54143 18.702C8.90195 18.7952 9.25526 18.8928 9.60306 18.9847L8.98679 21.537L10.4743 21.9198L11.0846 19.3946C11.4909 19.5083 11.8854 19.6133 12.2713 19.7122L11.6631 22.2256L13.1523 22.6084L13.7686 20.0609C16.3079 20.5566 18.2174 20.3566 19.0212 17.9876C19.6688 16.0801 18.9889 14.9799 17.6529 14.2624C18.6259 14.0309 19.3588 13.3708 19.5543 12.0071ZM16.1518 16.9284C15.6916 18.8359 12.578 17.8047 11.5685 17.5462L12.3863 14.1648C13.3958 14.4247 16.6328 14.9392 16.1518 16.9284ZM16.6125 11.9795C16.1925 13.7146 13.601 12.8331 12.7604 12.6169L13.5018 9.55013C14.3424 9.76625 17.0497 10.1696 16.6125 11.9795Z" fill="white"/>
<path d="M39.7733 8.47222C40.8739 8.47222 41.8249 8.67565 42.6239 9.07508C43.4268 9.47845 44.0894 10.0218 44.6208 10.7052C45.145 11.3921 45.5353 12.1949 45.7872 13.1149C46.0374 14.0376 46.163 15.0294 46.163 16.0912C46.163 17.7221 45.8733 19.263 45.2884 20.7155C44.7035 22.1701 43.9099 23.4319 42.9005 24.5081C41.8919 25.583 40.7009 26.4304 39.3275 27.0565C37.9562 27.683 36.4654 27.9962 34.8647 27.9962C34.6577 27.9962 34.2938 27.9901 33.7797 27.9792C33.2656 27.9682 32.6748 27.9135 32.0131 27.8212C31.3472 27.7254 30.6432 27.5837 29.8996 27.3938C29.1565 27.2074 28.4508 26.9462 27.7861 26.6146L33.7292 0.856787L39.0522 0.00585938L36.9243 9.14641C37.3798 8.93466 37.8387 8.77059 38.2968 8.65116C38.7553 8.53347 39.2473 8.47222 39.7733 8.47222ZM35.3083 23.6405C36.1099 23.6405 36.8653 23.4371 37.5749 23.0377C38.2866 22.6378 38.9008 22.0979 39.4153 21.4255C39.9298 20.75 40.337 19.9892 40.6339 19.1392C40.9308 18.2891 41.0809 17.4023 41.0809 16.4797C41.0809 15.3461 40.8972 14.4619 40.5312 13.8228C40.1652 13.1862 39.4878 12.866 38.5042 12.866C38.1819 12.866 37.7666 12.9294 37.2517 13.0427C36.7351 13.163 36.2728 13.4128 35.8584 13.7886L33.5927 23.4957C33.7292 23.5207 33.8501 23.5443 33.9532 23.5666C34.0541 23.5907 34.1657 23.6077 34.2768 23.6196C34.3943 23.6331 34.5287 23.6401 34.6912 23.6401C34.8536 23.6401 35.0568 23.6405 35.3083 23.6405Z" fill="white"/>
<path d="M51.6833 27.5031H46.5991L50.8927 8.86717H56.0117L51.6833 27.5031ZM54.1574 6.59658C53.4478 6.59658 52.8043 6.37871 52.2334 5.94209C51.6579 5.5081 51.3729 4.84005 51.3729 3.93969C51.3729 3.44444 51.4704 2.97982 51.6638 2.54145C51.8602 2.10396 52.1168 1.72728 52.4383 1.40704C52.7594 1.08942 53.1314 0.835667 53.5538 0.644483C53.9788 0.456361 54.4309 0.362305 54.9128 0.362305C55.6219 0.362305 56.262 0.580177 56.835 1.0168C57.4059 1.4556 57.693 2.12365 57.693 3.0192C57.693 3.51619 57.5959 3.98256 57.4008 4.42005C57.207 4.85754 56.9504 5.23422 56.6288 5.55447C56.3103 5.87252 55.9349 6.1254 55.5133 6.31483C55.0879 6.50602 54.6375 6.59658 54.1574 6.59658Z" fill="white"/>
<path d="M60.4674 4.2241L65.7926 3.37317L64.4849 8.86633H70.188L69.1581 13.1879H63.4895L61.9795 19.7065C61.8404 20.2499 61.7615 20.7574 61.7395 21.229C61.7144 21.7028 61.7725 22.1097 61.91 22.4523C62.0465 22.7957 62.2921 23.0604 62.6484 23.2476C63.003 23.4379 63.5107 23.5337 64.1766 23.5337C64.725 23.5337 65.2594 23.4799 65.776 23.3732C66.2897 23.2682 66.8101 23.1221 67.3369 22.9309L67.7161 26.9716C67.0289 27.2314 66.285 27.455 65.4834 27.6431C64.6805 27.8339 63.73 27.9257 62.6314 27.9257C61.0519 27.9257 59.8274 27.6838 58.9549 27.2021C58.0838 26.7169 57.4679 26.0541 57.0993 25.215C56.7358 24.379 56.5734 23.4152 56.6188 22.3293C56.6658 21.2408 56.8249 20.0968 57.0993 18.8919L60.4674 4.2241Z" fill="white"/>
<path d="M69.9639 20.0613C69.9639 18.4562 70.2158 16.9424 70.7193 15.5254C71.2219 14.107 71.9459 12.8668 72.8854 11.8023C73.8214 10.7432 74.962 9.90404 76.3044 9.28805C77.6404 8.67556 79.1364 8.3667 80.785 8.3667C81.817 8.3667 82.7386 8.46733 83.5496 8.66901C84.364 8.87245 85.1007 9.13538 85.767 9.46525L84.0136 13.5777C83.5555 13.3861 83.0801 13.2172 82.5885 13.0641C82.0965 12.9079 81.4959 12.8326 80.7855 12.8326C79.0885 12.8326 77.7469 13.4359 76.7485 14.6386C75.7538 15.8421 75.2529 17.4622 75.2529 19.4943C75.2529 20.6988 75.5049 21.6726 76.0105 22.4177C76.5135 23.1627 77.4428 23.5333 78.792 23.5333C79.4579 23.5333 80.1005 23.4615 80.7159 23.3215C81.336 23.1798 81.8836 23.0013 82.3658 22.7904L82.7454 27.0061C82.1024 27.2633 81.3933 27.4956 80.6154 27.6991C79.8358 27.8955 78.9078 27.9975 77.8317 27.9975C76.4113 27.9975 75.2088 27.7831 74.2252 27.3609C73.2412 26.9322 72.4281 26.363 71.7877 25.642C71.1438 24.9193 70.6815 24.0753 70.3956 23.1067C70.1098 22.139 69.9639 21.1222 69.9639 20.0613Z" fill="white"/>
<path d="M92.5494 27.9975C91.3359 27.9975 90.2819 27.8067 89.3878 27.4291C88.4963 27.0516 87.7578 26.5218 87.1738 25.8349C86.5889 25.1516 86.1512 24.3418 85.8513 23.4086C85.5514 22.4758 85.4072 21.4429 85.4072 20.3111C85.4072 18.8915 85.6282 17.4722 86.0748 16.057C86.5193 14.6386 87.1789 13.3642 88.0518 12.2315C88.9179 11.0971 89.9863 10.1696 91.2443 9.44643C92.501 8.72806 93.9465 8.3667 95.5701 8.3667C96.7615 8.3667 97.81 8.55788 98.7164 8.93543C99.6186 9.31212 100.362 9.8463 100.949 10.5297C101.53 11.2165 101.972 12.0228 102.269 12.9573C102.568 13.8883 102.715 14.9238 102.715 16.0565C102.715 17.4718 102.497 18.891 102.065 20.3107C101.632 21.7234 100.989 23.0009 100.141 24.1361C99.2941 25.2688 98.2355 26.1959 96.9639 26.916C95.694 27.6361 94.2213 27.9975 92.5494 27.9975ZM95.0904 12.8331C94.3367 12.8331 93.6704 13.0588 93.0999 13.5046C92.5273 13.9557 92.0463 14.5227 91.6587 15.2065C91.2668 15.8933 90.9762 16.6423 90.7798 17.4565C90.5852 18.2724 90.4897 19.0437 90.4897 19.7765C90.4897 20.9591 90.6747 21.88 91.0382 22.5428C91.4067 23.2021 92.0688 23.5337 93.0312 23.5337C93.7875 23.5337 94.4504 23.3097 95.0243 22.8591C95.5935 22.4115 96.0749 21.8441 96.4655 21.159C96.8549 20.4756 97.1479 19.7245 97.3443 18.909C97.5365 18.0957 97.6344 17.32 97.6344 16.5885C97.6344 15.409 97.4504 14.4859 97.0835 13.824C96.717 13.1647 96.052 12.8331 95.0904 12.8331Z" fill="white"/>
<path d="M108.255 27.5031H103.167L107.461 8.86717H112.582L108.255 27.5031ZM110.726 6.59658C110.016 6.59658 109.373 6.37871 108.803 5.94209C108.231 5.5081 107.943 4.84005 107.943 3.93969C107.943 3.44444 108.042 2.97982 108.236 2.54145C108.43 2.10396 108.688 1.72728 109.01 1.40704C109.329 1.08942 109.704 0.835667 110.126 0.644483C110.548 0.456361 111 0.362305 111.481 0.362305C112.191 0.362305 112.834 0.580177 113.405 1.0168C113.978 1.4556 114.266 2.12365 114.266 3.0192C114.266 3.51619 114.164 3.98256 113.972 4.42005C113.779 4.85754 113.521 5.23422 113.201 5.55447C112.879 5.87252 112.508 6.1254 112.085 6.31483C111.66 6.50602 111.208 6.59658 110.726 6.59658Z" fill="white"/>
<path d="M116.246 9.71467C116.632 9.59829 117.063 9.4583 117.532 9.30605C118.002 9.15381 118.528 9.01206 119.115 8.88431C119.695 8.75263 120.351 8.64588 121.071 8.56319C121.792 8.47875 122.613 8.43762 123.525 8.43762C126.207 8.43762 128.055 9.24306 129.076 10.8491C130.095 12.4551 130.272 14.6531 129.61 17.439L127.271 27.5014H122.154L124.42 17.6508C124.559 17.0357 124.667 16.4411 124.747 15.8601C124.828 15.2844 124.824 14.7769 124.729 14.3377C124.639 13.9037 124.426 13.5484 124.095 13.2732C123.76 13.0024 123.253 12.8664 122.565 12.8664C121.903 12.8664 121.228 12.9399 120.54 13.0816L117.207 27.501H112.087L116.246 9.71467Z" fill="white"/>
</g>
<defs>
<clipPath id="clip0">
<rect width="130" height="28" fill="white"/>
</clipPath>
</defs>
</svg>