<svg xmlns="http://www.w3.org/2000/svg" width="86" height="51" viewBox="0 0 86 51" fill="none">
<path fill-rule="evenodd" clip-rule="evenodd" d="M43.0225 44.3897C47.5561 48.5043 53.6444 51 60.2667 51C74.4891 51 86.0002 39.5744 86.0002 25.5216C86.0002 11.4261 74.4891 0 60.2667 0C53.6444 0 47.5561 2.49523 43.0225 6.61033C37.8224 11.2942 34.5332 18.0359 34.5332 25.5216C34.5337 33.0073 37.8224 39.7496 43.0225 44.3897Z" fill="#E9B040"/>
<path fill-rule="evenodd" clip-rule="evenodd" d="M51.3336 22.808C51.2447 21.8888 51.0669 21.0134 50.889 20.0938H35.1554C35.3333 19.1746 35.6001 18.2992 35.8663 17.4233H50.1337C49.824 16.5018 49.468 15.5959 49.0671 14.7091H36.9779C37.4226 13.7819 37.9121 12.8761 38.4447 11.9949H47.5564C46.9701 11.06 46.3167 10.1676 45.6011 9.32453H40.4005C41.2049 8.35691 42.0814 7.44966 43.0228 6.61033C38.4452 2.53903 32.4003 0 25.7335 0C11.5556 0 0 11.4261 0 25.5216C0 39.5744 11.5556 51 25.7335 51C32.4003 51 38.4446 48.5043 43.0228 44.3897C43.9497 43.565 44.8116 42.6721 45.6011 41.7187H40.4005C39.6891 40.8434 39.0671 39.968 38.4447 39.0045H47.5564C48.1293 38.1389 48.6345 37.2315 49.0676 36.2903H36.9779C36.5777 35.415 36.1781 34.5396 35.8663 33.6194H50.1337C50.4444 32.7441 50.6672 31.8254 50.8885 30.9052C51.0663 30.0299 51.2442 29.1112 51.3331 28.191C51.4232 27.3035 51.4679 26.412 51.467 25.5201C51.467 24.6025 51.4226 23.6833 51.3336 22.808Z" fill="#CC2131"/>
<path fill-rule="evenodd" clip-rule="evenodd" d="M34.2667 32.8762C33.4224 33.0946 32.7999 33.2265 32.178 33.2265C30.8446 33.2265 30.0443 32.3944 30.0443 30.906C30.0443 30.5999 30.0887 30.2933 30.1332 29.943L30.3111 28.9368L30.4444 28.1047L31.6444 20.9255H34.3111L33.9999 22.5016H35.689L35.2888 25.1282H33.5997L32.8888 29.418C32.8444 29.6375 32.8444 29.7683 32.8444 29.8559C32.8444 30.4252 33.1112 30.6437 33.7776 30.6437C34.0888 30.6437 34.3551 30.6004 34.6219 30.5561L34.2667 32.8762ZM42.8893 32.7886C41.9117 33.0513 41.0229 33.1822 40.0447 33.1822C37.0223 33.1822 35.2888 31.6061 35.2888 28.4988C35.2888 24.8649 37.3336 22.2383 40.1776 22.2383C42.4442 22.2383 43.9109 23.7268 43.9109 26.0464C43.9109 26.8352 43.822 27.5791 43.6002 28.6297H38.0444C38 28.8049 38 28.8925 38 28.98C38 30.2058 38.8442 30.8184 40.4444 30.8184C41.4665 30.8184 42.3552 30.5999 43.3334 30.1625L42.8893 32.7886ZM41.2447 26.5286V26.0031C41.2447 25.1277 40.7556 24.646 39.9114 24.646C39.0221 24.646 38.4001 25.3024 38.1334 26.5281H41.2447V26.5286ZM12.9329 33.007H10.1772L11.7774 23.0704L8.17746 33.007H6.26661L6.04429 23.1142L4.35523 33.007H1.64404L3.82167 20.0935H7.86622L7.95515 28.0614L10.6663 20.0935H15.111L12.9329 33.007ZM19.6447 28.3236C19.3779 28.2793 19.289 28.2793 19.1111 28.2793C17.511 28.2793 16.7112 28.8919 16.7112 29.8554C16.7112 30.5123 17.1114 30.9503 17.7333 30.9503C19.0667 30.9503 19.5997 29.8554 19.6447 28.3236ZM21.8668 33.007H19.4668L19.5113 31.9132C18.8888 32.7443 18.0445 33.1822 16.5778 33.1822C15.2444 33.1822 14.0889 32.0008 14.0889 30.2933C14.0889 29.8121 14.1779 29.3747 14.3112 28.9368C14.7553 27.3164 16.3999 26.3101 18.9333 26.2658C19.2445 26.2658 19.7331 26.2658 20.1777 26.3101C20.2661 25.9598 20.2661 25.8279 20.2661 25.6094C20.2661 24.9087 19.6886 24.6898 18.3997 24.6898C17.5999 24.6898 16.7107 24.8211 16.0887 25.0401L15.6885 25.1277L15.5107 25.171L15.9109 22.8071C17.1998 22.413 18.1329 22.2383 19.1556 22.2383C21.5555 22.2383 22.8444 23.3327 22.8444 25.3462C22.8444 25.8717 22.8889 26.2658 22.7111 27.404L22.0891 31.1687L22.0002 31.8256L21.9557 32.3512L21.9112 32.7015L21.8668 33.007ZM56.3119 22.5887C57.1117 22.5887 57.8231 22.8077 58.8007 23.2889L59.2893 20.4871C59.0225 20.3557 58.9336 20.3557 58.5784 20.2243L57.4679 19.9178C57.1122 19.8302 56.6681 19.7864 56.1785 19.7864C54.8001 19.7864 54.0003 19.8302 53.1566 20.3119C52.7119 20.6185 52.1339 21.0126 51.5114 21.7128L51.1557 21.6252L48.3112 23.5949L48.4451 22.5006H45.5111L43.7786 33.0065H46.5792L47.6008 27.3602C47.6008 27.3602 48.0015 26.5714 48.1788 26.3096C48.7124 25.6527 49.1565 25.6527 49.734 25.6527H49.9568C49.8635 26.3199 49.8188 26.9928 49.8229 27.6662C49.8229 31.0806 51.7782 33.226 54.8006 33.226C55.5565 33.226 56.224 33.1384 57.2456 32.8757L57.7352 29.8992C56.8465 30.3804 56.0461 30.5994 55.3792 30.5994C53.7351 30.5994 52.7564 29.3737 52.7564 27.4478C52.7554 24.6022 54.2226 22.5887 56.3119 22.5887ZM79.9112 20.0935L79.2897 23.7706C78.6228 22.7639 77.8224 22.2821 76.7559 22.2821C75.2886 22.2821 73.9113 23.1137 73.0665 24.6898V24.6465L71.289 23.5954L71.4669 22.5011H68.4889L66.7999 33.007H69.5555L70.4892 27.3607C70.4892 27.3607 71.2001 26.5719 71.378 26.3101C71.8226 25.7846 72.2667 25.6965 72.6224 25.6532C72.3117 26.5286 72.1338 27.5791 72.1338 28.7616C72.1338 31.3882 73.5111 33.1389 75.5554 33.1389C76.578 33.1389 77.3778 32.7886 78.1332 31.9565L78.0003 33.007H80.6231L82.7563 20.0935H79.9112ZM76.4896 30.5123C75.5559 30.5123 75.0673 29.8121 75.0673 28.4545C75.0673 26.3967 75.9561 24.9087 77.2444 24.9087C78.2221 24.9087 78.7117 25.6532 78.7117 26.9665C78.7117 29.0676 77.823 30.5123 76.4896 30.5123ZM63.6456 28.3236C63.3788 28.2793 63.2899 28.2793 63.1121 28.2793C61.5109 28.2793 60.7111 28.8919 60.7111 29.8554C60.7111 30.5123 61.1118 30.9503 61.7337 30.9503C63.0671 30.9503 63.6006 29.8554 63.6456 28.3236ZM65.8677 33.007H63.4228L63.5117 31.9132C62.8897 32.7443 62.0444 33.1822 60.5787 33.1822C59.2004 33.1822 58.0009 32.0441 58.0009 30.2933C58.0009 27.7986 59.9113 26.2664 62.9337 26.2664C63.2454 26.2664 63.7335 26.2664 64.1342 26.3107C64.2231 25.9603 64.2681 25.8284 64.2681 25.61C64.2681 24.9093 63.6901 24.6903 62.3567 24.6903C61.6008 24.6903 60.6677 24.8217 60.0457 25.0406L59.69 25.1282L59.5121 25.1715L59.9118 22.8077C61.2012 22.4135 62.1349 22.2388 63.1565 22.2388C65.5565 22.2388 66.8009 23.3332 66.8009 25.3467C66.8009 25.8722 66.8898 26.2664 66.668 27.4045L66.09 31.1692L66.0011 31.8261L65.9122 32.3517L65.8682 32.702V33.007H65.8677ZM27.6888 24.7336C28.2223 24.7336 28.9777 24.7774 29.778 24.9087L30.1782 22.4573C29.3779 22.3697 28.3113 22.2383 27.6888 22.2383C24.578 22.2383 23.5558 23.902 23.5558 25.8279C23.5558 27.0979 24.1333 28.0166 25.6446 28.7168C26.7556 29.2423 26.9334 29.3294 26.9334 29.8116C26.9334 30.4675 26.356 30.8622 25.2888 30.8622C24.4446 30.8622 23.6442 30.7303 22.7555 30.4242L22.4443 32.8313L22.4882 32.8757L23.0218 32.9632C23.1996 33.0065 23.4219 33.0508 23.7332 33.0941C24.3996 33.1384 24.9776 33.1817 25.3333 33.1817C28.4447 33.1817 29.7336 32.0003 29.7336 29.6797C29.7336 28.2355 29.0222 27.3602 27.6443 26.7476C26.4444 26.2215 26.311 26.135 26.311 25.6527C26.311 25.1715 26.8445 24.7336 27.6888 24.7336Z" fill="#1B3771"/>
<path fill-rule="evenodd" clip-rule="evenodd" d="M60.0451 19.6559L59.5555 22.4577C58.5778 21.976 57.8664 21.7575 57.0666 21.7575C54.9774 21.7575 53.5112 23.771 53.5112 26.6166C53.5112 28.5868 54.4888 29.7682 56.134 29.7682C56.7999 29.7682 57.6002 29.5498 58.4889 29.1123L58.0004 32.0445C56.9777 32.3072 56.3113 32.4391 55.5554 32.4391C52.5335 32.4391 50.6666 30.2937 50.6666 26.8361C50.6666 22.2392 53.2444 18.9995 56.9332 18.9995C57.4218 18.9995 57.8659 19.0433 58.2216 19.1309L59.3332 19.3937C59.6894 19.525 59.7783 19.5688 60.0451 19.6559ZM51.0668 21.5823H50.8C49.8673 21.5823 49.3338 22.0203 48.489 23.2893L48.7557 21.6694H46.2219L44.4894 32.1759H47.29C48.3116 25.7407 48.5784 24.6464 49.9118 24.6464H50.0896C50.3564 23.3769 50.7116 22.4572 51.1562 21.6256L51.0668 21.5823ZM34.978 32.0445C34.2227 32.3072 33.6002 32.3948 32.9782 32.3948C31.556 32.3948 30.7556 31.6071 30.7556 30.0753C30.7556 29.8125 30.8001 29.4627 30.8445 29.1556L31.0224 28.1051L31.1558 27.274L32.3558 20.0938H35.1114L34.8002 21.6699H36.2225L35.8668 24.2527H34.4445L33.6891 28.6306C33.6447 28.8058 33.6447 28.9377 33.6447 29.0685C33.6447 29.5941 33.9114 29.813 34.5779 29.813C34.8891 29.813 35.1553 29.813 35.3332 29.7255L34.978 32.0445ZM24.2667 24.9967C24.2667 26.3105 24.8886 27.2292 26.3554 27.9299C27.5109 28.4554 27.6887 28.6301 27.6887 29.068C27.6887 29.7249 27.1996 30.031 26.0886 30.031C25.2443 30.031 24.4885 29.9001 23.5997 29.6373L23.1996 32.0445L23.3329 32.0888L23.822 32.1764C23.9994 32.2197 24.2222 32.264 24.5774 32.264C25.1993 32.3515 25.7329 32.3516 26.0886 32.3516C29.0216 32.3516 30.3999 31.2567 30.3999 28.8496C30.3999 27.4044 29.8224 26.5723 28.4446 25.9164C27.2446 25.3909 27.1112 25.26 27.1112 24.7783C27.1112 24.2095 27.6003 23.9467 28.4891 23.9467C29.0226 23.9467 29.778 23.9905 30.4894 24.0781L30.889 21.6704C30.1781 21.5391 29.0671 21.4515 28.4446 21.4515C25.3332 21.4509 24.2222 23.0708 24.2667 24.9967ZM81.3344 32.1764H78.7117L78.8456 31.1691C78.0897 31.9569 77.2894 32.3072 76.2667 32.3072C74.2225 32.3072 72.8891 30.6008 72.8891 27.9742C72.8891 24.4717 74.9784 21.4947 77.4222 21.4947C78.5338 21.4947 79.3336 21.9765 80.09 22.9394L80.712 19.2623H83.4676L81.3344 32.1764ZM77.2449 29.7249C78.5343 29.7249 79.4231 28.2365 79.4231 26.1786C79.4231 24.8215 78.9334 24.1208 77.9558 24.1208C76.7113 24.1208 75.7787 25.5655 75.7787 27.6233C75.7787 29.0247 76.2672 29.7249 77.2449 29.7249ZM43.5112 31.9569C42.533 32.264 41.6443 32.3948 40.6222 32.3948C37.5108 32.3948 35.9107 30.7755 35.9107 27.6671C35.9107 24.0776 37.9555 21.4072 40.7556 21.4072C43.0666 21.4072 44.5328 22.8956 44.5328 25.2157C44.5328 26.004 44.4439 26.7485 44.1771 27.8423H38.6669C38.6224 27.9742 38.6224 28.0618 38.6224 28.1494C38.6224 29.3751 39.4672 29.9877 41.0668 29.9877C42.0889 29.9877 42.9777 29.8125 43.9558 29.3308L43.5112 31.9569ZM41.9555 25.6969V25.1719C41.9555 24.2965 41.4665 23.8148 40.6222 23.8148C39.7335 23.8148 39.111 24.4717 38.8442 25.6969H41.9555ZM13.6442 32.1764H10.8886L12.4887 22.2387L8.8888 32.1764H6.97742L6.75511 22.3263L5.06657 32.1764H2.48877L4.6664 19.2623H8.66649L8.79988 27.2735L11.4661 19.2623H15.8219L13.6442 32.1764ZM20.5334 27.492C20.2666 27.492 20.1332 27.4487 19.9109 27.4487C18.3552 27.4487 17.5554 28.0175 17.5554 29.068C17.5554 29.7249 17.9111 30.1186 18.5331 30.1186C19.6886 30.1186 20.4889 29.068 20.5334 27.492ZM22.5776 32.1764H20.2661L20.3105 31.0815C19.5991 31.9569 18.6659 32.3516 17.377 32.3516C15.8658 32.3516 14.8437 31.2134 14.8437 29.506C14.8437 26.9237 16.6211 25.4352 19.7325 25.4352C20.0437 25.4352 20.4439 25.479 20.888 25.5223C20.9769 25.1724 20.9769 25.041 20.9769 24.8659C20.9769 24.1657 20.4878 23.9029 19.1989 23.9029C18.3991 23.9029 17.5099 23.9905 16.8879 24.1657L16.4878 24.297L16.221 24.3408L16.6212 21.977C17.999 21.5828 18.9322 21.4515 19.9548 21.4515C22.3548 21.4515 23.6437 22.502 23.6437 24.5155C23.6437 25.041 23.5992 25.4352 23.4213 26.6171L22.7989 30.3386L22.7099 30.9944L22.6655 31.52L22.621 31.9146L22.5776 32.1764ZM64.5343 27.492C64.2225 27.492 64.0897 27.4487 63.9123 27.4487C62.3122 27.4487 61.5113 28.0175 61.5113 29.068C61.5113 29.7249 61.912 30.1186 62.534 30.1186C63.6456 30.1186 64.4893 29.068 64.5343 27.492ZM66.5785 32.1764H64.2675L64.3115 31.0815C63.6006 31.9569 62.6674 32.3516 61.3785 32.3516C59.8673 32.3516 58.8446 31.2134 58.8446 29.506C58.8446 26.9237 60.6221 25.4352 63.7334 25.4352C64.0452 25.4352 64.4454 25.479 64.845 25.5223C64.9339 25.1724 64.9789 25.041 64.9789 24.8659C64.9789 24.1657 64.4893 23.9029 63.2015 23.9029C62.4006 23.9029 61.4679 23.9905 60.8454 24.1657L60.4897 24.297L60.223 24.3408L60.6226 21.977C62.001 21.5828 62.9336 21.4515 63.9563 21.4515C66.3562 21.4515 67.6007 22.502 67.6007 24.5155C67.6007 25.041 67.6007 25.4352 67.3789 26.6171L66.8008 30.3386L66.7119 30.9944L66.623 31.52L66.5791 31.9146V32.1764H66.5785ZM74.0452 21.5823H73.7784C72.8457 21.5823 72.3121 22.0203 71.4674 23.2893L71.7341 21.6694H69.2003L67.5112 32.1759H70.2669C71.2895 25.7407 71.5563 24.6464 72.8896 24.6464H73.0675C73.3343 23.3769 73.6894 22.4572 74.1341 21.6256L74.0452 21.5823Z" fill="white"/>
</svg>