<svg xmlns="http://www.w3.org/2000/svg" width="124" height="33" viewBox="0 0 124 33" fill="none">
<path d="M46.211 6.74902H39.372C39.1456 6.74888 38.9266 6.8296 38.7544 6.97664C38.5822 7.12369 38.4683 7.32738 38.433 7.55102L35.667 25.088C35.6543 25.1694 35.6593 25.2526 35.6819 25.3318C35.7044 25.411 35.7438 25.4844 35.7974 25.547C35.851 25.6095 35.9175 25.6597 35.9924 25.694C36.0672 25.7284 36.1486 25.7461 36.231 25.746H39.496C39.7225 25.7461 39.9417 25.6653 40.1139 25.518C40.286 25.3708 40.3999 25.1668 40.435 24.943L41.181 20.213C41.216 19.9894 41.3298 19.7856 41.5017 19.6384C41.6737 19.4911 41.8926 19.4102 42.119 19.41H44.284C48.789 19.41 51.389 17.23 52.068 12.91C52.374 11.02 52.081 9.53502 51.196 8.49502C50.224 7.35302 48.5 6.74902 46.211 6.74902ZM47 13.154C46.626 15.608 44.751 15.608 42.938 15.608H41.906L42.63 11.025C42.6512 10.8909 42.7195 10.7688 42.8227 10.6807C42.926 10.5925 43.0572 10.544 43.193 10.544H43.666C44.901 10.544 46.066 10.544 46.668 11.248C47.027 11.668 47.137 12.292 47 13.154ZM66.654 13.075H63.379C63.2432 13.075 63.112 13.1235 63.0087 13.2117C62.9055 13.2998 62.8372 13.4219 62.816 13.556L62.671 14.472L62.442 14.14C61.733 13.111 60.152 12.767 58.574 12.767C54.955 12.767 51.864 15.508 51.262 19.353C50.949 21.271 51.394 23.105 52.482 24.384C53.48 25.56 54.908 26.05 56.607 26.05C59.523 26.05 61.14 24.175 61.14 24.175L60.994 25.085C60.981 25.1664 60.9858 25.2496 61.008 25.3289C61.0303 25.4083 61.0694 25.4818 61.1229 25.5446C61.1763 25.6073 61.2427 25.6577 61.3174 25.6923C61.3922 25.7269 61.4736 25.7449 61.556 25.745H64.506C64.7325 25.7451 64.9517 25.6643 65.1239 25.517C65.296 25.3698 65.4099 25.1658 65.445 24.942L67.215 13.733C67.228 13.6518 67.2233 13.5688 67.2011 13.4896C67.1789 13.4105 67.1397 13.3371 67.0864 13.2745C67.0331 13.2119 66.9668 13.1617 66.8921 13.1273C66.8175 13.0928 66.7362 13.075 66.654 13.075ZM62.089 19.449C61.773 21.32 60.288 22.576 58.394 22.576C57.443 22.576 56.683 22.271 56.195 21.693C55.711 21.119 55.527 20.302 55.681 19.392C55.976 17.537 57.486 16.24 59.351 16.24C60.281 16.24 61.037 16.549 61.535 17.132C62.034 17.721 62.232 18.543 62.089 19.449ZM84.096 13.075H80.805C80.6498 13.0753 80.497 13.1134 80.3598 13.186C80.2227 13.2587 80.1054 13.3637 80.018 13.492L75.479 20.178L73.555 13.753C73.4959 13.5571 73.3754 13.3853 73.2111 13.2632C73.0469 13.1411 72.8477 13.0751 72.643 13.075H69.409C69.3182 13.0748 69.2287 13.0962 69.1479 13.1376C69.0671 13.1789 68.9973 13.239 68.9444 13.3127C68.8914 13.3865 68.8569 13.4718 68.8436 13.5616C68.8303 13.6514 68.8387 13.7431 68.868 13.829L72.493 24.467L69.085 29.278C69.0244 29.3633 68.9885 29.4636 68.9812 29.568C68.9738 29.6724 68.9953 29.7767 69.0433 29.8697C69.0914 29.9626 69.164 30.0405 69.2534 30.0949C69.3428 30.1493 69.4454 30.1781 69.55 30.178H72.837C72.9905 30.1782 73.1417 30.1412 73.2777 30.0702C73.4137 29.9991 73.5305 29.8961 73.618 29.77L84.564 13.97C84.6233 13.8845 84.6581 13.7845 84.6646 13.6806C84.6711 13.5768 84.649 13.4731 84.6008 13.3809C84.5526 13.2887 84.4801 13.2114 84.3911 13.1575C84.3021 13.1036 84.2 13.0751 84.096 13.075Z" fill="#253B80"/>
<path d="M94.9924 6.74905H88.1524C87.9262 6.74914 87.7074 6.82997 87.5354 6.97699C87.3635 7.12401 87.2497 7.32757 87.2144 7.55105L84.4484 25.088C84.4355 25.1693 84.4404 25.2523 84.4628 25.3315C84.4851 25.4107 84.5243 25.484 84.5777 25.5466C84.6312 25.6091 84.6975 25.6593 84.7722 25.6938C84.8469 25.7282 84.9282 25.746 85.0104 25.746H88.5204C88.6788 25.7458 88.8318 25.6891 88.9521 25.5861C89.0723 25.483 89.1519 25.3405 89.1764 25.184L89.9614 20.213C89.9964 19.9894 90.1102 19.7856 90.2822 19.6384C90.4541 19.4912 90.673 19.4102 90.8994 19.41H93.0634C97.5694 19.41 100.168 17.23 100.848 12.91C101.155 11.02 100.86 9.53505 99.9754 8.49505C99.0044 7.35305 97.2814 6.74905 94.9924 6.74905ZM95.7814 13.154C95.4084 15.608 93.5334 15.608 91.7194 15.608H90.6884L91.4134 11.025C91.4342 10.891 91.5023 10.7687 91.6054 10.6805C91.7085 10.5923 91.8397 10.5439 91.9754 10.544H92.4484C93.6824 10.544 94.8484 10.544 95.4504 11.248C95.8094 11.668 95.9184 12.292 95.7814 13.154ZM115.434 13.075H112.161C112.026 13.0747 111.894 13.123 111.791 13.2113C111.688 13.2995 111.62 13.4219 111.599 13.556L111.454 14.472L111.224 14.14C110.515 13.111 108.935 12.767 107.357 12.767C103.738 12.767 100.648 15.508 100.046 19.353C99.7344 21.271 100.177 23.105 101.265 24.384C102.265 25.56 103.691 26.05 105.39 26.05C108.306 26.05 109.923 24.175 109.923 24.175L109.777 25.085C109.764 25.1666 109.769 25.25 109.792 25.3294C109.814 25.4089 109.853 25.4826 109.907 25.5453C109.961 25.6081 110.027 25.6585 110.102 25.693C110.177 25.7274 110.259 25.7452 110.341 25.745H113.29C113.517 25.7449 113.736 25.6639 113.908 25.5167C114.08 25.3695 114.193 25.1657 114.228 24.942L115.999 13.733C116.012 13.6516 116.007 13.5684 115.984 13.4892C115.961 13.41 115.922 13.3366 115.868 13.2741C115.815 13.2116 115.748 13.1614 115.673 13.127C115.598 13.0927 115.517 13.075 115.434 13.075ZM110.869 19.449C110.555 21.32 109.068 22.576 107.174 22.576C106.225 22.576 105.463 22.271 104.975 21.693C104.491 21.119 104.309 20.302 104.461 19.392C104.758 17.537 106.266 16.24 108.131 16.24C109.061 16.24 109.817 16.549 110.315 17.132C110.816 17.721 111.014 18.543 110.869 19.449ZM119.295 7.23005L116.488 25.088C116.476 25.1693 116.48 25.2523 116.503 25.3315C116.525 25.4107 116.564 25.484 116.618 25.5466C116.671 25.6091 116.737 25.6593 116.812 25.6938C116.887 25.7282 116.968 25.746 117.05 25.746H119.872C120.341 25.746 120.739 25.406 120.811 24.943L123.579 7.40705C123.592 7.32576 123.587 7.24266 123.565 7.16345C123.543 7.08423 123.504 7.0108 123.45 6.94818C123.397 6.88556 123.33 6.83525 123.256 6.8007C123.181 6.76616 123.1 6.74819 123.017 6.74805H119.857C119.722 6.74853 119.591 6.7973 119.488 6.88562C119.385 6.97394 119.317 7.09604 119.295 7.23005Z" fill="#179BD7"/>
<path d="M7.26555 29.1541L7.78855 25.8321L6.62355 25.8051H1.06055L4.92655 1.29205C4.93806 1.21715 4.9761 1.14889 5.03374 1.09969C5.09137 1.0505 5.16477 1.02365 5.24055 1.02405H14.6205C17.7345 1.02405 19.8835 1.67205 21.0055 2.95105C21.5315 3.55105 21.8665 4.17805 22.0285 4.86805C22.1985 5.59205 22.2015 6.45705 22.0355 7.51205L22.0235 7.58905V8.26505L22.5495 8.56305C22.9511 8.76649 23.312 9.04169 23.6145 9.37505C24.0645 9.88805 24.3555 10.5401 24.4785 11.3131C24.6055 12.1081 24.5635 13.0541 24.3555 14.1251C24.1155 15.3571 23.7275 16.4301 23.2035 17.3081C22.7412 18.0946 22.1196 18.7758 21.3785 19.3081C20.6825 19.8021 19.8555 20.1771 18.9205 20.4171C18.0145 20.6531 16.9815 20.7721 15.8485 20.7721H15.1185C14.5965 20.7721 14.0895 20.9601 13.6915 21.2971C13.2941 21.6376 13.0305 22.1082 12.9475 22.6251L12.8925 22.9241L11.9685 28.7791L11.9265 28.9941C11.9155 29.0621 11.8965 29.0961 11.8685 29.1191C11.8414 29.1412 11.8076 29.1536 11.7725 29.1541H7.26555Z" fill="#253B80"/>
<path d="M23.0481 7.66699C23.0201 7.84599 22.9881 8.02899 22.9521 8.21699C21.7151 14.568 17.4831 16.762 12.0781 16.762H9.32612C8.66512 16.762 8.10812 17.242 8.00512 17.894L6.59612 26.83L6.19712 29.363C6.18123 29.4635 6.1873 29.5662 6.21491 29.6641C6.24252 29.762 6.29103 29.8528 6.35708 29.9301C6.42313 30.0075 6.50516 30.0696 6.59753 30.1122C6.6899 30.1548 6.7904 30.1769 6.89212 30.177H11.7731C12.3511 30.177 12.8421 29.757 12.9331 29.187L12.9811 28.939L13.9001 23.107L13.9591 22.787C14.0491 22.215 14.5411 21.795 15.1191 21.795H15.8491C20.5781 21.795 24.2801 19.875 25.3621 14.319C25.8141 11.998 25.5801 10.06 24.3841 8.69699C24.0051 8.27535 23.5523 7.92632 23.0481 7.66699Z" fill="#179BD7"/>
<path d="M21.7539 7.15102C21.3589 7.03676 20.9571 6.94758 20.5509 6.88402C19.7482 6.76066 18.937 6.70148 18.1249 6.70702H10.7729C10.4931 6.70681 10.2224 6.80669 10.0099 6.98863C9.79732 7.17057 9.65685 7.42255 9.61388 7.69902L8.04988 17.605L8.00488 17.894C8.05361 17.5787 8.21359 17.2912 8.45588 17.0835C8.69818 16.8759 9.00679 16.7619 9.32588 16.762H12.0779C17.4829 16.762 21.7149 14.567 22.9519 8.21702C22.9889 8.02902 23.0199 7.84602 23.0479 7.66702C22.7215 7.49585 22.3813 7.35235 22.0309 7.23802C21.939 7.20754 21.8467 7.17854 21.7539 7.15102Z" fill="#222D65"/>
<path d="M9.61391 7.699C9.65652 7.42245 9.79691 7.17035 10.0096 6.9885C10.2222 6.80666 10.4931 6.70713 10.7729 6.708H18.1249C18.9959 6.708 19.8089 6.765 20.5509 6.885C21.053 6.96391 21.5482 7.08194 22.0319 7.238C22.3969 7.359 22.7359 7.502 23.0489 7.667C23.4169 5.32 23.0459 3.722 21.7769 2.275C20.3779 0.682 17.8529 0 14.6219 0H5.24191C4.58191 0 4.01891 0.48 3.91691 1.133L0.00990971 25.898C-0.00828844 26.013 -0.00136467 26.1305 0.0302048 26.2426C0.0617742 26.3546 0.11724 26.4585 0.192787 26.5471C0.268334 26.6356 0.362169 26.7068 0.467837 26.7556C0.573506 26.8045 0.6885 26.8298 0.80491 26.83H6.59591L8.04991 17.605L9.61391 7.699Z" fill="#253B80"/>
</svg>