<svg xmlns="http://www.w3.org/2000/svg" width="94" height="68" viewBox="0 0 94 68" fill="none">
<path d="M46.923 10.5989C49.7743 10.5989 52.0857 8.3028 52.0857 5.47041C52.0857 2.63802 49.7743 0.341919 46.923 0.341919C44.0717 0.341919 41.7603 2.63802 41.7603 5.47041C41.7603 8.3028 44.0717 10.5989 46.923 10.5989Z" fill="#F3C648"/>
<path d="M37.7451 43.3832C37.7451 43.3832 39.1983 42.6994 40.6515 39.6223C42.1048 36.5452 52.392 14.6636 52.392 14.6636C52.392 14.6636 53.1951 12.4982 54.7248 12.4982C56.2545 12.4982 75.2227 12.4982 75.2227 12.4982C75.2227 12.4982 77.1731 12.4603 76.4465 14.0558C75.7199 15.6513 63.6735 41.0658 63.6735 41.0658C63.6735 41.0658 62.7557 43.0792 60.7288 43.4211C58.549 43.3832 37.7451 43.3832 37.7451 43.3832Z" fill="#F3C648"/>
<path d="M42.4105 32.9363C42.4105 32.9363 39.1216 40.4201 38.0126 41.7877C36.9035 43.1553 36.7506 43.3832 35.7563 43.4212C34.7237 43.4592 33.8441 42.8514 32.6969 41.3318C31.5496 39.7743 17.6293 14.3597 17.6293 14.3597C17.6293 14.3597 16.7498 12.8402 18.7384 12.4983C20.8035 12.4983 39.504 12.4983 39.504 12.4983C39.504 12.4983 41.5691 12.4983 42.4105 14.0178C43.2518 15.5374 47.1143 22.9452 47.1143 22.9452L45.967 25.1106L41.0337 15.9173C41.0337 15.9173 40.4218 14.7776 39.4275 14.7776C38.5862 14.7776 37.7449 14.7776 37.7449 14.7776L44.8197 27.5039L43.6725 30.1251L35.6415 15.7273C35.6415 15.7273 35.0297 14.6637 34.2266 14.7016C33.3852 14.7396 32.238 14.7396 32.238 14.7396L42.4105 32.9363Z" fill="#F3C648"/>
<path d="M8.22188 63.6312H12.3521L10.3252 58.9586C10.3252 58.9586 11.6255 58.3128 11.7019 57.1351C11.7402 55.9575 11.7019 53.9441 11.7019 53.9441C11.7019 53.9441 11.3578 51.9307 8.26012 51.9307H4.12993H2.06484H0.42041V63.6312H4.12993V59.1106H6.57745L8.22188 63.6312ZM4.12993 53.9061H7.03636H7.26581C7.26581 53.9061 8.10715 54.134 8.14539 54.8558C8.18363 55.5016 8.14539 56.0335 8.14539 56.0335C8.14539 56.0335 8.06891 56.9452 7.26581 57.0592H4.09169V53.9061H4.12993Z" fill="white"/>
<path d="M20.9182 54.8179H16.5586C14.9142 54.8179 13.5757 56.1475 13.5757 57.781V60.8581C13.5757 62.4916 14.9142 63.8212 16.5586 63.8212H20.9182C22.5627 63.8212 23.9012 62.4916 23.9012 60.8581V57.781C23.9012 56.1475 22.5627 54.8179 20.9182 54.8179ZM20.3446 61.124C20.3446 61.6179 19.9239 62.0358 19.4268 62.0358H18.0501C17.5529 62.0358 17.1322 61.6179 17.1322 61.124V57.4771C17.1322 56.9832 17.5529 56.5654 18.0501 56.5654H19.4268C19.9239 56.5654 20.3446 56.9832 20.3446 57.4771V61.124Z" fill="white"/>
<path d="M24.7808 55.0078H28.3373L30.1347 61.5799H30.4024L32.3528 55.0078H35.7564L32.3145 65.9486C32.3145 65.9486 31.5879 67.6581 30.4406 67.6581C29.2934 67.6581 26.9223 67.8101 25.6986 67.3542C25.6986 66.4804 25.6986 65.8346 25.6986 65.8346C25.6986 65.8346 28.3373 66.1006 28.758 65.9486C29.4463 65.8346 29.714 64.581 29.9435 63.6693C29.5228 63.6693 27.5725 63.6693 27.5725 63.6693L24.7808 55.0078Z" fill="white"/>
<path d="M82.6416 55.0076H86.1982L87.9573 61.5417H88.225L90.1754 54.9696H93.579L90.1371 65.9104C90.1371 65.9104 89.4105 67.6199 88.2633 67.6199C87.116 67.6199 84.7449 67.7718 83.5212 67.316C83.5212 66.4422 83.5212 65.7964 83.5212 65.7964C83.5212 65.7964 86.1599 66.0623 86.5806 65.9104C87.2689 65.7964 87.5366 64.5428 87.7661 63.6311C87.3454 63.6311 85.3951 63.6311 85.3951 63.6311L82.6416 55.0076Z" fill="white"/>
<path d="M43.9405 54.8176C40.1927 54.4757 37.2863 55.1215 37.2863 55.1215V56.4891C37.2863 56.4891 41.2635 55.9573 42.4873 56.4891C43.711 57.059 43.2139 58.5405 43.2139 58.5405C43.2139 58.5405 39.8485 58.3506 38.5483 58.4645C37.2481 58.5405 36.8274 59.4902 36.7509 59.8321C36.6744 60.174 36.6744 62.1495 37.0568 62.7953C37.4393 63.4031 38.663 63.9349 41.6459 63.859C44.6289 63.821 46.4263 63.4411 46.4263 63.4411C46.4263 63.4411 46.4263 57.7428 46.4263 56.6791C46.3115 55.7673 45.279 55.0076 43.9405 54.8176ZM43.2139 62.0735C43.2139 62.0735 41.8754 62.3394 40.7664 62.0735C39.6191 61.8076 39.8103 59.9461 40.5752 59.8701C41.34 59.7942 43.2139 59.8701 43.2139 59.8701V62.0735Z" fill="white"/>
<path d="M78.626 54.8176C74.8783 54.4757 71.9718 55.1215 71.9718 55.1215V56.4891C71.9718 56.4891 75.9491 55.9573 77.1728 56.4891C78.3966 57.059 77.8994 58.5405 77.8994 58.5405C77.8994 58.5405 74.5341 58.3506 73.2338 58.4645C71.9336 58.5405 71.5129 59.4902 71.4365 59.8321C71.36 60.174 71.36 62.1495 71.7424 62.7953C72.1248 63.4031 73.3486 63.9349 76.3315 63.859C79.3144 63.821 81.1118 63.4411 81.1118 63.4411C81.1118 63.4411 81.1118 57.7428 81.1118 56.6791C80.9971 55.7673 79.9645 55.0076 78.626 54.8176ZM77.8994 62.0735C77.8994 62.0735 76.5609 62.3394 75.4519 62.0735C74.3046 61.8076 74.4958 59.9461 75.2607 59.8701C76.0255 59.7942 77.8994 59.8701 77.8994 59.8701V62.0735Z" fill="white"/>
<path d="M51.8565 51.0569H48.4912V63.7452H51.8565V51.0569Z" fill="white"/>
<path d="M65.1647 59.1106C65.8148 59.1106 68.3006 59.1865 68.8742 58.9586C68.8742 58.9586 70.1744 58.3128 70.2509 57.1351C70.2892 55.9575 70.2509 53.9441 70.2509 53.9441C70.2509 53.9441 69.9068 51.9307 66.8091 51.9307H62.7172H60.6521H59.0459V63.6312H62.7554V59.1106H65.1647ZM62.7172 53.9061H65.6236H65.8531C65.8531 53.9061 66.6944 54.134 66.7326 54.8558C66.7709 55.5016 66.7326 56.0335 66.7326 56.0335C66.7326 56.0335 66.6561 56.9452 65.8531 57.0592H62.7172V53.9061Z" fill="white"/>
</svg>