<svg xmlns="http://www.w3.org/2000/svg" width="100" height="33" viewBox="0 0 100 33" fill="none">
<path d="M43.3509 32.45H35.1911L40.2909 0.569656H48.4515L43.3509 32.45ZM28.3266 0.569656L20.5475 22.4972L19.6269 17.7753L19.6278 17.777L16.8821 3.44011C16.8821 3.44011 16.5501 0.569656 13.0114 0.569656H0.150906L0 1.10946C0 1.10946 3.93276 1.94178 8.53538 4.75339L15.6246 32.4508H24.1264L37.1085 0.569656H28.3266ZM92.5075 32.45H100L93.4675 0.568804H86.9081C83.8791 0.568804 83.1414 2.94465 83.1414 2.94465L70.9717 32.45H79.4777L81.1787 27.7145H91.5518L92.5075 32.45ZM83.5287 21.1728L87.8161 9.24242L90.228 21.1728H83.5287ZM71.6097 8.23614L72.7741 1.39003C72.7741 1.39003 69.1809 0 65.4351 0C61.3858 0 51.7698 1.80022 51.7698 10.554C51.7698 18.7901 63.0558 18.8925 63.0558 23.2186C63.0558 27.5448 52.9326 26.7696 49.5917 24.0415L48.3786 31.1998C48.3786 31.1998 52.0221 33 57.5889 33C63.1573 33 71.5577 30.0673 71.5577 22.0853C71.5577 13.7963 60.1702 13.0245 60.1702 9.42065C60.171 5.81595 68.1179 6.27901 71.6097 8.23614Z" fill="#2566AF"/>
<path d="M19.6278 17.7763L16.8821 3.43942C16.8821 3.43942 16.5501 0.56897 13.0114 0.56897H0.150906L0 1.10878C0 1.10878 6.18125 2.41182 12.1102 7.29399C17.7792 11.9604 19.6278 17.7763 19.6278 17.7763Z" fill="#E6A540"/>
</svg>