<svg xmlns="http://www.w3.org/2000/svg" width="124" height="35" viewBox="0 0 124 35" fill="none">
<g clip-path="url(#clip0)">
<path d="M81.3983 11.0945C84.0924 10.4457 87.3695 11.0494 89.1285 13.3449C89.8765 14.245 90.1953 15.3925 90.4733 16.5064C89.2899 16.525 88.102 16.525 86.9186 16.525C86.4038 13.9821 82.9049 12.9656 81.0489 14.7062C79.7409 16.1276 79.5045 18.239 79.775 20.0809C80.0641 21.4944 80.6356 23.1371 82.0971 23.7226C84.1793 24.4984 86.6401 23.1146 86.9186 20.8757C88.125 20.8757 89.3346 20.8717 90.5447 20.8983C90.2933 23.0513 89.2522 25.2937 87.1403 26.1752C83.8631 27.5967 79.1697 27.1727 77.2716 23.7864C77.5731 22.4061 77.9109 20.9695 77.5988 19.5591C77.4223 18.5169 76.8774 17.5978 76.5391 16.6078C76.5324 13.9149 78.847 11.6269 81.3983 11.0945Z" fill="white"/>
<path d="M45.3154 11.486C46.6115 11.4749 47.908 11.4749 49.2045 11.4709C49.9747 14.8648 50.403 18.338 51.3426 21.6952C52.2857 18.912 52.7216 15.9902 53.5228 13.1663C53.7591 12.3113 54.4322 11.4076 55.4166 11.4714C56.4838 11.3439 57.2092 12.3304 57.4274 13.2602C58.194 16.0358 58.6973 18.8823 59.5504 21.6394C60.5312 18.3123 61.069 14.8808 61.7869 11.49C63.0524 11.4749 64.3156 11.4749 65.5824 11.4864C64.5223 15.7433 63.3237 19.9626 62.2374 24.2119C61.9705 25.2701 61.5049 26.4774 60.3698 26.8677C59.0848 27.1602 57.9196 26.1401 57.6079 24.9514C56.808 22.4006 56.2289 19.7829 55.4396 17.225C54.8047 19.7679 54.1546 22.3032 53.4554 24.8275C53.192 25.9565 52.2001 27.1151 50.9267 26.8907C49.6976 26.7517 49.0923 25.533 48.8223 24.4677C47.6597 20.1392 46.4763 15.8146 45.3154 11.486Z" fill="#9DE60B"/>
<path d="M91.3311 11.4833C92.4928 11.4793 93.6576 11.4793 94.8188 11.4753C94.8109 12.7508 94.7998 14.0257 94.9013 15.2937C96.7693 15.4246 98.8174 14.8958 100.538 15.8411C102.023 16.6359 102.879 18.3163 102.868 19.974C102.891 22.2806 102.861 24.5872 102.872 26.8977C101.741 26.9052 100.614 26.9088 99.4861 26.9123C99.4634 24.696 99.5127 22.4793 99.4754 20.263C99.5202 19.5129 98.9863 18.7287 98.2122 18.6424C97.085 18.4999 95.9464 18.5752 94.8153 18.5973C94.8228 21.365 94.8193 24.1367 94.8193 26.9088C93.658 26.9052 92.4968 26.9052 91.3359 26.9052C91.3311 21.7637 91.339 16.6248 91.3311 11.4833ZM118.05 11.4789H121.353C121.349 12.6384 121.349 13.793 121.345 14.952C122.228 14.952 123.111 14.952 123.998 14.956C123.994 15.811 123.994 16.67 123.994 17.525H121.314C121.382 19.4833 121.168 21.4632 121.428 23.4135C122.021 24.1451 123.07 24.0402 123.908 24.2761C123.897 25.1501 123.893 26.0241 123.893 26.9017C121.995 26.9433 119.402 27.1907 118.429 25.1315C117.59 22.705 118.218 20.0497 118.031 17.5329C117.182 17.525 116.332 17.5214 115.483 17.5104C115.483 16.6625 115.479 15.815 115.479 14.9715C116.336 14.9604 117.193 14.9529 118.053 14.9489C118.05 13.7934 118.05 12.6384 118.05 11.4789Z" fill="white"/>
<path d="M76.444 21.7361C76.5043 19.5194 76.0113 17.0176 74.0462 15.69C71.4758 14.0587 67.3616 14.2796 65.6292 17.0362C64.182 19.4667 64.1039 22.9097 66.0646 25.0964C67.9433 27.2153 71.2732 27.3282 73.734 26.2669C75.0912 25.7155 75.8388 24.3989 76.35 23.1089C75.2681 23.0738 74.1853 23.0688 73.1031 23.0938C72.1449 24.2299 70.4538 24.6879 69.1125 23.975C68.2594 23.5625 68.0869 22.565 67.8196 21.7622C70.6941 21.7171 73.5686 21.7582 76.444 21.7361ZM67.7327 19.422C68.1202 18.2404 69.097 17.2088 70.4538 17.4226C71.7915 17.2053 72.7005 18.2816 73.0765 19.4255C71.2953 19.4778 69.5142 19.4742 67.7327 19.422Z" fill="#9DE60B"/>
<path d="M114.914 18.8109C114.846 16.7592 113.031 15.1391 111.051 14.9288C109.089 14.7266 106.868 14.7266 105.249 16.0246C104.388 16.6468 104.114 17.716 103.892 18.6949C104.903 18.7215 105.914 18.725 106.928 18.7175C107.503 16.9995 109.754 16.7818 111.107 17.6673C111.618 18.0948 111.573 18.8149 111.719 19.411C109.6 19.4937 107.27 19.0848 105.388 20.3036C103.596 21.3542 103.269 23.9307 104.309 25.6111C105.038 26.7024 106.463 26.9051 107.676 26.9015C110.096 26.9126 112.516 26.8975 114.936 26.9015C114.914 24.2007 114.982 21.5033 114.914 18.8109ZM107.136 23.7501C106.978 23.1576 107.315 22.6172 107.511 22.0888C108.856 21.7848 110.239 21.7436 111.618 21.7737C111.626 22.715 111.626 23.6532 111.622 24.5945C110.126 24.5003 108.292 24.9733 107.136 23.7501Z" fill="white"/>
<path d="M23.9685 2.19082C19.5788 -0.276393 14.1073 -0.648577 9.38332 1.05479C6.28042 2.17046 3.46927 4.24336 1.73336 7.06726C0.159741 9.61281 -0.430867 12.7885 0.330006 15.7014C1.09132 18.9351 3.33625 21.6444 6.07113 23.4553C5.55679 24.948 5.04954 26.4403 4.57156 27.9436C6.30037 27.0475 8.00878 26.1128 9.73095 25.2007C11.8078 25.8645 13.9902 26.1827 16.1704 26.1128C15.6024 24.4501 15.4676 22.6596 15.7261 20.9248C16.1394 18.5182 17.4439 16.3152 19.2467 14.6818C22.2822 11.8446 26.5863 10.6457 30.6815 10.9347C29.9162 7.18808 27.278 4.01899 23.9685 2.19082ZM12.2011 8.98748C11.8961 10.4554 9.92427 11.1635 8.77276 10.1797C7.43902 9.24062 7.81192 6.90795 9.3811 6.43973C10.9166 5.84804 12.6636 7.40537 12.2011 8.98748ZM22.8635 8.56175C22.8768 10.2514 20.6226 11.3047 19.354 10.1571C18.0385 9.21805 18.4114 6.93007 19.9557 6.45522C21.3369 5.9131 22.9713 7.07612 22.8635 8.56175Z" fill="#9DE60B"/>
<path d="M41.4344 18.8137C40.3632 16.3912 38.3404 14.4727 35.9939 13.2854C31.8513 11.1877 26.6963 11.2036 22.5674 13.3345C19.6955 14.8068 17.2998 17.4422 16.6174 20.6489C16.0561 23.0086 16.5611 25.5497 17.8142 27.6093C19.6822 30.6997 23.0547 32.6717 26.5637 33.3058C29.1053 33.8214 31.7324 33.5191 34.1999 32.8018C35.6774 33.378 37.0018 34.3056 38.4366 34.9915C38.0698 33.7531 37.6746 32.5232 37.2514 31.3029C38.8565 30.158 40.3206 28.737 41.2008 26.9486C42.5101 24.4584 42.5886 21.3747 41.4344 18.8137ZM27.0156 19.7391C26.652 20.8839 24.979 21.2291 24.1752 20.3551C23.2861 19.5505 23.6316 17.8631 24.7968 17.5046C26.0929 16.9603 27.5836 18.4481 27.0156 19.7391ZM35.4557 19.8979C35.0131 20.9291 33.4661 21.1663 32.703 20.3688C32.3328 20.0369 32.2428 19.5328 32.0947 19.0872C32.2925 18.2848 32.829 17.4489 33.7424 17.413C35.0065 17.24 36.1154 18.7708 35.4557 19.8979Z" fill="white"/>
</g>
<defs>
<clipPath id="clip0">
<rect width="124" height="35" fill="white"/>
</clipPath>
</defs>
</svg>